Roman_opsz10_wght700.ufo
<glyph name="exclam" format="2">
	<unicode hex="0021"/>
	<advance width="700"/>
	<outline>
		<contour>
			<point x="350" y="452" type="curve" smooth="yes"/>
			<point x="388" y="452"/>
			<point x="394" y="456"/>
			<point x="400" y="496" type="curve" smooth="yes"/>
			<point x="504" y="1226"/>
			<point x="508" y="1264"/>
			<point x="508" y="1268" type="curve"/>
			<point x="508" y="1346"/>
			<point x="436" y="1410"/>
			<point x="350" y="1410" type="curve" smooth="yes"/>
			<point x="264" y="1410"/>
			<point x="192" y="1346"/>
			<point x="192" y="1268" type="curve"/>
			<point x="192" y="1256"/>
			<point x="194" y="1234"/>
			<point x="300" y="504" type="curve" smooth="yes"/>
			<point x="306" y="456"/>
			<point x="308" y="452"/>
		</contour>
		<contour>
			<point x="350" y="0" type="curve" smooth="yes"/>
			<point x="436" y="0"/>
			<point x="506" y="70"/>
			<point x="506" y="156" type="curve" smooth="yes"/>
			<point x="506" y="242"/>
			<point x="436" y="312"/>
			<point x="350" y="312" type="curve" smooth="yes"/>
			<point x="264" y="312"/>
			<point x="194" y="242"/>
			<point x="194" y="156" type="curve" smooth="yes"/>
			<point x="194" y="70"/>
			<point x="264" y="0"/>
		</contour>
	</outline>
</glyph>
<glyph name="numbersign" format="2">
	<unicode hex="0023"/>
	<advance width="1916"/>
	<outline>
		<contour>
			<point x="446" y="-388" type="curve" smooth="yes"/>
			<point x="488" y="-388"/>
			<point x="498" y="-356"/>
			<point x="506" y="-332" type="curve" smooth="yes"/>
			<point x="676" y="216" type="line"/>
			<point x="1060" y="216" type="line"/>
			<point x="1008" y="48"/>
			<point x="956" y="-120"/>
			<point x="904" y="-288" type="curve" smooth="yes"/>
			<point x="900" y="-300"/>
			<point x="896" y="-312"/>
			<point x="896" y="-328" type="curve" smooth="yes"/>
			<point x="896" y="-358"/>
			<point x="920" y="-388"/>
			<point x="958" y="-388" type="curve" smooth="yes"/>
			<point x="1000" y="-388"/>
			<point x="1010" y="-356"/>
			<point x="1018" y="-332" type="curve" smooth="yes"/>
			<point x="1188" y="216" type="line"/>
			<point x="1694" y="216" type="line" smooth="yes"/>
			<point x="1724" y="216"/>
			<point x="1786" y="216"/>
			<point x="1786" y="278" type="curve" smooth="yes"/>
			<point x="1786" y="338"/>
			<point x="1728" y="338"/>
			<point x="1704" y="338" type="curve" smooth="yes"/>
			<point x="1228" y="338" type="line"/>
			<point x="1326" y="664" type="line"/>
			<point x="1704" y="664" type="line" smooth="yes"/>
			<point x="1728" y="664"/>
			<point x="1786" y="664"/>
			<point x="1786" y="724" type="curve" smooth="yes"/>
			<point x="1786" y="786"/>
			<point x="1724" y="786"/>
			<point x="1694" y="786" type="curve" smooth="yes"/>
			<point x="1366" y="786" type="line"/>
			<point x="1522" y="1288" type="line" smooth="yes"/>
			<point x="1530" y="1312"/>
			<point x="1530" y="1314"/>
			<point x="1530" y="1328" type="curve" smooth="yes"/>
			<point x="1530" y="1358"/>
			<point x="1506" y="1388"/>
			<point x="1468" y="1388" type="curve" smooth="yes"/>
			<point x="1424" y="1388"/>
			<point x="1414" y="1354"/>
			<point x="1406" y="1328" type="curve" smooth="yes"/>
			<point x="1238" y="786" type="line"/>
			<point x="854" y="786" type="line"/>
			<point x="1010" y="1288" type="line" smooth="yes"/>
			<point x="1018" y="1312"/>
			<point x="1018" y="1314"/>
			<point x="1018" y="1328" type="curve" smooth="yes"/>
			<point x="1018" y="1358"/>
			<point x="994" y="1388"/>
			<point x="956" y="1388" type="curve" smooth="yes"/>
			<point x="912" y="1388"/>
			<point x="902" y="1354"/>
			<point x="894" y="1328" type="curve" smooth="yes"/>
			<point x="726" y="786" type="line"/>
			<point x="220" y="786" type="line" smooth="yes"/>
			<point x="190" y="786"/>
			<point x="128" y="786"/>
			<point x="128" y="724" type="curve" smooth="yes"/>
			<point x="128" y="664"/>
			<point x="186" y="664"/>
			<point x="210" y="664" type="curve" smooth="yes"/>
			<point x="686" y="664" type="line"/>
			<point x="588" y="338" type="line"/>
			<point x="210" y="338" type="line" smooth="yes"/>
			<point x="186" y="338"/>
			<point x="128" y="338"/>
			<point x="128" y="278" type="curve" smooth="yes"/>
			<point x="128" y="216"/>
			<point x="190" y="216"/>
			<point x="220" y="216" type="curve" smooth="yes"/>
			<point x="548" y="216" type="line"/>
			<point x="496" y="48"/>
			<point x="444" y="-120"/>
			<point x="392" y="-288" type="curve" smooth="yes"/>
			<point x="388" y="-300"/>
			<point x="384" y="-312"/>
			<point x="384" y="-328" type="curve" smooth="yes"/>
			<point x="384" y="-358"/>
			<point x="408" y="-388"/>
		</contour>
		<contour>
			<point x="716" y="338" type="line"/>
			<point x="814" y="664" type="line"/>
			<point x="1198" y="664" type="line"/>
			<point x="1100" y="338" type="line"/>
		</contour>
	</outline>
</glyph>
<glyph name="dollar" format="2">
	<unicode hex="0024"/>
	<advance width="1150"/>
	<outline>
		<contour>
			<point x="528" y="-112" type="line"/>
			<point x="622" y="-112" type="line"/>
			<point x="622" y="-10" type="line"/>
			<point x="918" y="18"/>
			<point x="1020" y="234"/>
			<point x="1020" y="420" type="curve" smooth="yes"/>
			<point x="1020" y="560"/>
			<point x="956" y="664"/>
			<point x="888" y="732" type="curve" smooth="yes"/>
			<point x="794" y="824"/>
			<point x="684" y="844"/>
			<point x="622" y="856" type="curve"/>
			<point x="622" y="1304" type="line"/>
			<point x="668" y="1300"/>
			<point x="832" y="1286"/>
			<point x="896" y="1162" type="curve"/>
			<point x="896" y="1162"/>
			<point x="896" y="1162"/>
			<point x="896" y="1162" type="curve"/>
			<point x="798" y="1158"/>
			<point x="770" y="1086"/>
			<point x="770" y="1038" type="curve" smooth="yes"/>
			<point x="770" y="948"/>
			<point x="842" y="912"/>
			<point x="894" y="912" type="curve" smooth="yes"/>
			<point x="930" y="912"/>
			<point x="1020" y="932"/>
			<point x="1020" y="1044" type="curve" smooth="yes"/>
			<point x="1020" y="1206"/>
			<point x="916" y="1380"/>
			<point x="622" y="1398" type="curve"/>
			<point x="622" y="1500" type="line"/>
			<point x="528" y="1500" type="line"/>
			<point x="528" y="1398" type="line"/>
			<point x="232" y="1376"/>
			<point x="128" y="1170"/>
			<point x="128" y="996" type="curve" smooth="yes"/>
			<point x="128" y="888"/>
			<point x="170" y="794"/>
			<point x="246" y="718" type="curve" smooth="yes"/>
			<point x="342" y="624"/>
			<point x="446" y="604"/>
			<point x="528" y="586" type="curve"/>
			<point x="528" y="84" type="line"/>
			<point x="308" y="104"/>
			<point x="258" y="226"/>
			<point x="246" y="254" type="curve"/>
			<point x="246" y="254"/>
			<point x="246" y="254"/>
			<point x="246" y="254" type="curve"/>
			<point x="352" y="254"/>
			<point x="378" y="330"/>
			<point x="378" y="378" type="curve" smooth="yes"/>
			<point x="378" y="472"/>
			<point x="300" y="504"/>
			<point x="254" y="504" type="curve" smooth="yes"/>
			<point x="238" y="504"/>
			<point x="128" y="498"/>
			<point x="128" y="370" type="curve" smooth="yes"/>
			<point x="128" y="214"/>
			<point x="220" y="12"/>
			<point x="528" y="-10" type="curve"/>
		</contour>
		<contour>
			<point x="528" y="878" type="line"/>
			<point x="346" y="908"/>
			<point x="288" y="1014"/>
			<point x="288" y="1092" type="curve" smooth="yes"/>
			<point x="288" y="1198"/>
			<point x="370" y="1292"/>
			<point x="528" y="1304" type="curve"/>
		</contour>
		<contour>
			<point x="622" y="84" type="curve"/>
			<point x="622" y="245"/>
			<point x="622" y="405"/>
			<point x="622" y="566" type="curve"/>
			<point x="766" y="542"/>
			<point x="860" y="440"/>
			<point x="860" y="324" type="curve" smooth="yes"/>
			<point x="860" y="202"/>
			<point x="778" y="100"/>
		</contour>
	</outline>
</glyph>
<glyph name="percent" format="2">
	<unicode hex="0025"/>
	<advance width="1916"/>
	<outline>
		<contour>
			<point x="1572" y="1390" type="line" smooth="yes"/>
			<point x="1586" y="1408"/>
			<point x="1594" y="1418"/>
			<point x="1594" y="1438" type="curve" smooth="yes"/>
			<point x="1594" y="1478"/>
			<point x="1562" y="1500"/>
			<point x="1534" y="1500" type="curve" smooth="yes"/>
			<point x="1504" y="1500"/>
			<point x="1490" y="1482"/>
			<point x="1474" y="1462" type="curve" smooth="yes"/>
			<point x="1386" y="1358"/>
			<point x="1256" y="1288"/>
			<point x="1080" y="1288" type="curve" smooth="yes"/>
			<point x="848" y="1288"/>
			<point x="688" y="1404"/>
			<point x="628" y="1448" type="curve" smooth="yes"/>
			<point x="586" y="1478"/>
			<point x="538" y="1500"/>
			<point x="472" y="1500" type="curve" smooth="yes"/>
			<point x="304" y="1500"/>
			<point x="128" y="1378"/>
			<point x="128" y="1098" type="curve" smooth="yes"/>
			<point x="128" y="808"/>
			<point x="310" y="694"/>
			<point x="472" y="694" type="curve" smooth="yes"/>
			<point x="620" y="694"/>
			<point x="766" y="812"/>
			<point x="766" y="1096" type="curve" smooth="yes"/>
			<point x="766" y="1132"/>
			<point x="766" y="1204"/>
			<point x="736" y="1298" type="curve"/>
			<point x="868" y="1238"/>
			<point x="984" y="1216"/>
			<point x="1082" y="1216" type="curve" smooth="yes"/>
			<point x="1124" y="1216"/>
			<point x="1216" y="1220"/>
			<point x="1316" y="1260" type="curve"/>
			<point x="1316" y="1260" type="line"/>
			<point x="342" y="0" type="line"/>
			<point x="340" y="-2"/>
			<point x="320" y="-28"/>
			<point x="320" y="-50" type="curve" smooth="yes"/>
			<point x="320" y="-84"/>
			<point x="348" y="-112"/>
			<point x="382" y="-112" type="curve" smooth="yes"/>
			<point x="410" y="-112"/>
			<point x="420" y="-100"/>
			<point x="434" y="-80" type="curve" smooth="yes"/>
		</contour>
		<contour>
			<point x="476" y="766" type="curve" smooth="yes"/>
			<point x="334" y="766"/>
			<point x="334" y="972"/>
			<point x="334" y="1096" type="curve" smooth="yes"/>
			<point x="334" y="1222"/>
			<point x="334" y="1428"/>
			<point x="476" y="1428" type="curve" smooth="yes"/>
			<point x="562" y="1428"/>
			<point x="672" y="1346"/>
			<point x="672" y="1098" type="curve" smooth="yes"/>
			<point x="672" y="836"/>
			<point x="552" y="766"/>
		</contour>
		<contour>
			<point x="1496" y="-40" type="curve" smooth="yes"/>
			<point x="1354" y="-40"/>
			<point x="1354" y="166"/>
			<point x="1354" y="290" type="curve" smooth="yes"/>
			<point x="1354" y="416"/>
			<point x="1354" y="622"/>
			<point x="1496" y="622" type="curve" smooth="yes"/>
			<point x="1582" y="622"/>
			<point x="1692" y="540"/>
			<point x="1692" y="292" type="curve" smooth="yes"/>
			<point x="1692" y="30"/>
			<point x="1572" y="-40"/>
		</contour>
		<contour>
			<point x="1786" y="290" type="curve" smooth="yes"/>
			<point x="1786" y="584"/>
			<point x="1632" y="694"/>
			<point x="1492" y="694" type="curve" smooth="yes"/>
			<point x="1324" y="694"/>
			<point x="1148" y="572"/>
			<point x="1148" y="292" type="curve" smooth="yes"/>
			<point x="1148" y="2"/>
			<point x="1330" y="-112"/>
			<point x="1492" y="-112" type="curve" smooth="yes"/>
			<point x="1640" y="-112"/>
			<point x="1786" y="6"/>
		</contour>
	</outline>
</glyph>
<glyph name="ampersand" format="2">
  <advance width="894"/>
  <unicode hex="0026"/>
  <outline>
    <contour>
      <point x="737" y="441" type="curve" smooth="yes"/>
      <point x="726" y="441"/>
      <point x="642" y="442"/>
      <point x="615" y="444" type="curve"/>
      <point x="615" y="397" type="line"/>
      <point x="637" y="397"/>
      <point x="664" y="397"/>
      <point x="688" y="387" type="curve"/>
      <point x="688.0" y="387.0"/>
      <point x="688.0" y="387.0"/>
      <point x="688" y="387" type="curve"/>
      <point x="632" y="299"/>
      <point x="572" y="213"/>
      <point x="497" y="141" type="curve"/>
      <point x="434" y="207"/>
      <point x="359" y="295"/>
      <point x="320" y="379" type="curve"/>
      <point x="379" y="432"/>
      <point x="462" y="508"/>
      <point x="462" y="574" type="curve" smooth="yes"/>
      <point x="462" y="627"/>
      <point x="430" y="705"/>
      <point x="352" y="705" type="curve" smooth="yes"/>
      <point x="269" y="705"/>
      <point x="172" y="643"/>
      <point x="172" y="528" type="curve" smooth="yes"/>
      <point x="172" y="469"/>
      <point x="185" y="405"/>
      <point x="215" y="336" type="curve"/>
      <point x="182.36599999999999" y="308.028"/>
      <point x="149.732" y="280.056"/>
      <point x="117" y="252" type="curve" smooth="yes"/>
      <point x="56" y="200"/>
      <point x="48" y="175"/>
      <point x="48" y="138" type="curve" smooth="yes"/>
      <point x="48" y="45"/>
      <point x="146" y="-11"/>
      <point x="256" y="-11" type="curve" smooth="yes"/>
      <point x="327" y="-11"/>
      <point x="394" y="12"/>
      <point x="455" y="52" type="curve"/>
      <point x="483" y="36"/>
      <point x="563" y="-11"/>
      <point x="666" y="-11" type="curve" smooth="yes"/>
      <point x="748" y="-11"/>
      <point x="826" y="34"/>
      <point x="829" y="118" type="curve"/>
      <point x="782" y="118" type="line"/>
      <point x="778" y="43"/>
      <point x="690" y="36"/>
      <point x="671" y="36" type="curve" smooth="yes"/>
      <point x="624" y="36"/>
      <point x="575" y="66"/>
      <point x="529" y="110" type="curve"/>
      <point x="575" y="157"/>
      <point x="610" y="191"/>
      <point x="736" y="377" type="curve" smooth="yes"/>
      <point x="750" y="397"/>
      <point x="783" y="397"/>
      <point x="836" y="397" type="curve"/>
      <point x="836.0" y="397.0"/>
      <point x="836.0" y="397.0"/>
      <point x="836" y="397" type="curve"/>
      <point x="836" y="444" type="line"/>
      <point x="804" y="442"/>
      <point x="764" y="441"/>
    </contour>
    <contour>
      <point x="231" y="302" type="curve"/>
      <point x="266" y="236"/>
      <point x="325" y="148"/>
      <point x="415" y="80" type="curve"/>
      <point x="347" y="36"/>
      <point x="275" y="36"/>
      <point x="268" y="36" type="curve" smooth="yes"/>
      <point x="185" y="36"/>
      <point x="176" y="145"/>
      <point x="176" y="174" type="curve" smooth="yes"/>
      <point x="176" y="221"/>
      <point x="190" y="273"/>
    </contour>
    <contour>
      <point x="305" y="415" type="curve"/>
      <point x="293" y="444"/>
      <point x="276" y="503"/>
      <point x="276" y="565" type="curve" smooth="yes"/>
      <point x="276" y="648"/>
      <point x="328" y="669"/>
      <point x="353" y="669" type="curve" smooth="yes"/>
      <point x="402" y="669"/>
      <point x="415" y="604"/>
      <point x="415" y="574" type="curve" smooth="yes"/>
      <point x="415" y="529"/>
      <point x="372" y="475"/>
    </contour>
  </outline>
</glyph>
<glyph name="parenleft" format="2">
	<unicode hex="0028"/>
	<advance width="894"/>
	<outline>
		<contour>
			<point x="216" y="502" type="curve" smooth="yes"/>
			<point x="216" y="252"/>
			<point x="282" y="32"/>
			<point x="376" y="-134" type="curve" smooth="yes"/>
			<point x="508" y="-364"/>
			<point x="690" y="-498"/>
			<point x="728" y="-498" type="curve" smooth="yes"/>
			<point x="744" y="-498"/>
			<point x="764" y="-492"/>
			<point x="764" y="-470" type="curve" smooth="yes"/>
			<point x="764" y="-460"/>
			<point x="760" y="-452"/>
			<point x="758" y="-450" type="curve" smooth="yes"/>
			<point x="554" y="-266"/>
			<point x="410" y="39"/>
			<point x="410" y="500" type="curve" smooth="yes"/>
			<point x="410" y="894"/>
			<point x="512" y="1208"/>
			<point x="732" y="1430" type="curve" smooth="yes"/>
			<point x="762" y="1460"/>
			<point x="764" y="1462"/>
			<point x="764" y="1472" type="curve" smooth="yes"/>
			<point x="764" y="1494"/>
			<point x="744" y="1500"/>
			<point x="728" y="1500" type="curve" smooth="yes"/>
			<point x="694" y="1500"/>
			<point x="610" y="1426"/>
			<point x="574" y="1392" type="curve" smooth="yes"/>
			<point x="262" y="1082"/>
			<point x="216" y="714"/>
		</contour>
	</outline>
</glyph>
<glyph name="parenright" format="2">
	<unicode hex="0029"/>
	<advance width="894"/>
	<outline>
		<contour>
			<point x="676" y="500" type="curve" smooth="yes"/>
			<point x="676" y="750"/>
			<point x="610" y="970"/>
			<point x="516" y="1136" type="curve" smooth="yes"/>
			<point x="384" y="1366"/>
			<point x="202" y="1500"/>
			<point x="164" y="1500" type="curve" smooth="yes"/>
			<point x="148" y="1500"/>
			<point x="128" y="1494"/>
			<point x="128" y="1472" type="curve" smooth="yes"/>
			<point x="128" y="1462"/>
			<point x="128" y="1458"/>
			<point x="162" y="1426" type="curve" smooth="yes"/>
			<point x="414" y="1170"/>
			<point x="482" y="816"/>
			<point x="482" y="502" type="curve" smooth="yes"/>
			<point x="482" y="108"/>
			<point x="380" y="-206"/>
			<point x="160" y="-428" type="curve" smooth="yes"/>
			<point x="130" y="-458"/>
			<point x="128" y="-460"/>
			<point x="128" y="-470" type="curve" smooth="yes"/>
			<point x="128" y="-492"/>
			<point x="148" y="-498"/>
			<point x="164" y="-498" type="curve" smooth="yes"/>
			<point x="198" y="-498"/>
			<point x="282" y="-424"/>
			<point x="318" y="-390" type="curve" smooth="yes"/>
			<point x="630" y="-80"/>
			<point x="676" y="288"/>
		</contour>
	</outline>
</glyph>
<glyph name="asterisk" format="2">
	<unicode hex="002A"/>
	<advance width="1150"/>
	<outline>
		<contour>
			<point x="574" y="612" type="curve" smooth="yes"/>
			<point x="608" y="612"/>
			<point x="662" y="634"/>
			<point x="662" y="690" type="curve" smooth="yes"/>
			<point x="662" y="700"/>
			<point x="648" y="786"/>
			<point x="614" y="990" type="curve"/>
			<point x="858" y="806" type="line" smooth="yes"/>
			<point x="884" y="786"/>
			<point x="902" y="784"/>
			<point x="912" y="784" type="curve" smooth="yes"/>
			<point x="952" y="784"/>
			<point x="1000" y="822"/>
			<point x="1000" y="880" type="curve" smooth="yes"/>
			<point x="1000" y="938"/>
			<point x="958" y="952"/>
			<point x="940" y="958" type="curve" smooth="yes"/>
			<point x="658" y="1056" type="line"/>
			<point x="940" y="1154" type="line" smooth="yes"/>
			<point x="958" y="1160"/>
			<point x="1000" y="1174"/>
			<point x="1000" y="1232" type="curve" smooth="yes"/>
			<point x="1000" y="1290"/>
			<point x="952" y="1328"/>
			<point x="912" y="1328" type="curve" smooth="yes"/>
			<point x="900" y="1328"/>
			<point x="882" y="1324"/>
			<point x="858" y="1306" type="curve" smooth="yes"/>
			<point x="612" y="1120" type="line"/>
			<point x="662" y="1408"/>
			<point x="662" y="1412"/>
			<point x="662" y="1422" type="curve" smooth="yes"/>
			<point x="662" y="1480"/>
			<point x="608" y="1500"/>
			<point x="574" y="1500" type="curve" smooth="yes"/>
			<point x="540" y="1500"/>
			<point x="486" y="1478"/>
			<point x="486" y="1422" type="curve" smooth="yes"/>
			<point x="486" y="1412"/>
			<point x="486" y="1408"/>
			<point x="536" y="1120" type="curve"/>
			<point x="290" y="1306" type="line" smooth="yes"/>
			<point x="266" y="1324"/>
			<point x="248" y="1328"/>
			<point x="236" y="1328" type="curve" smooth="yes"/>
			<point x="196" y="1328"/>
			<point x="148" y="1290"/>
			<point x="148" y="1232" type="curve" smooth="yes"/>
			<point x="148" y="1174"/>
			<point x="190" y="1160"/>
			<point x="208" y="1154" type="curve" smooth="yes"/>
			<point x="490" y="1056" type="line"/>
			<point x="208" y="958" type="line" smooth="yes"/>
			<point x="190" y="952"/>
			<point x="148" y="938"/>
			<point x="148" y="880" type="curve" smooth="yes"/>
			<point x="148" y="822"/>
			<point x="196" y="784"/>
			<point x="236" y="784" type="curve" smooth="yes"/>
			<point x="248" y="784"/>
			<point x="266" y="788"/>
			<point x="290" y="806" type="curve" smooth="yes"/>
			<point x="536" y="992" type="line"/>
			<point x="486" y="704"/>
			<point x="486" y="700"/>
			<point x="486" y="690" type="curve" smooth="yes"/>
			<point x="486" y="632"/>
			<point x="540" y="612"/>
		</contour>
	</outline>
</glyph>
<glyph name="plus" format="2">
	<unicode hex="002B"/>
	<advance width="1788"/>
	<outline>
		<contour>
			<point x="954" y="440" type="line"/>
			<point x="1572" y="440" type="line" smooth="yes"/>
			<point x="1598" y="440"/>
			<point x="1658" y="440"/>
			<point x="1658" y="500" type="curve" smooth="yes"/>
			<point x="1658" y="562"/>
			<point x="1600" y="562"/>
			<point x="1572" y="562" type="curve" smooth="yes"/>
			<point x="954" y="562" type="line"/>
			<point x="954" y="1182" type="line" smooth="yes"/>
			<point x="954" y="1206"/>
			<point x="954" y="1266"/>
			<point x="894" y="1266" type="curve" smooth="yes"/>
			<point x="832" y="1266"/>
			<point x="832" y="1208"/>
			<point x="832" y="1182" type="curve" smooth="yes"/>
			<point x="832" y="562" type="line"/>
			<point x="214" y="562" type="line" smooth="yes"/>
			<point x="186" y="562"/>
			<point x="128" y="562"/>
			<point x="128" y="500" type="curve" smooth="yes"/>
			<point x="128" y="440"/>
			<point x="188" y="440"/>
			<point x="214" y="440" type="curve" smooth="yes"/>
			<point x="832" y="440" type="line"/>
			<point x="832" y="-180" type="line" smooth="yes"/>
			<point x="832" y="-204"/>
			<point x="832" y="-264"/>
			<point x="892" y="-264" type="curve" smooth="yes"/>
			<point x="954" y="-264"/>
			<point x="954" y="-206"/>
			<point x="954" y="-180" type="curve" smooth="yes"/>
		</contour>
	</outline>
</glyph>
<glyph name="comma" format="2">
	<unicode hex="002C"/>
	<advance width="638"/>
	<outline>
		<contour>
			<point x="162" y="156" type="curve" smooth="yes"/>
			<point x="162" y="76"/>
			<point x="216" y="0"/>
			<point x="318" y="0" type="curve" smooth="yes"/>
			<point x="382" y="0"/>
			<point x="422" y="34"/>
			<point x="428" y="40" type="curve"/>
			<point x="412" y="-178"/>
			<point x="282" y="-284"/>
			<point x="240" y="-320" type="curve" smooth="yes"/>
			<point x="228" y="-330"/>
			<point x="222" y="-336"/>
			<point x="222" y="-348" type="curve" smooth="yes"/>
			<point x="222" y="-368"/>
			<point x="244" y="-388"/>
			<point x="260" y="-388" type="curve" smooth="yes"/>
			<point x="290" y="-388"/>
			<point x="500" y="-216"/>
			<point x="500" y="62" type="curve" smooth="yes"/>
			<point x="500" y="198"/>
			<point x="432" y="312"/>
			<point x="316" y="312" type="curve" smooth="yes"/>
			<point x="224" y="312"/>
			<point x="162" y="242"/>
		</contour>
	</outline>
</glyph>
<glyph name="hyphen" format="2">
	<unicode hex="002D"/>
	<advance width="766"/>
	<outline>
		<contour>
			<point x="636" y="348" type="line"/>
			<point x="636" y="542" type="line"/>
			<point x="26" y="542" type="line"/>
			<point x="26" y="348" type="line"/>
		</contour>
	</outline>
</glyph>
<glyph name="period" format="2">
	<unicode hex="002E"/>
	<advance width="638"/>
	<outline>
		<contour>
			<point x="474" y="156" type="curve" smooth="yes"/>
			<point x="474" y="242"/>
			<point x="404" y="312"/>
			<point x="318" y="312" type="curve" smooth="yes"/>
			<point x="232" y="312"/>
			<point x="162" y="242"/>
			<point x="162" y="156" type="curve" smooth="yes"/>
			<point x="162" y="70"/>
			<point x="232" y="0"/>
			<point x="318" y="0" type="curve" smooth="yes"/>
			<point x="404" y="0"/>
			<point x="474" y="70"/>
		</contour>
	</outline>
</glyph>
<glyph name="slash" format="2">
	<unicode hex="002F"/>
	<advance width="1150"/>
	<outline>
		<contour>
			<point x="1010" y="1400" type="line" smooth="yes"/>
			<point x="1020" y="1424"/>
			<point x="1020" y="1436"/>
			<point x="1020" y="1438" type="curve" smooth="yes"/>
			<point x="1020" y="1478"/>
			<point x="988" y="1500"/>
			<point x="960" y="1500" type="curve" smooth="yes"/>
			<point x="918" y="1500"/>
			<point x="908" y="1472"/>
			<point x="896" y="1444" type="curve" smooth="yes"/>
			<point x="138" y="-400" type="line" smooth="yes"/>
			<point x="128" y="-424"/>
			<point x="128" y="-436"/>
			<point x="128" y="-438" type="curve" smooth="yes"/>
			<point x="128" y="-478"/>
			<point x="160" y="-500"/>
			<point x="188" y="-500" type="curve" smooth="yes"/>
			<point x="230" y="-500"/>
			<point x="240" y="-474"/>
			<point x="252" y="-444" type="curve" smooth="yes"/>
		</contour>
	</outline>
</glyph>
<glyph name="zero" format="2">
	<unicode hex="0030"/>
	<advance width="575"/>
	<outline>
		<contour>
			<point x="287" y="-11" type="curve" smooth="yes"/>
			<point x="364.3544" y="-11"/>
			<point x="416.9844708082" y="12.893259303"/>
			<point x="452.7921454324" y="48.6259817953" type="curve" smooth="yes"/>
			<point x="528.0814725278" y="123.757714307"/>
			<point x="529" y="251.231"/>
			<point x="529" y="319" type="curve" smooth="yes"/>
			<point x="529" y="385.13654"/>
			<point x="528.5351214876" y="517.2858287608"/>
			<point x="451.8510957722" y="594.6847852317" type="curve" smooth="yes"/>
			<point x="416.065517024" y="630.8039955364"/>
			<point x="363.68138" y="655"/>
			<point x="287" y="655" type="curve"/>
			<point x="210.31862" y="655"/>
			<point x="157.934482976" y="630.9052340488"/>
			<point x="122.1489042278" y="594.8918645593" type="curve" smooth="yes"/>
			<point x="45.4648785124" y="517.719711736"/>
			<point x="45" y="385.81836"/>
			<point x="45" y="319" type="curve"/>
			<point x="45" y="251.90869"/>
			<point x="45.4592637361" y="124.1945668348"/>
			<point x="120.7637786832" y="48.8371847027" type="curve" smooth="yes"/>
			<point x="156.578676664" y="12.9971430391"/>
			<point x="209.32329" y="-11"/>
		</contour>
		<contour>
			<point x="287" y="25" type="curve" smooth="yes"/>
			<point x="251" y="25"/>
			<point x="195" y="47"/>
			<point x="182" y="120" type="curve" smooth="yes"/>
			<point x="173" y="172"/>
			<point x="173" y="276"/>
			<point x="173" y="331" type="curve" smooth="yes"/>
			<point x="173" y="403"/>
			<point x="173" y="468"/>
			<point x="181" y="520" type="curve" smooth="yes"/>
			<point x="193" y="609"/>
			<point x="263" y="619"/>
			<point x="287" y="619" type="curve" smooth="yes"/>
			<point x="324" y="619"/>
			<point x="365" y="600"/>
			<point x="384" y="556" type="curve" smooth="yes"/>
			<point x="401" y="519"/>
			<point x="401" y="413"/>
			<point x="401" y="331" type="curve" smooth="yes"/>
			<point x="401" y="275"/>
			<point x="401" y="184"/>
			<point x="394" y="132" type="curve" smooth="yes"/>
			<point x="380" y="39"/>
			<point x="317" y="25"/>
		</contour>
	</outline>
</glyph>
<glyph name="one" format="2">
	<unicode hex="0031"/>
	<advance width="1150"/>
	<outline>
		<contour>
			<point x="470" y="1128" type="curve"/>
			<point x="470" y="94" type="line"/>
			<point x="470" y="94"/>
			<point x="470" y="94"/>
			<point x="470" y="94" type="curve"/>
			<point x="192" y="94" type="line"/>
			<point x="192" y="0" type="line"/>
			<point x="280" y="6"/>
			<point x="492" y="6"/>
			<point x="590" y="6" type="curve" smooth="yes"/>
			<point x="688" y="6"/>
			<point x="900" y="6"/>
			<point x="988" y="0" type="curve"/>
			<point x="988" y="94" type="line"/>
			<point x="708" y="94" type="line"/>
			<point x="708" y="94"/>
			<point x="708" y="94"/>
			<point x="708" y="94" type="curve"/>
			<point x="708" y="1246" type="line" smooth="yes"/>
			<point x="708" y="1290"/>
			<point x="708" y="1310"/>
			<point x="656" y="1310" type="curve" smooth="yes"/>
			<point x="634" y="1310"/>
			<point x="630" y="1310"/>
			<point x="612" y="1296" type="curve" smooth="yes"/>
			<point x="458" y="1182"/>
			<point x="252" y="1182"/>
			<point x="210" y="1182" type="curve" smooth="yes"/>
			<point x="197" y="1182"/>
			<point x="183" y="1182"/>
			<point x="170" y="1182" type="curve"/>
			<point x="170" y="1151"/>
			<point x="170" y="1119"/>
			<point x="170" y="1088" type="curve"/>
			<point x="210" y="1088" type="line" smooth="yes"/>
			<point x="242" y="1088"/>
			<point x="352" y="1090"/>
		</contour>
	</outline>
</glyph>
<glyph name="two" format="2">
	<unicode hex="0032"/>
	<advance width="1150"/>
	<outline>
		<contour>
			<point x="758" y="930" type="curve" smooth="yes"/>
			<point x="758" y="792"/>
			<point x="682" y="656"/>
			<point x="542" y="514" type="curve" smooth="yes"/>
			<point x="140" y="104" type="line" smooth="yes"/>
			<point x="114" y="80"/>
			<point x="114" y="76"/>
			<point x="114" y="36" type="curve" smooth="yes"/>
			<point x="114" y="0" type="line"/>
			<point x="972" y="0" type="line"/>
			<point x="1034" y="444" type="line"/>
			<point x="940" y="444" type="line"/>
			<point x="934" y="404"/>
			<point x="916" y="276"/>
			<point x="888" y="262" type="curve" smooth="yes"/>
			<point x="866" y="250"/>
			<point x="716" y="250"/>
			<point x="684" y="250" type="curve" smooth="yes"/>
			<point x="390" y="250" type="line"/>
			<point x="484" y="328"/>
			<point x="588" y="414"/>
			<point x="678" y="480" type="curve" smooth="yes"/>
			<point x="906" y="648"/>
			<point x="1034" y="742"/>
			<point x="1034" y="932" type="curve" smooth="yes"/>
			<point x="1034" y="1162"/>
			<point x="826" y="1310"/>
			<point x="544" y="1310" type="curve" smooth="yes"/>
			<point x="302" y="1310"/>
			<point x="114" y="1186"/>
			<point x="114" y="1006" type="curve" smooth="yes"/>
			<point x="114" y="888"/>
			<point x="210" y="858"/>
			<point x="258" y="858" type="curve" smooth="yes"/>
			<point x="322" y="858"/>
			<point x="402" y="902"/>
			<point x="402" y="1002" type="curve" smooth="yes"/>
			<point x="402" y="1106"/>
			<point x="318" y="1138"/>
			<point x="288" y="1146" type="curve"/>
			<point x="346" y="1194"/>
			<point x="422" y="1216"/>
			<point x="494" y="1216" type="curve" smooth="yes"/>
			<point x="666" y="1216"/>
			<point x="758" y="1080"/>
		</contour>
	</outline>
</glyph>
<glyph name="three" format="2">
	<unicode hex="0033"/>
	<advance width="1150"/>
	<outline>
		<contour>
			<point x="548" y="-22" type="curve" smooth="yes"/>
			<point x="906" y="-22"/>
			<point x="1052" y="178"/>
			<point x="1052" y="360" type="curve" smooth="yes"/>
			<point x="1052" y="470"/>
			<point x="994" y="642"/>
			<point x="704" y="704" type="curve"/>
			<point x="842" y="746"/>
			<point x="988" y="860"/>
			<point x="988" y="1032" type="curve" smooth="yes"/>
			<point x="988" y="1186"/>
			<point x="836" y="1310"/>
			<point x="554" y="1310" type="curve" smooth="yes"/>
			<point x="316" y="1310"/>
			<point x="160" y="1182"/>
			<point x="160" y="1022" type="curve" smooth="yes"/>
			<point x="160" y="936"/>
			<point x="222" y="882"/>
			<point x="298" y="882" type="curve" smooth="yes"/>
			<point x="388" y="882"/>
			<point x="438" y="946"/>
			<point x="438" y="1020" type="curve" smooth="yes"/>
			<point x="438" y="1136"/>
			<point x="330" y="1158"/>
			<point x="322" y="1160" type="curve"/>
			<point x="392" y="1216"/>
			<point x="480" y="1232"/>
			<point x="542" y="1232" type="curve" smooth="yes"/>
			<point x="708" y="1232"/>
			<point x="714" y="1104"/>
			<point x="714" y="1038" type="curve" smooth="yes"/>
			<point x="714" y="1012"/>
			<point x="712" y="750"/>
			<point x="504" y="738" type="curve" smooth="yes"/>
			<point x="422" y="734"/>
			<point x="418" y="732"/>
			<point x="408" y="730" type="curve"/>
			<point x="388" y="728"/>
			<point x="384" y="708"/>
			<point x="384" y="696" type="curve" smooth="yes"/>
			<point x="384" y="660"/>
			<point x="404" y="660"/>
			<point x="440" y="660" type="curve" smooth="yes"/>
			<point x="528" y="660" type="line" smooth="yes"/>
			<point x="746" y="660"/>
			<point x="746" y="464"/>
			<point x="746" y="362" type="curve" smooth="yes"/>
			<point x="746" y="268"/>
			<point x="746" y="64"/>
			<point x="538" y="64" type="curve" smooth="yes"/>
			<point x="486" y="64"/>
			<point x="382" y="72"/>
			<point x="286" y="132" type="curve"/>
			<point x="352" y="150"/>
			<point x="402" y="200"/>
			<point x="402" y="282" type="curve" smooth="yes"/>
			<point x="402" y="372"/>
			<point x="338" y="434"/>
			<point x="250" y="434" type="curve" smooth="yes"/>
			<point x="166" y="434"/>
			<point x="96" y="380"/>
			<point x="96" y="278" type="curve" smooth="yes"/>
			<point x="96" y="98"/>
			<point x="290" y="-22"/>
		</contour>
	</outline>
</glyph>
<glyph name="four" format="2">
	<unicode hex="0034"/>
	<advance width="1150"/>
	<outline>
		<contour>
			<point x="640" y="312" type="line"/>
			<point x="640" y="94" type="line"/>
			<point x="640" y="94"/>
			<point x="640" y="94"/>
			<point x="640" y="94" type="curve"/>
			<point x="416" y="94" type="line"/>
			<point x="416" y="0" type="line"/>
			<point x="492" y="6"/>
			<point x="674" y="6"/>
			<point x="760" y="6" type="curve" smooth="yes"/>
			<point x="840" y="6"/>
			<point x="1014" y="6"/>
			<point x="1084" y="0" type="curve"/>
			<point x="1084" y="94" type="line"/>
			<point x="890" y="94" type="line"/>
			<point x="890" y="94"/>
			<point x="890" y="94"/>
			<point x="890" y="94" type="curve"/>
			<point x="890" y="312" type="line"/>
			<point x="1084" y="312" type="line"/>
			<point x="1084" y="406" type="line"/>
			<point x="890" y="406" type="line"/>
			<point x="890" y="1248" type="line" smooth="yes"/>
			<point x="890" y="1302"/>
			<point x="886" y="1312"/>
			<point x="830" y="1312" type="curve" smooth="yes"/>
			<point x="788" y="1312"/>
			<point x="786" y="1310"/>
			<point x="762" y="1280" type="curve" smooth="yes"/>
			<point x="64" y="406" type="line"/>
			<point x="64" y="312" type="line"/>
		</contour>
		<contour>
			<point x="168" y="406" type="line"/>
			<point x="662" y="1026" type="line"/>
			<point x="662" y="406" type="line"/>
		</contour>
	</outline>
</glyph>
<glyph name="five" format="2">
  <advance width="575"/>
  <unicode hex="0035"/>
  <outline>
    <contour>
      <point x="259" y="-11" type="curve" smooth="yes"/>
      <point x="419" y="-11"/>
      <point x="517" y="79"/>
      <point x="517" y="201" type="curve" smooth="yes"/>
      <point x="517" y="316"/>
      <point x="438" y="409"/>
      <point x="290" y="409" type="curve" smooth="yes"/>
      <point x="261" y="409"/>
      <point x="208" y="406"/>
      <point x="161" y="374" type="curve"/>
      <point x="161" y="506" type="line"/>
      <point x="189" y="501"/>
      <point x="200" y="499"/>
      <point x="234" y="499" type="curve" smooth="yes"/>
      <point x="289.8231" y="499.0"/>
      <point x="337.751857785" y="515.5196420425"/>
      <point x="375.6622128671408" y="537.3237640732971" type="curve" smooth="yes"/>
      <point x="436.90277993" y="572.5462460199999"/>
      <point x="472.0" y="621.5587499999999"/>
      <point x="472" y="637" type="curve" smooth="yes"/>
      <point x="472" y="644"/>
      <point x="470" y="655"/>
      <point x="458" y="655" type="curve" smooth="yes"/>
      <point x="455" y="655"/>
      <point x="454" y="655"/>
      <point x="443" y="651" type="curve" smooth="yes"/>
      <point x="386" y="629"/>
      <point x="333" y="623"/>
      <point x="290" y="623" type="curve" smooth="yes"/>
      <point x="214" y="623"/>
      <point x="161" y="642"/>
      <point x="135" y="651" type="curve" smooth="yes"/>
      <point x="126" y="654"/>
      <point x="125" y="655"/>
      <point x="122" y="655" type="curve" smooth="yes"/>
      <point x="108" y="655"/>
      <point x="108" y="644"/>
      <point x="108" y="628" type="curve" smooth="yes"/>
      <point x="108" y="336" type="line" smooth="yes"/>
      <point x="108" y="318"/>
      <point x="108" y="305"/>
      <point x="130" y="305" type="curve" smooth="yes"/>
      <point x="143" y="305"/>
      <point x="145" y="309"/>
      <point x="152" y="317" type="curve" smooth="yes"/>
      <point x="191" y="363"/>
      <point x="245" y="373"/>
      <point x="286" y="373" type="curve" smooth="yes"/>
      <point x="312.99993" y="373.0"/>
      <point x="331.8088912359" y="364.9010645928"/>
      <point x="344.911777901665" y="351.3835290887443" type="curve" smooth="yes"/>
      <point x="375.0" y="320.3431468552"/>
      <point x="375.0" y="260.73040000000003"/>
      <point x="375" y="205" type="curve" smooth="yes"/>
      <point x="375.0" y="156.33309"/>
      <point x="375.0" y="95.6660599997"/>
      <point x="339.44391110844447" y="60.62910407599628" type="curve" smooth="yes"/>
      <point x="321.666133332" y="43.110888889999984"/>
      <point x="294.9996" y="31.999999999999986"/>
      <point x="255" y="32" type="curve" smooth="yes"/>
      <point x="231" y="32"/>
      <point x="168" y="37"/>
      <point x="126" y="94" type="curve"/>
      <point x="162" y="96"/>
      <point x="191" y="120"/>
      <point x="191" y="161" type="curve" smooth="yes"/>
      <point x="191" y="214"/>
      <point x="148" y="229"/>
      <point x="124" y="229" type="curve" smooth="yes"/>
      <point x="109" y="229"/>
      <point x="57" y="220"/>
      <point x="57" y="159" type="curve" smooth="yes"/>
      <point x="57" y="74"/>
      <point x="135" y="-11"/>
    </contour>
  </outline>
</glyph>
<glyph name="six" format="2">
	<unicode hex="0036"/>
	<advance width="1150"/>
	<outline>
		<contour>
			<point x="96" y="634" type="curve" smooth="yes"/>
			<point x="96" y="476"/>
			<point x="114" y="316"/>
			<point x="196" y="178" type="curve" smooth="yes"/>
			<point x="290" y="26"/>
			<point x="442" y="-22"/>
			<point x="582" y="-22" type="curve" smooth="yes"/>
			<point x="706" y="-22"/>
			<point x="812" y="10"/>
			<point x="892" y="70" type="curve" smooth="yes"/>
			<point x="992" y="144"/>
			<point x="1052" y="260"/>
			<point x="1052" y="410" type="curve" smooth="yes"/>
			<point x="1052" y="552"/>
			<point x="1000" y="658"/>
			<point x="918" y="730" type="curve" smooth="yes"/>
			<point x="838" y="800"/>
			<point x="728" y="836"/>
			<point x="608" y="836" type="curve" smooth="yes"/>
			<point x="564" y="836"/>
			<point x="452" y="836"/>
			<point x="368" y="684" type="curve"/>
			<point x="366" y="950"/>
			<point x="410" y="1036"/>
			<point x="424" y="1066" type="curve" smooth="yes"/>
			<point x="472" y="1160"/>
			<point x="580" y="1232"/>
			<point x="702" y="1232" type="curve" smooth="yes"/>
			<point x="738" y="1232"/>
			<point x="806" y="1226"/>
			<point x="852" y="1180" type="curve"/>
			<point x="780" y="1170"/>
			<point x="744" y="1116"/>
			<point x="744" y="1056" type="curve" smooth="yes"/>
			<point x="744" y="988"/>
			<point x="790" y="932"/>
			<point x="868" y="932" type="curve" smooth="yes"/>
			<point x="946" y="932"/>
			<point x="994" y="984"/>
			<point x="994" y="1060" type="curve" smooth="yes"/>
			<point x="994" y="1184"/>
			<point x="910" y="1310"/>
			<point x="698" y="1310" type="curve" smooth="yes"/>
			<point x="426" y="1310"/>
			<point x="96" y="1138"/>
		</contour>
		<contour>
			<point x="578" y="64" type="curve" smooth="yes"/>
			<point x="474" y="64"/>
			<point x="420" y="142"/>
			<point x="404" y="174" type="curve" smooth="yes"/>
			<point x="372" y="238"/>
			<point x="372" y="384"/>
			<point x="372" y="420" type="curve" smooth="yes"/>
			<point x="372" y="670"/>
			<point x="480" y="764"/>
			<point x="590" y="764" type="curve" smooth="yes"/>
			<point x="652" y="764"/>
			<point x="694" y="748"/>
			<point x="722" y="720" type="curve" smooth="yes"/>
			<point x="780" y="661"/>
			<point x="780" y="549"/>
			<point x="780" y="414" type="curve" smooth="yes"/>
			<point x="780" y="280"/>
			<point x="780" y="170"/>
			<point x="721" y="111" type="curve" smooth="yes"/>
			<point x="691" y="81"/>
			<point x="646" y="64"/>
		</contour>
	</outline>
</glyph>
<glyph name="seven" format="2">
	<unicode hex="0037"/>
	<advance width="1150"/>
	<outline>
		<contour>
			<point x="510" y="-22" type="curve" smooth="yes"/>
			<point x="542" y="-22"/>
			<point x="636" y="-12"/>
			<point x="636" y="120" type="curve" smooth="yes"/>
			<point x="636" y="151"/>
			<point x="636" y="181"/>
			<point x="636" y="212" type="curve" smooth="yes"/>
			<point x="636" y="444"/>
			<point x="666" y="692"/>
			<point x="786" y="832" type="curve" smooth="yes"/>
			<point x="889" y="952"/>
			<point x="992" y="1072"/>
			<point x="1096" y="1192" type="curve" smooth="yes"/>
			<point x="1116" y="1214"/>
			<point x="1116" y="1218"/>
			<point x="1116" y="1288" type="curve"/>
			<point x="1116" y="1288" type="line"/>
			<point x="708" y="1288" type="line" smooth="yes"/>
			<point x="662" y="1288"/>
			<point x="368" y="1300"/>
			<point x="340" y="1306" type="curve" smooth="yes"/>
			<point x="298" y="1316"/>
			<point x="296" y="1332"/>
			<point x="292" y="1352" type="curve"/>
			<point x="198" y="1352" type="line"/>
			<point x="128" y="844" type="line"/>
			<point x="222" y="844" type="line"/>
			<point x="242" y="996"/>
			<point x="268" y="1022"/>
			<point x="276" y="1026" type="curve" smooth="yes"/>
			<point x="298" y="1038"/>
			<point x="460" y="1038"/>
			<point x="494" y="1038" type="curve" smooth="yes"/>
			<point x="832" y="1038" type="line"/>
			<point x="795" y="995"/>
			<point x="759" y="951"/>
			<point x="722" y="908" type="curve" smooth="yes"/>
			<point x="530" y="684"/>
			<point x="386" y="414"/>
			<point x="386" y="118" type="curve" smooth="yes"/>
			<point x="386" y="-22"/>
			<point x="498" y="-22"/>
		</contour>
	</outline>
</glyph>
<glyph name="eight" format="2">
	<unicode hex="0038"/>
	<advance width="1150"/>
	<outline>
		<contour>
			<point x="570" y="-22" type="curve" smooth="yes"/>
			<point x="890" y="-22"/>
			<point x="1052" y="154"/>
			<point x="1052" y="374" type="curve" smooth="yes"/>
			<point x="1052" y="590"/>
			<point x="884" y="684"/>
			<point x="786" y="740" type="curve"/>
			<point x="926" y="812"/>
			<point x="988" y="900"/>
			<point x="988" y="1016" type="curve" smooth="yes"/>
			<point x="988" y="1220"/>
			<point x="806" y="1310"/>
			<point x="578" y="1310" type="curve" smooth="yes"/>
			<point x="300" y="1310"/>
			<point x="160" y="1152"/>
			<point x="160" y="960" type="curve" smooth="yes"/>
			<point x="160" y="893"/>
			<point x="181" y="804"/>
			<point x="259" y="727" type="curve" smooth="yes"/>
			<point x="284" y="702"/>
			<point x="315" y="679"/>
			<point x="352" y="658" type="curve"/>
			<point x="184" y="584"/>
			<point x="96" y="470"/>
			<point x="96" y="322" type="curve" smooth="yes"/>
			<point x="96" y="80"/>
			<point x="312" y="-22"/>
		</contour>
		<contour>
			<point x="578" y="64" type="curve" smooth="yes"/>
			<point x="382" y="64"/>
			<point x="268" y="166"/>
			<point x="268" y="322" type="curve" smooth="yes"/>
			<point x="268" y="478"/>
			<point x="374" y="564"/>
			<point x="444" y="604" type="curve"/>
			<point x="514" y="568"/>
			<point x="608" y="514"/>
			<point x="718" y="452" type="curve" smooth="yes"/>
			<point x="806" y="402"/>
			<point x="880" y="360"/>
			<point x="880" y="264" type="curve" smooth="yes"/>
			<point x="880" y="96"/>
			<point x="692" y="64"/>
		</contour>
		<contour>
			<point x="698" y="790" type="curve"/>
			<point x="598" y="846"/>
			<point x="498" y="902"/>
			<point x="398" y="958" type="curve" smooth="yes"/>
			<point x="366" y="976"/>
			<point x="310" y="1010"/>
			<point x="310" y="1078" type="curve" smooth="yes"/>
			<point x="310" y="1218"/>
			<point x="490" y="1232"/>
			<point x="570" y="1232" type="curve" smooth="yes"/>
			<point x="738" y="1232"/>
			<point x="838" y="1150"/>
			<point x="838" y="1014" type="curve" smooth="yes"/>
			<point x="838" y="916"/>
			<point x="786" y="848"/>
		</contour>
	</outline>
</glyph>
<glyph name="nine" format="2">
	<unicode hex="0039"/>
	<advance width="1150"/>
	<outline>
		<contour>
			<point x="478" y="-22" type="curve" smooth="yes"/>
			<point x="738" y="-22"/>
			<point x="1052" y="146"/>
			<point x="1052" y="658" type="curve" smooth="yes"/>
			<point x="1052" y="792"/>
			<point x="1052" y="1310"/>
			<point x="578" y="1310" type="curve" smooth="yes"/>
			<point x="454" y="1310"/>
			<point x="347" y="1279"/>
			<point x="265" y="1222" type="curve" smooth="yes"/>
			<point x="159" y="1149"/>
			<point x="96" y="1031"/>
			<point x="96" y="880" type="curve" smooth="yes"/>
			<point x="96" y="722"/>
			<point x="161" y="605"/>
			<point x="262" y="535" type="curve" smooth="yes"/>
			<point x="338" y="481"/>
			<point x="435" y="454"/>
			<point x="540" y="454" type="curve" smooth="yes"/>
			<point x="610" y="454"/>
			<point x="704" y="468"/>
			<point x="780" y="608" type="curve"/>
			<point x="780" y="418"/>
			<point x="762" y="300"/>
			<point x="732" y="232" type="curve" smooth="yes"/>
			<point x="698" y="154"/>
			<point x="612" y="64"/>
			<point x="474" y="64" type="curve" smooth="yes"/>
			<point x="438" y="64"/>
			<point x="366" y="68"/>
			<point x="306" y="108" type="curve"/>
			<point x="330" y="114"/>
			<point x="404" y="142"/>
			<point x="404" y="232" type="curve" smooth="yes"/>
			<point x="404" y="300"/>
			<point x="358" y="356"/>
			<point x="280" y="356" type="curve" smooth="yes"/>
			<point x="202" y="356"/>
			<point x="154" y="304"/>
			<point x="154" y="228" type="curve" smooth="yes"/>
			<point x="154" y="92"/>
			<point x="256" y="-22"/>
		</contour>
		<contour>
			<point x="558" y="526" type="curve"/>
			<point x="494" y="526"/>
			<point x="452" y="543"/>
			<point x="423" y="573" type="curve" smooth="yes"/>
			<point x="368" y="633"/>
			<point x="368" y="743"/>
			<point x="368" y="876" type="curve"/>
			<point x="368" y="1006"/>
			<point x="368" y="1120"/>
			<point x="431" y="1182" type="curve" smooth="yes"/>
			<point x="462" y="1214"/>
			<point x="510" y="1232"/>
			<point x="582" y="1232" type="curve" smooth="yes"/>
			<point x="700" y="1232"/>
			<point x="746" y="1126"/>
			<point x="754" y="1106" type="curve" smooth="yes"/>
			<point x="778" y="1040"/>
			<point x="778" y="924"/>
			<point x="778" y="856" type="curve" smooth="yes"/>
			<point x="778" y="730"/>
			<point x="726" y="526"/>
		</contour>
	</outline>
</glyph>
<glyph name="colon" format="2">
	<unicode hex="003A"/>
	<advance width="638"/>
	<outline>
		<contour>
			<point x="474" y="732" type="curve" smooth="yes"/>
			<point x="474" y="818"/>
			<point x="404" y="888"/>
			<point x="318" y="888" type="curve" smooth="yes"/>
			<point x="232" y="888"/>
			<point x="162" y="818"/>
			<point x="162" y="732" type="curve" smooth="yes"/>
			<point x="162" y="646"/>
			<point x="232" y="576"/>
			<point x="318" y="576" type="curve" smooth="yes"/>
			<point x="404" y="576"/>
			<point x="474" y="646"/>
		</contour>
		<contour>
			<point x="474" y="156" type="curve" smooth="yes"/>
			<point x="474" y="242"/>
			<point x="404" y="312"/>
			<point x="318" y="312" type="curve" smooth="yes"/>
			<point x="232" y="312"/>
			<point x="162" y="242"/>
			<point x="162" y="156" type="curve" smooth="yes"/>
			<point x="162" y="70"/>
			<point x="232" y="0"/>
			<point x="318" y="0" type="curve" smooth="yes"/>
			<point x="404" y="0"/>
			<point x="474" y="70"/>
		</contour>
	</outline>
</glyph>
<glyph name="semicolon" format="2">
	<unicode hex="003B"/>
	<advance width="638"/>
	<outline>
		<contour>
			<point x="318" y="576" type="curve" smooth="yes"/>
			<point x="404" y="576"/>
			<point x="474" y="646"/>
			<point x="474" y="732" type="curve" smooth="yes"/>
			<point x="474" y="818"/>
			<point x="404" y="888"/>
			<point x="318" y="888" type="curve" smooth="yes"/>
			<point x="232" y="888"/>
			<point x="162" y="818"/>
			<point x="162" y="732" type="curve" smooth="yes"/>
			<point x="162" y="646"/>
			<point x="232" y="576"/>
		</contour>
		<contour>
			<point x="260" y="-388" type="curve" smooth="yes"/>
			<point x="288" y="-388"/>
			<point x="480" y="-208"/>
			<point x="480" y="64" type="curve" smooth="yes"/>
			<point x="480" y="194"/>
			<point x="430" y="312"/>
			<point x="316" y="312" type="curve" smooth="yes"/>
			<point x="224" y="312"/>
			<point x="162" y="242"/>
			<point x="162" y="156" type="curve" smooth="yes"/>
			<point x="162" y="76"/>
			<point x="216" y="0"/>
			<point x="318" y="0" type="curve" smooth="yes"/>
			<point x="364" y="0"/>
			<point x="396" y="18"/>
			<point x="406" y="24" type="curve"/>
			<point x="390" y="-150"/>
			<point x="304" y="-258"/>
			<point x="242" y="-318" type="curve"/>
			<point x="226" y="-332"/>
			<point x="222" y="-336"/>
			<point x="222" y="-348" type="curve" smooth="yes"/>
			<point x="222" y="-368"/>
			<point x="244" y="-388"/>
		</contour>
	</outline>
</glyph>
<glyph name="equal" format="2">
	<unicode hex="003D"/>
	<advance width="894"/>
	<outline>
		<contour>
			<point x="788" y="332" type="line" smooth="yes"/>
			<point x="800" y="332"/>
			<point x="829" y="332"/>
			<point x="829" y="362" type="curve" smooth="yes"/>
			<point x="829" y="393"/>
			<point x="798" y="393"/>
			<point x="783" y="393" type="curve" smooth="yes"/>
			<point x="110" y="393" type="line" smooth="yes"/>
			<point x="95" y="393"/>
			<point x="64" y="393"/>
			<point x="64" y="362" type="curve" smooth="yes"/>
			<point x="64" y="332"/>
			<point x="93" y="332"/>
			<point x="105" y="332" type="curve" smooth="yes"/>
		</contour>
		<contour>
			<point x="783" y="108" type="line" smooth="yes"/>
			<point x="798" y="108"/>
			<point x="829" y="108"/>
			<point x="829" y="139" type="curve" smooth="yes"/>
			<point x="829" y="169"/>
			<point x="800" y="169"/>
			<point x="788" y="169" type="curve" smooth="yes"/>
			<point x="105" y="169" type="line" smooth="yes"/>
			<point x="93" y="169"/>
			<point x="64" y="169"/>
			<point x="64" y="139" type="curve" smooth="yes"/>
			<point x="64" y="108"/>
			<point x="95" y="108"/>
			<point x="110" y="108" type="curve" smooth="yes"/>
		</contour>
	</outline>
</glyph>
<glyph name="question" format="2">
	<unicode hex="003F"/>
	<advance width="1086"/>
	<outline>
		<contour>
			<point x="956" y="1142" type="curve" smooth="yes"/>
			<point x="956" y="1400"/>
			<point x="600" y="1400"/>
			<point x="526" y="1400" type="curve" smooth="yes"/>
			<point x="248" y="1400"/>
			<point x="128" y="1274"/>
			<point x="128" y="1146" type="curve" smooth="yes"/>
			<point x="128" y="1050"/>
			<point x="202" y="1018"/>
			<point x="252" y="1018" type="curve" smooth="yes"/>
			<point x="316" y="1018"/>
			<point x="378" y="1062"/>
			<point x="378" y="1144" type="curve" smooth="yes"/>
			<point x="378" y="1238"/>
			<point x="292" y="1264"/>
			<point x="288" y="1266" type="curve"/>
			<point x="340" y="1304"/>
			<point x="422" y="1328"/>
			<point x="514" y="1328" type="curve" smooth="yes"/>
			<point x="698" y="1328"/>
			<point x="700" y="1250"/>
			<point x="700" y="1156" type="curve" smooth="yes"/>
			<point x="700" y="1068"/>
			<point x="684" y="1036"/>
			<point x="644" y="996" type="curve" smooth="yes"/>
			<point x="520" y="866"/>
			<point x="464" y="712"/>
			<point x="464" y="582" type="curve" smooth="yes"/>
			<point x="464" y="557"/>
			<point x="464" y="531"/>
			<point x="464" y="506" type="curve" smooth="yes"/>
			<point x="464" y="462"/>
			<point x="464" y="452"/>
			<point x="510" y="452" type="curve" smooth="yes"/>
			<point x="558" y="452"/>
			<point x="558" y="464"/>
			<point x="558" y="512" type="curve" smooth="yes"/>
			<point x="558" y="566" type="line" smooth="yes"/>
			<point x="558" y="772"/>
			<point x="744" y="894"/>
			<point x="820" y="938" type="curve" smooth="yes"/>
			<point x="860" y="962"/>
			<point x="956" y="1016"/>
		</contour>
		<contour>
			<point x="666" y="156" type="curve" smooth="yes"/>
			<point x="666" y="242"/>
			<point x="596" y="312"/>
			<point x="510" y="312" type="curve" smooth="yes"/>
			<point x="424" y="312"/>
			<point x="354" y="242"/>
			<point x="354" y="156" type="curve" smooth="yes"/>
			<point x="354" y="70"/>
			<point x="424" y="0"/>
			<point x="510" y="0" type="curve" smooth="yes"/>
			<point x="596" y="0"/>
			<point x="666" y="70"/>
		</contour>
	</outline>
</glyph>
<glyph name="at" format="2">
	<unicode hex="0040"/>
	<advance width="1788"/>
	<outline>
		<contour>
			<point x="902" y="-12" type="curve" smooth="yes"/>
			<point x="1092" y="-12"/>
			<point x="1263" y="17"/>
			<point x="1394" y="50" type="curve" smooth="yes"/>
			<point x="1533" y="85"/>
			<point x="1627" y="125"/>
			<point x="1652" y="138" type="curve" smooth="yes"/>
			<point x="1654" y="138"/>
			<point x="1658" y="148"/>
			<point x="1658" y="158" type="curve" smooth="yes"/>
			<point x="1658" y="186"/>
			<point x="1632" y="186"/>
			<point x="1602" y="186" type="curve" smooth="yes"/>
			<point x="1554" y="186" type="line" smooth="yes"/>
			<point x="1522" y="186"/>
			<point x="1518" y="186"/>
			<point x="1486" y="172" type="curve" smooth="yes"/>
			<point x="1298" y="100"/>
			<point x="1100" y="60"/>
			<point x="900" y="60" type="curve" smooth="yes"/>
			<point x="438" y="60"/>
			<point x="222" y="354"/>
			<point x="222" y="694" type="curve" smooth="yes"/>
			<point x="222" y="1066"/>
			<point x="472" y="1328"/>
			<point x="892" y="1328" type="curve" smooth="yes"/>
			<point x="1258" y="1328"/>
			<point x="1564" y="1122"/>
			<point x="1564" y="680" type="curve" smooth="yes"/>
			<point x="1564" y="500"/>
			<point x="1538" y="328"/>
			<point x="1418" y="328" type="curve" smooth="yes"/>
			<point x="1352" y="328"/>
			<point x="1352" y="418"/>
			<point x="1352" y="446" type="curve" smooth="yes"/>
			<point x="1352" y="906" type="line" smooth="yes"/>
			<point x="1352" y="960"/>
			<point x="1350" y="964"/>
			<point x="1292" y="964" type="curve" smooth="yes"/>
			<point x="1266" y="964"/>
			<point x="1240" y="964"/>
			<point x="1214" y="964" type="curve"/>
			<point x="1156" y="1058"/>
			<point x="1044" y="1132"/>
			<point x="890" y="1132" type="curve" smooth="yes"/>
			<point x="618" y="1132"/>
			<point x="434" y="958"/>
			<point x="434" y="694" type="curve" smooth="yes"/>
			<point x="434" y="432"/>
			<point x="616" y="256"/>
			<point x="890" y="256" type="curve" smooth="yes"/>
			<point x="982" y="256"/>
			<point x="1072" y="282"/>
			<point x="1148" y="346" type="curve"/>
			<point x="1210" y="264"/>
			<point x="1346" y="256"/>
			<point x="1398" y="256" type="curve" smooth="yes"/>
			<point x="1640" y="256"/>
			<point x="1658" y="570"/>
			<point x="1658" y="690" type="curve" smooth="yes"/>
			<point x="1658" y="1116"/>
			<point x="1362" y="1400"/>
			<point x="894" y="1400" type="curve" smooth="yes"/>
			<point x="402" y="1400"/>
			<point x="128" y="1092"/>
			<point x="128" y="694" type="curve" smooth="yes"/>
			<point x="128" y="326"/>
			<point x="368" y="-12"/>
		</contour>
		<contour>
			<point x="896" y="328" type="curve" smooth="yes"/>
			<point x="776" y="328"/>
			<point x="662" y="438"/>
			<point x="662" y="694" type="curve" smooth="yes"/>
			<point x="662" y="952"/>
			<point x="776" y="1060"/>
			<point x="896" y="1060" type="curve" smooth="yes"/>
			<point x="966" y="1060"/>
			<point x="1062" y="1030"/>
			<point x="1124" y="944" type="curve"/>
			<point x="1124" y="944"/>
			<point x="1124" y="944"/>
			<point x="1124" y="944" type="curve"/>
			<point x="1124" y="444" type="line"/>
			<point x="1062" y="356"/>
			<point x="964" y="328"/>
		</contour>
	</outline>
</glyph>
<glyph name="A" format="2">
	<unicode hex="0041"/>
	<advance width="1738"/>
	<outline>
		<contour>
			<point x="868" y="1396" type="curve" smooth="yes"/>
			<point x="812" y="1396"/>
			<point x="804" y="1380"/>
			<point x="790" y="1344" type="curve" smooth="yes"/>
			<point x="294" y="140" type="line" smooth="yes"/>
			<point x="282" y="110"/>
			<point x="280" y="92"/>
			<point x="82" y="94" type="curve"/>
			<point x="82" y="0" type="line"/>
			<point x="158" y="2"/>
			<point x="254" y="6"/>
			<point x="316" y="6" type="curve" smooth="yes"/>
			<point x="394" y="6"/>
			<point x="506" y="6"/>
			<point x="580" y="0" type="curve"/>
			<point x="580" y="94" type="line"/>
			<point x="576" y="94"/>
			<point x="402" y="94"/>
			<point x="402" y="120" type="curve" smooth="yes"/>
			<point x="402" y="124"/>
			<point x="408" y="140"/>
			<point x="410" y="144" type="curve" smooth="yes"/>
			<point x="510" y="386" type="line"/>
			<point x="1046" y="386" type="line"/>
			<point x="1166" y="94" type="line"/>
			<point x="1166" y="94"/>
			<point x="1166" y="94"/>
			<point x="1166" y="94" type="curve"/>
			<point x="1103" y="94"/>
			<point x="1039" y="94"/>
			<point x="976" y="94" type="curve"/>
			<point x="976" y="0" type="line"/>
			<point x="1052" y="6"/>
			<point x="1242" y="6"/>
			<point x="1328" y="6" type="curve" smooth="yes"/>
			<point x="1408" y="6"/>
			<point x="1584" y="6"/>
			<point x="1654" y="0" type="curve"/>
			<point x="1654" y="94" type="line"/>
			<point x="1654" y="94" type="line"/>
			<point x="1589" y="94"/>
			<point x="1525" y="94"/>
			<point x="1460" y="94" type="curve"/>
			<point x="948" y="1344" type="line" smooth="yes"/>
			<point x="926" y="1396"/>
			<point x="902" y="1396"/>
		</contour>
		<contour>
			<point x="778" y="1036" type="line"/>
			<point x="1006" y="480" type="line"/>
			<point x="550" y="480" type="line"/>
		</contour>
	</outline>
</glyph>
<glyph name="B" format="2">
	<unicode hex="0042"/>
	<advance width="1636"/>
	<outline>
		<contour>
			<point x="1506" y="372" type="curve" smooth="yes"/>
			<point x="1506" y="564"/>
			<point x="1334" y="698"/>
			<point x="1096" y="716" type="curve"/>
			<point x="1312" y="754"/>
			<point x="1442" y="874"/>
			<point x="1442" y="1028" type="curve" smooth="yes"/>
			<point x="1442" y="1212"/>
			<point x="1268" y="1372"/>
			<point x="946" y="1372" type="curve" smooth="yes"/>
			<point x="78" y="1372" type="line"/>
			<point x="78" y="1278" type="line"/>
			<point x="294" y="1278" type="line"/>
			<point x="294" y="1278"/>
			<point x="294" y="1278"/>
			<point x="294" y="1278" type="curve"/>
			<point x="294" y="94" type="line"/>
			<point x="294" y="94"/>
			<point x="294" y="94"/>
			<point x="294" y="94" type="curve"/>
			<point x="78" y="94" type="line"/>
			<point x="78" y="0" type="line"/>
			<point x="1006" y="0" type="line" smooth="yes"/>
			<point x="1338" y="0"/>
			<point x="1506" y="176"/>
		</contour>
		<contour>
			<point x="556" y="750" type="line"/>
			<point x="556" y="1278" type="line"/>
			<point x="556" y="1278"/>
			<point x="556" y="1278"/>
			<point x="556" y="1278" type="curve"/>
			<point x="920" y="1278" type="line" smooth="yes"/>
			<point x="1122" y="1278"/>
			<point x="1158" y="1120"/>
			<point x="1158" y="1028" type="curve" smooth="yes"/>
			<point x="1158" y="874"/>
			<point x="1062" y="750"/>
			<point x="868" y="750" type="curve" smooth="yes"/>
		</contour>
		<contour>
			<point x="924" y="94" type="curve" smooth="yes"/>
			<point x="556" y="94" type="line"/>
			<point x="556" y="94"/>
			<point x="556" y="94"/>
			<point x="556" y="94" type="curve"/>
			<point x="556" y="678" type="line"/>
			<point x="944" y="678" type="line" smooth="yes"/>
			<point x="1158" y="678"/>
			<point x="1212" y="506"/>
			<point x="1212" y="374" type="curve" smooth="yes"/>
			<point x="1212" y="350"/>
			<point x="1212" y="94"/>
		</contour>
	</outline>
</glyph>
<glyph name="C" format="2">
	<unicode hex="0043"/>
	<advance width="1660"/>
	<outline>
		<contour>
			<point x="128" y="686" type="curve" smooth="yes"/>
			<point x="128" y="276"/>
			<point x="434" y="-22"/>
			<point x="932" y="-22" type="curve" smooth="yes"/>
			<point x="1306" y="-22"/>
			<point x="1532" y="224"/>
			<point x="1532" y="454" type="curve" smooth="yes"/>
			<point x="1532" y="494"/>
			<point x="1518" y="496"/>
			<point x="1484" y="496" type="curve" smooth="yes"/>
			<point x="1458" y="496"/>
			<point x="1440" y="496"/>
			<point x="1438" y="462" type="curve" smooth="yes"/>
			<point x="1424" y="194"/>
			<point x="1182" y="72"/>
			<point x="980" y="72" type="curve" smooth="yes"/>
			<point x="824" y="72"/>
			<point x="656" y="120"/>
			<point x="552" y="242" type="curve" smooth="yes"/>
			<point x="458" y="356"/>
			<point x="434" y="506"/>
			<point x="434" y="686" type="curve" smooth="yes"/>
			<point x="434" y="798"/>
			<point x="440" y="1014"/>
			<point x="566" y="1146" type="curve" smooth="yes"/>
			<point x="696" y="1278"/>
			<point x="870" y="1300"/>
			<point x="974" y="1300" type="curve" smooth="yes"/>
			<point x="1190" y="1300"/>
			<point x="1380" y="1148"/>
			<point x="1424" y="894" type="curve" smooth="yes"/>
			<point x="1430" y="856"/>
			<point x="1432" y="852"/>
			<point x="1478" y="852" type="curve" smooth="yes"/>
			<point x="1530" y="852"/>
			<point x="1532" y="856"/>
			<point x="1532" y="908" type="curve" smooth="yes"/>
			<point x="1532" y="1338" type="line" smooth="yes"/>
			<point x="1532" y="1376"/>
			<point x="1532" y="1394"/>
			<point x="1496" y="1394" type="curve" smooth="yes"/>
			<point x="1478" y="1394"/>
			<point x="1474" y="1390"/>
			<point x="1458" y="1376" type="curve" smooth="yes"/>
			<point x="1326" y="1258" type="line"/>
			<point x="1202" y="1358"/>
			<point x="1068" y="1394"/>
			<point x="932" y="1394" type="curve" smooth="yes"/>
			<point x="434" y="1394"/>
			<point x="128" y="1096"/>
		</contour>
	</outline>
</glyph>
<glyph name="D" format="2">
	<unicode hex="0044"/>
	<advance width="1762"/>
	<outline>
		<contour>
			<point x="1634" y="674" type="curve" smooth="yes"/>
			<point x="1634" y="1114"/>
			<point x="1334" y="1372"/>
			<point x="938" y="1372" type="curve" smooth="yes"/>
			<point x="78" y="1372" type="line"/>
			<point x="78" y="1278" type="line"/>
			<point x="150" y="1278"/>
			<point x="222" y="1278"/>
			<point x="294" y="1278" type="curve"/>
			<point x="294" y="1278"/>
			<point x="294" y="1278"/>
			<point x="294" y="1278" type="curve"/>
			<point x="294" y="94" type="line"/>
			<point x="294" y="94"/>
			<point x="294" y="94"/>
			<point x="294" y="94" type="curve"/>
			<point x="222" y="94"/>
			<point x="150" y="94"/>
			<point x="78" y="94" type="curve"/>
			<point x="78" y="0" type="line"/>
			<point x="940" y="0" type="line" smooth="yes"/>
			<point x="1334" y="0"/>
			<point x="1634" y="246"/>
		</contour>
		<contour>
			<point x="566" y="94" type="line"/>
			<point x="566" y="94"/>
			<point x="566" y="94"/>
			<point x="566" y="94" type="curve"/>
			<point x="566" y="1278" type="line"/>
			<point x="566" y="1278"/>
			<point x="566" y="1278"/>
			<point x="566" y="1278" type="curve"/>
			<point x="858" y="1278" type="line" smooth="yes"/>
			<point x="990" y="1278"/>
			<point x="1156" y="1240"/>
			<point x="1254" y="1100" type="curve" smooth="yes"/>
			<point x="1324" y="998"/>
			<point x="1340" y="862"/>
			<point x="1340" y="676" type="curve" smooth="yes"/>
			<point x="1340" y="458"/>
			<point x="1316" y="352"/>
			<point x="1252" y="262" type="curve" smooth="yes"/>
			<point x="1156" y="126"/>
			<point x="980" y="94"/>
			<point x="858" y="94" type="curve" smooth="yes"/>
		</contour>
	</outline>
</glyph>
<glyph name="E" format="2">
	<unicode hex="0045"/>
	<advance width="1510"/>
	<outline>
		<contour>
			<point x="1446" y="548" type="line"/>
			<point x="1352" y="548" type="line"/>
			<point x="1308" y="272"/>
			<point x="1252" y="94"/>
			<point x="882" y="94" type="curve" smooth="yes"/>
			<point x="578" y="94" type="line"/>
			<point x="578" y="94"/>
			<point x="578" y="94"/>
			<point x="578" y="94" type="curve"/>
			<point x="578" y="658" type="line"/>
			<point x="688" y="658" type="line" smooth="yes"/>
			<point x="880" y="658"/>
			<point x="900" y="572"/>
			<point x="900" y="424" type="curve"/>
			<point x="994" y="424" type="line"/>
			<point x="994" y="986" type="line"/>
			<point x="900" y="986" type="line"/>
			<point x="900" y="838"/>
			<point x="882" y="752"/>
			<point x="688" y="752" type="curve" smooth="yes"/>
			<point x="578" y="752" type="line"/>
			<point x="578" y="1266" type="line"/>
			<point x="578" y="1266"/>
			<point x="578" y="1266"/>
			<point x="578" y="1266" type="curve"/>
			<point x="882" y="1266" type="line" smooth="yes"/>
			<point x="1204" y="1266"/>
			<point x="1256" y="1120"/>
			<point x="1288" y="878" type="curve"/>
			<point x="1382" y="878" type="line"/>
			<point x="1320" y="1360" type="line"/>
			<point x="78" y="1360" type="line"/>
			<point x="78" y="1266" type="line"/>
			<point x="294" y="1266" type="line"/>
			<point x="294" y="1266"/>
			<point x="294" y="1266"/>
			<point x="294" y="1266" type="curve"/>
			<point x="294" y="94" type="line"/>
			<point x="294" y="94"/>
			<point x="294" y="94"/>
			<point x="294" y="94" type="curve"/>
			<point x="78" y="94" type="line"/>
			<point x="78" y="0" type="line"/>
			<point x="1354" y="0" type="line"/>
		</contour>
	</outline>
</glyph>
<glyph name="F" format="2">
  <advance width="723"/>
  <unicode hex="0046"/>
  <outline>
    <contour>
      <point x="644" y="680" type="line"/>
      <point x="39" y="680" type="line"/>
      <point x="39" y="633" type="line"/>
      <point x="147" y="633" type="line"/>
      <point x="147.0" y="633.0"/>
      <point x="147.0" y="633.0"/>
      <point x="147" y="633" type="curve"/>
      <point x="147" y="47" type="line"/>
      <point x="147.0" y="47.0"/>
      <point x="147.0" y="47.0"/>
      <point x="147" y="47" type="curve"/>
      <point x="39" y="47" type="line"/>
      <point x="39" y="0" type="line"/>
      <point x="77" y="3"/>
      <point x="178" y="3"/>
      <point x="222" y="3" type="curve" smooth="yes"/>
      <point x="271" y="3"/>
      <point x="380" y="3"/>
      <point x="424" y="0" type="curve"/>
      <point x="424" y="47" type="line"/>
      <point x="289" y="47" type="line"/>
      <point x="289.0" y="47.0"/>
      <point x="289.0" y="47.0"/>
      <point x="289" y="47" type="curve"/>
      <point x="289" y="317" type="line"/>
      <point x="339" y="317" type="line" smooth="yes"/>
      <point x="435" y="317"/>
      <point x="444" y="274"/>
      <point x="444" y="200" type="curve"/>
      <point x="491" y="200" type="line"/>
      <point x="491" y="481" type="line"/>
      <point x="444" y="481" type="line"/>
      <point x="444" y="407"/>
      <point x="436" y="364"/>
      <point x="339" y="364" type="curve" smooth="yes"/>
      <point x="289" y="364" type="line"/>
      <point x="289" y="633" type="line"/>
      <point x="289.0" y="633.0"/>
      <point x="289.0" y="633.0"/>
      <point x="289" y="633" type="curve"/>
      <point x="429" y="633" type="line" smooth="yes"/>
      <point x="590" y="633"/>
      <point x="613" y="556"/>
      <point x="628" y="439" type="curve"/>
      <point x="675" y="439" type="line"/>
    </contour>
  </outline>
</glyph>
<glyph name="G" format="2">
	<unicode hex="0047"/>
	<advance width="1808"/>
	<outline>
		<contour>
			<point x="934" y="-22" type="curve"/>
			<point x="982" y="-22"/>
			<point x="1102" y="-20"/>
			<point x="1203" y="28" type="curve" smooth="yes"/>
			<point x="1242" y="46"/>
			<point x="1278" y="71"/>
			<point x="1306" y="106" type="curve"/>
			<point x="1368" y="52"/>
			<point x="1488" y="0"/>
			<point x="1502" y="0" type="curve" smooth="yes"/>
			<point x="1530" y="0"/>
			<point x="1530" y="26"/>
			<point x="1530" y="56" type="curve" smooth="yes"/>
			<point x="1530" y="190"/>
			<point x="1530" y="324"/>
			<point x="1530" y="458" type="curve"/>
			<point x="1530" y="458"/>
			<point x="1530" y="458"/>
			<point x="1530" y="458" type="curve"/>
			<point x="1583" y="458"/>
			<point x="1637" y="458"/>
			<point x="1690" y="458" type="curve"/>
			<point x="1690" y="489"/>
			<point x="1690" y="521"/>
			<point x="1690" y="552" type="curve"/>
			<point x="1620" y="546"/>
			<point x="1446" y="546"/>
			<point x="1368" y="546" type="curve" smooth="yes"/>
			<point x="1252" y="546"/>
			<point x="1066" y="546"/>
			<point x="958" y="552" type="curve"/>
			<point x="958" y="521"/>
			<point x="958" y="489"/>
			<point x="958" y="458" type="curve"/>
			<point x="1054" y="458"/>
			<point x="1150" y="458"/>
			<point x="1246" y="458" type="curve"/>
			<point x="1246" y="458"/>
			<point x="1246" y="458"/>
			<point x="1246" y="458" type="curve"/>
			<point x="1246" y="391"/>
			<point x="1246" y="323"/>
			<point x="1246" y="256" type="curve" smooth="yes"/>
			<point x="1246" y="218"/>
			<point x="1246" y="160"/>
			<point x="1168" y="114" type="curve" smooth="yes"/>
			<point x="1116" y="84"/>
			<point x="1052" y="72"/>
			<point x="988" y="72" type="curve" smooth="yes"/>
			<point x="816" y="72"/>
			<point x="644" y="130"/>
			<point x="546" y="254" type="curve" smooth="yes"/>
			<point x="460" y="364"/>
			<point x="434" y="506"/>
			<point x="434" y="688" type="curve" smooth="yes"/>
			<point x="434" y="912"/>
			<point x="474" y="1028"/>
			<point x="548" y="1126" type="curve" smooth="yes"/>
			<point x="628" y="1226"/>
			<point x="782" y="1300"/>
			<point x="974" y="1300" type="curve" smooth="yes"/>
			<point x="1188" y="1300"/>
			<point x="1378" y="1148"/>
			<point x="1422" y="894" type="curve" smooth="yes"/>
			<point x="1428" y="856"/>
			<point x="1430" y="852"/>
			<point x="1476" y="852" type="curve" smooth="yes"/>
			<point x="1528" y="852"/>
			<point x="1530" y="856"/>
			<point x="1530" y="908" type="curve" smooth="yes"/>
			<point x="1530" y="1051"/>
			<point x="1530" y="1194"/>
			<point x="1530" y="1338" type="curve" smooth="yes"/>
			<point x="1530" y="1376"/>
			<point x="1530" y="1394"/>
			<point x="1494" y="1394" type="curve" smooth="yes"/>
			<point x="1476" y="1394"/>
			<point x="1472" y="1390"/>
			<point x="1456" y="1376" type="curve" smooth="yes"/>
			<point x="1412" y="1337"/>
			<point x="1368" y="1297"/>
			<point x="1324" y="1258" type="curve"/>
			<point x="1178" y="1374"/>
			<point x="1034" y="1394"/>
			<point x="930" y="1394" type="curve" smooth="yes"/>
			<point x="438" y="1394"/>
			<point x="128" y="1100"/>
			<point x="128" y="686" type="curve" smooth="yes"/>
			<point x="128" y="288"/>
			<point x="418" y="-22"/>
		</contour>
	</outline>
</glyph>
<glyph name="H" format="2">
	<unicode hex="0048"/>
	<advance width="1800"/>
	<outline>
		<contour>
			<point x="78" y="0" type="line"/>
			<point x="154" y="6"/>
			<point x="350" y="6"/>
			<point x="436" y="6" type="curve" smooth="yes"/>
			<point x="522" y="6"/>
			<point x="718" y="6"/>
			<point x="794" y="0" type="curve"/>
			<point x="794" y="94" type="line"/>
			<point x="578" y="94" type="line"/>
			<point x="578" y="94"/>
			<point x="578" y="94"/>
			<point x="578" y="94" type="curve"/>
			<point x="578" y="666" type="line"/>
			<point x="1220" y="666" type="line"/>
			<point x="1220" y="94" type="line"/>
			<point x="1220" y="94"/>
			<point x="1220" y="94"/>
			<point x="1220" y="94" type="curve"/>
			<point x="1004" y="94" type="line"/>
			<point x="1004" y="0" type="line"/>
			<point x="1080" y="6"/>
			<point x="1276" y="6"/>
			<point x="1362" y="6" type="curve" smooth="yes"/>
			<point x="1448" y="6"/>
			<point x="1644" y="6"/>
			<point x="1720" y="0" type="curve"/>
			<point x="1720" y="94" type="line"/>
			<point x="1504" y="94" type="line"/>
			<point x="1504" y="94"/>
			<point x="1504" y="94"/>
			<point x="1504" y="94" type="curve"/>
			<point x="1504" y="1278" type="line"/>
			<point x="1504" y="1278"/>
			<point x="1504" y="1278"/>
			<point x="1504" y="1278" type="curve"/>
			<point x="1720" y="1278" type="line"/>
			<point x="1720" y="1372" type="line"/>
			<point x="1644" y="1366"/>
			<point x="1448" y="1366"/>
			<point x="1362" y="1366" type="curve" smooth="yes"/>
			<point x="1276" y="1366"/>
			<point x="1080" y="1366"/>
			<point x="1004" y="1372" type="curve"/>
			<point x="1004" y="1278" type="line"/>
			<point x="1220" y="1278" type="line"/>
			<point x="1220" y="1278"/>
			<point x="1220" y="1278"/>
			<point x="1220" y="1278" type="curve"/>
			<point x="1220" y="760" type="line"/>
			<point x="578" y="760" type="line"/>
			<point x="578" y="1278" type="line"/>
			<point x="578" y="1278"/>
			<point x="578" y="1278"/>
			<point x="578" y="1278" type="curve"/>
			<point x="794" y="1278" type="line"/>
			<point x="794" y="1372" type="line"/>
			<point x="718" y="1366"/>
			<point x="522" y="1366"/>
			<point x="436" y="1366" type="curve" smooth="yes"/>
			<point x="350" y="1366"/>
			<point x="154" y="1366"/>
			<point x="78" y="1372" type="curve"/>
			<point x="78" y="1278" type="line"/>
			<point x="294" y="1278" type="line"/>
			<point x="294" y="1278"/>
			<point x="294" y="1278"/>
			<point x="294" y="1278" type="curve"/>
			<point x="294" y="94" type="line"/>
			<point x="294" y="94"/>
			<point x="294" y="94"/>
			<point x="294" y="94" type="curve"/>
			<point x="78" y="94" type="line"/>
		</contour>
	</outline>
</glyph>
<glyph name="I" format="2">
	<unicode hex="0049"/>
	<advance width="872"/>
	<outline>
		<contour>
			<point x="66" y="0" type="line"/>
			<point x="148" y="6"/>
			<point x="344" y="6"/>
			<point x="436" y="6" type="curve" smooth="yes"/>
			<point x="528" y="6"/>
			<point x="724" y="6"/>
			<point x="806" y="0" type="curve"/>
			<point x="806" y="94" type="line"/>
			<point x="578" y="94" type="line"/>
			<point x="578" y="94"/>
			<point x="578" y="94"/>
			<point x="578" y="94" type="curve"/>
			<point x="578" y="1278" type="line"/>
			<point x="578" y="1278"/>
			<point x="578" y="1278"/>
			<point x="578" y="1278" type="curve"/>
			<point x="806" y="1278" type="line"/>
			<point x="806" y="1372" type="line"/>
			<point x="724" y="1366"/>
			<point x="528" y="1366"/>
			<point x="436" y="1366" type="curve" smooth="yes"/>
			<point x="344" y="1366"/>
			<point x="148" y="1366"/>
			<point x="66" y="1372" type="curve"/>
			<point x="66" y="1278" type="line"/>
			<point x="294" y="1278" type="line"/>
			<point x="294" y="1278"/>
			<point x="294" y="1278"/>
			<point x="294" y="1278" type="curve"/>
			<point x="294" y="94" type="line"/>
			<point x="294" y="94"/>
			<point x="294" y="94"/>
			<point x="294" y="94" type="curve"/>
			<point x="66" y="94" type="line"/>
		</contour>
	</outline>
</glyph>
<glyph name="J" format="2">
  <advance width="594"/>
  <unicode hex="004A"/>
  <outline>
    <contour>
      <point x="216" y="-11" type="curve" smooth="yes"/>
      <point x="350" y="-11"/>
      <point x="446" y="46"/>
      <point x="446" y="150" type="curve" smooth="yes"/>
      <point x="446" y="639" type="line"/>
      <point x="446.0" y="639.0"/>
      <point x="446.0" y="639.0"/>
      <point x="446" y="639" type="curve"/>
      <point x="527" y="639" type="line"/>
      <point x="527" y="686" type="line"/>
      <point x="492" y="683"/>
      <point x="407" y="683"/>
      <point x="368" y="683" type="curve" smooth="yes"/>
      <point x="315" y="683"/>
      <point x="217" y="683"/>
      <point x="169" y="686" type="curve"/>
      <point x="169" y="639" type="line"/>
      <point x="310" y="639" type="line"/>
      <point x="310.0" y="639.0"/>
      <point x="310.0" y="639.0"/>
      <point x="310" y="639" type="curve"/>
      <point x="310" y="149" type="line" smooth="yes"/>
      <point x="310" y="130"/>
      <point x="310" y="25"/>
      <point x="211" y="25" type="curve" smooth="yes"/>
      <point x="194" y="25"/>
      <point x="161" y="28"/>
      <point x="131" y="41" type="curve"/>
      <point x="131" y="41"/>
      <point x="176" y="61"/>
      <point x="176" y="114" type="curve" smooth="yes"/>
      <point x="176" y="168"/>
      <point x="133" y="191"/>
      <point x="100" y="191" type="curve" smooth="yes"/>
      <point x="63" y="191"/>
      <point x="23" y="166"/>
      <point x="23" y="114" type="curve" smooth="yes"/>
      <point x="23" y="37"/>
      <point x="102" y="-11"/>
    </contour>
  </outline>
</glyph>
<glyph name="K" format="2">
  <advance width="901"/>
  <unicode hex="004B"/>
  <outline>
    <contour>
      <point x="39" y="0" type="line"/>
      <point x="77" y="3"/>
      <point x="175" y="3"/>
      <point x="218" y="3" type="curve" smooth="yes"/>
      <point x="261" y="3"/>
      <point x="359" y="3"/>
      <point x="397" y="0" type="curve"/>
      <point x="397" y="47" type="line"/>
      <point x="289" y="47" type="line"/>
      <point x="289.0" y="47.0"/>
      <point x="289.0" y="47.0"/>
      <point x="289" y="47" type="curve"/>
      <point x="289" y="257" type="line"/>
      <point x="389" y="340" type="line"/>
      <point x="595" y="69" type="line" smooth="yes"/>
      <point x="600" y="63"/>
      <point x="600" y="61"/>
      <point x="603" y="55" type="curve"/>
      <point x="585" y="47"/>
      <point x="565" y="47"/>
      <point x="530" y="47" type="curve"/>
      <point x="530" y="0" type="line"/>
      <point x="571" y="3"/>
      <point x="661" y="3"/>
      <point x="706" y="3" type="curve" smooth="yes"/>
      <point x="746" y="3"/>
      <point x="815" y="3"/>
      <point x="852" y="0" type="curve"/>
      <point x="852" y="47" type="line"/>
      <point x="770" y="47"/>
      <point x="770" y="48"/>
      <point x="755" y="67" type="curve" smooth="yes"/>
      <point x="485" y="421" type="line"/>
      <point x="725" y="621" type="line" smooth="yes"/>
      <point x="747" y="640"/>
      <point x="789.0" y="639.0"/>
      <point x="836" y="639" type="curve"/>
      <point x="836" y="686" type="line"/>
      <point x="796" y="683"/>
      <point x="739" y="683"/>
      <point x="734" y="683" type="curve" smooth="yes"/>
      <point x="696" y="683"/>
      <point x="624" y="683"/>
      <point x="588" y="686" type="curve"/>
      <point x="588" y="639" type="line"/>
      <point x="601" y="639"/>
      <point x="621" y="639"/>
      <point x="646" y="634" type="curve" smooth="yes"/>
      <point x="662" y="630"/>
      <point x="658" y="629"/>
      <point x="659" y="628" type="curve"/>
      <point x="289" y="319" type="line"/>
      <point x="289" y="639" type="line"/>
      <point x="289.0" y="639.0"/>
      <point x="289.0" y="639.0"/>
      <point x="289" y="639" type="curve"/>
      <point x="397" y="639" type="line"/>
      <point x="397" y="686" type="line"/>
      <point x="359" y="683"/>
      <point x="261" y="683"/>
      <point x="218" y="683" type="curve" smooth="yes"/>
      <point x="175" y="683"/>
      <point x="77" y="683"/>
      <point x="39" y="686" type="curve"/>
      <point x="39" y="639" type="line"/>
      <point x="147" y="639" type="line"/>
      <point x="147.0" y="639.0"/>
      <point x="147.0" y="639.0"/>
      <point x="147" y="639" type="curve"/>
      <point x="147" y="47" type="line"/>
      <point x="147.0" y="47.0"/>
      <point x="147.0" y="47.0"/>
      <point x="147" y="47" type="curve"/>
      <point x="39" y="47" type="line"/>
    </contour>
  </outline>
</glyph>
<glyph name="L" format="2">
	<unicode hex="004C"/>
	<advance width="1382"/>
	<outline>
		<contour>
			<point x="1286" y="548" type="line"/>
			<point x="1192" y="548" type="line"/>
			<point x="1176" y="410"/>
			<point x="1142" y="94"/>
			<point x="784" y="94" type="curve" smooth="yes"/>
			<point x="578" y="94" type="line"/>
			<point x="578" y="94"/>
			<point x="578" y="94"/>
			<point x="578" y="94" type="curve"/>
			<point x="578" y="1278" type="line"/>
			<point x="578" y="1278"/>
			<point x="578" y="1278"/>
			<point x="578" y="1278" type="curve"/>
			<point x="848" y="1278" type="line"/>
			<point x="848" y="1372" type="line"/>
			<point x="760" y="1366"/>
			<point x="542" y="1366"/>
			<point x="444" y="1366" type="curve" smooth="yes"/>
			<point x="356" y="1366"/>
			<point x="154" y="1366"/>
			<point x="78" y="1372" type="curve"/>
			<point x="78" y="1278" type="line"/>
			<point x="294" y="1278" type="line"/>
			<point x="294" y="1278"/>
			<point x="294" y="1278"/>
			<point x="294" y="1278" type="curve"/>
			<point x="294" y="94" type="line"/>
			<point x="294" y="94"/>
			<point x="294" y="94"/>
			<point x="294" y="94" type="curve"/>
			<point x="78" y="94" type="line"/>
			<point x="78" y="0" type="line"/>
			<point x="1224" y="0" type="line"/>
		</contour>
	</outline>
</glyph>
<glyph name="M" format="2">
	<unicode hex="004D"/>
	<advance width="1091"/>
	<outline>
		<contour>
			<point x="546" y="132" type="line"/>
			<point x="306" y="661" type="line" smooth="yes"/>
			<point x="295" y="686"/>
			<point x="284" y="686"/>
			<point x="262" y="686" type="curve" smooth="yes"/>
			<point x="40" y="686" type="line"/>
			<point x="40" y="639" type="line"/>
			<point x="148" y="639" type="line"/>
			<point x="148" y="639"/>
			<point x="148" y="639"/>
			<point x="148" y="639" type="curve"/>
			<point x="148" y="76" type="line" smooth="yes"/>
			<point x="148" y="52"/>
			<point x="147" y="47"/>
			<point x="65" y="47" type="curve" smooth="yes"/>
			<point x="40" y="47" type="line"/>
			<point x="40" y="0" type="line"/>
			<point x="78" y="3"/>
			<point x="135" y="3"/>
			<point x="174" y="3" type="curve" smooth="yes"/>
			<point x="216" y="3"/>
			<point x="268" y="3"/>
			<point x="309" y="0" type="curve"/>
			<point x="309" y="47" type="line"/>
			<point x="284" y="47" type="line" smooth="yes"/>
			<point x="207" y="47"/>
			<point x="201" y="50"/>
			<point x="201" y="76" type="curve" smooth="yes"/>
			<point x="201" y="626" type="line"/>
			<point x="202" y="626" type="line"/>
			<point x="474" y="25" type="line" smooth="yes"/>
			<point x="483" y="5"/>
			<point x="495" y="0"/>
			<point x="506" y="0" type="curve" smooth="yes"/>
			<point x="526" y="0"/>
			<point x="534" y="15"/>
			<point x="538" y="24" type="curve" smooth="yes"/>
			<point x="817" y="639" type="line"/>
			<point x="818" y="639" type="line"/>
			<point x="818" y="47" type="line"/>
			<point x="818" y="47"/>
			<point x="818" y="47"/>
			<point x="818" y="47" type="curve"/>
			<point x="710" y="47" type="line"/>
			<point x="710" y="0" type="line"/>
			<point x="746" y="3"/>
			<point x="839" y="3"/>
			<point x="880" y="3" type="curve" smooth="yes"/>
			<point x="921" y="3"/>
			<point x="1015" y="3"/>
			<point x="1051" y="0" type="curve"/>
			<point x="1051" y="47" type="line"/>
			<point x="943" y="47" type="line"/>
			<point x="943" y="47"/>
			<point x="943" y="47"/>
			<point x="943" y="47" type="curve"/>
			<point x="943" y="639" type="line"/>
			<point x="943" y="639"/>
			<point x="943" y="639"/>
			<point x="943" y="639" type="curve"/>
			<point x="1051" y="639" type="line"/>
			<point x="1051" y="686" type="line"/>
			<point x="830" y="686" type="line" smooth="yes"/>
			<point x="808" y="686"/>
			<point x="797" y="686"/>
			<point x="786" y="661" type="curve" smooth="yes"/>
		</contour>
	</outline>
</glyph>
<glyph name="N" format="2">
	<unicode hex="004E"/>
	<advance width="1800"/>
	<outline>
		<contour>
			<point x="1398" y="410" type="line"/>
			<point x="602" y="1346" type="line" smooth="yes"/>
			<point x="580" y="1370"/>
			<point x="578" y="1372"/>
			<point x="536" y="1372" type="curve" smooth="yes"/>
			<point x="78" y="1372" type="line"/>
			<point x="78" y="1278" type="line"/>
			<point x="78" y="1278" type="line"/>
			<point x="150" y="1278"/>
			<point x="222" y="1278"/>
			<point x="294" y="1278" type="curve"/>
			<point x="294" y="1278"/>
			<point x="294" y="1278"/>
			<point x="294" y="1278" type="curve"/>
			<point x="294" y="146" type="line" smooth="yes"/>
			<point x="294" y="96"/>
			<point x="270" y="94"/>
			<point x="130" y="94" type="curve" smooth="yes"/>
			<point x="78" y="94" type="line"/>
			<point x="78" y="0" type="line"/>
			<point x="154" y="6"/>
			<point x="268" y="6"/>
			<point x="346" y="6" type="curve" smooth="yes"/>
			<point x="430" y="6"/>
			<point x="534" y="6"/>
			<point x="616" y="0" type="curve"/>
			<point x="616" y="94" type="line"/>
			<point x="596" y="94" type="line" smooth="yes"/>
			<point x="422" y="94"/>
			<point x="400" y="96"/>
			<point x="400" y="146" type="curve" smooth="yes"/>
			<point x="400" y="1198" type="line"/>
			<point x="400" y="1198"/>
			<point x="400" y="1198"/>
			<point x="400" y="1198" type="curve"/>
			<point x="1396" y="26" type="line" smooth="yes"/>
			<point x="1416" y="2"/>
			<point x="1418" y="0"/>
			<point x="1450" y="0" type="curve" smooth="yes"/>
			<point x="1504" y="0"/>
			<point x="1504" y="18"/>
			<point x="1504" y="64" type="curve" smooth="yes"/>
			<point x="1504" y="1220" type="line" smooth="yes"/>
			<point x="1504" y="1274"/>
			<point x="1510" y="1278"/>
			<point x="1670" y="1278" type="curve" smooth="yes"/>
			<point x="1720" y="1278" type="line"/>
			<point x="1720" y="1372" type="line"/>
			<point x="1644" y="1366"/>
			<point x="1530" y="1366"/>
			<point x="1452" y="1366" type="curve" smooth="yes"/>
			<point x="1368" y="1366"/>
			<point x="1264" y="1366"/>
			<point x="1182" y="1372" type="curve"/>
			<point x="1182" y="1278" type="line"/>
			<point x="1232" y="1278" type="line" smooth="yes"/>
			<point x="1396" y="1278"/>
			<point x="1398" y="1272"/>
			<point x="1398" y="1220" type="curve" smooth="yes"/>
		</contour>
	</outline>
</glyph>
<glyph name="O" format="2">
	<unicode hex="004F"/>
	<advance width="1726"/>
	<outline>
		<contour>
			<point x="1598" y="678" type="curve" smooth="yes"/>
			<point x="1598" y="1110"/>
			<point x="1308" y="1394"/>
			<point x="864" y="1394" type="curve" smooth="yes"/>
			<point x="406" y="1394"/>
			<point x="128" y="1098"/>
			<point x="128" y="678" type="curve" smooth="yes"/>
			<point x="128" y="264"/>
			<point x="408" y="-22"/>
			<point x="862" y="-22" type="curve" smooth="yes"/>
			<point x="1322" y="-22"/>
			<point x="1598" y="268"/>
		</contour>
		<contour>
			<point x="862" y="62" type="curve" smooth="yes"/>
			<point x="744" y="62"/>
			<point x="598" y="118"/>
			<point x="516" y="270" type="curve" smooth="yes"/>
			<point x="450" y="394"/>
			<point x="434" y="536"/>
			<point x="434" y="708" type="curve" smooth="yes"/>
			<point x="434" y="836"/>
			<point x="440" y="1006"/>
			<point x="528" y="1142" type="curve" smooth="yes"/>
			<point x="610" y="1264"/>
			<point x="744" y="1314"/>
			<point x="862" y="1314" type="curve" smooth="yes"/>
			<point x="990" y="1314"/>
			<point x="1128" y="1258"/>
			<point x="1208" y="1126" type="curve" smooth="yes"/>
			<point x="1284" y="998"/>
			<point x="1292" y="844"/>
			<point x="1292" y="708" type="curve" smooth="yes"/>
			<point x="1292" y="568"/>
			<point x="1284" y="390"/>
			<point x="1200" y="252" type="curve" smooth="yes"/>
			<point x="1110" y="106"/>
			<point x="970" y="62"/>
		</contour>
	</outline>
</glyph>
<glyph name="P" format="2">
	<unicode hex="0050"/>
	<advance width="1572"/>
	<outline>
		<contour>
			<point x="578" y="604" type="line"/>
			<point x="932" y="604" type="line" smooth="yes"/>
			<point x="1210" y="604"/>
			<point x="1442" y="748"/>
			<point x="1442" y="982" type="curve" smooth="yes"/>
			<point x="1442" y="1202"/>
			<point x="1244" y="1372"/>
			<point x="912" y="1372" type="curve" smooth="yes"/>
			<point x="78" y="1372" type="line"/>
			<point x="78" y="1278" type="line"/>
			<point x="294" y="1278" type="line"/>
			<point x="294" y="1278"/>
			<point x="294" y="1278"/>
			<point x="294" y="1278" type="curve"/>
			<point x="294" y="94" type="line"/>
			<point x="294" y="94"/>
			<point x="294" y="94"/>
			<point x="294" y="94" type="curve"/>
			<point x="78" y="94" type="line"/>
			<point x="78" y="0" type="line"/>
			<point x="154" y="6"/>
			<point x="350" y="6"/>
			<point x="436" y="6" type="curve" smooth="yes"/>
			<point x="522" y="6"/>
			<point x="718" y="6"/>
			<point x="794" y="0" type="curve"/>
			<point x="794" y="94" type="line"/>
			<point x="578" y="94" type="line"/>
			<point x="578" y="94"/>
			<point x="578" y="94"/>
			<point x="578" y="94" type="curve"/>
		</contour>
		<contour>
			<point x="566" y="686" type="line"/>
			<point x="566" y="1278" type="line"/>
			<point x="566" y="1278"/>
			<point x="566" y="1278"/>
			<point x="566" y="1278" type="curve"/>
			<point x="836" y="1278" type="line" smooth="yes"/>
			<point x="1136" y="1278"/>
			<point x="1136" y="1126"/>
			<point x="1136" y="982" type="curve" smooth="yes"/>
			<point x="1136" y="840"/>
			<point x="1136" y="686"/>
			<point x="834" y="686" type="curve" smooth="yes"/>
		</contour>
	</outline>
</glyph>
<glyph name="Q" format="2">
	<unicode hex="0051"/>
	<advance width="1726"/>
	<outline>
		<contour>
			<point x="1184" y="36" type="curve"/>
			<point x="1512" y="164"/>
			<point x="1598" y="460"/>
			<point x="1598" y="678" type="curve" smooth="yes"/>
			<point x="1598" y="1110"/>
			<point x="1308" y="1394"/>
			<point x="864" y="1394" type="curve" smooth="yes"/>
			<point x="406" y="1394"/>
			<point x="128" y="1098"/>
			<point x="128" y="678" type="curve" smooth="yes"/>
			<point x="128" y="270"/>
			<point x="400" y="-22"/>
			<point x="864" y="-22" type="curve" smooth="yes"/>
			<point x="908" y="-22"/>
			<point x="974" y="-20"/>
			<point x="1054" y="-4" type="curve"/>
			<point x="1110" y="-230"/>
			<point x="1150" y="-388"/>
			<point x="1336" y="-388" type="curve" smooth="yes"/>
			<point x="1540" y="-388"/>
			<point x="1610" y="-152"/>
			<point x="1610" y="-16" type="curve" smooth="yes"/>
			<point x="1610" y="0"/>
			<point x="1610" y="36"/>
			<point x="1574" y="36" type="curve" smooth="yes"/>
			<point x="1544" y="36"/>
			<point x="1540" y="10"/>
			<point x="1538" y="-4" type="curve" smooth="yes"/>
			<point x="1526" y="-80"/>
			<point x="1402" y="-82"/>
			<point x="1368" y="-82" type="curve" smooth="yes"/>
			<point x="1322" y="-82"/>
			<point x="1262" y="-82"/>
		</contour>
		<contour>
			<point x="674" y="102" type="curve"/>
			<point x="428" y="220"/>
			<point x="422" y="524"/>
			<point x="422" y="680" type="curve" smooth="yes"/>
			<point x="422" y="760"/>
			<point x="422" y="950"/>
			<point x="496" y="1092" type="curve" smooth="yes"/>
			<point x="600" y="1284"/>
			<point x="772" y="1314"/>
			<point x="862" y="1314" type="curve" smooth="yes"/>
			<point x="970" y="1314"/>
			<point x="1126" y="1274"/>
			<point x="1222" y="1104" type="curve" smooth="yes"/>
			<point x="1298" y="970"/>
			<point x="1304" y="798"/>
			<point x="1304" y="680" type="curve" smooth="yes"/>
			<point x="1304" y="568"/>
			<point x="1304" y="270"/>
			<point x="1112" y="138" type="curve"/>
			<point x="1068" y="204"/>
			<point x="996" y="310"/>
			<point x="862" y="310" type="curve" smooth="yes"/>
			<point x="760" y="310"/>
			<point x="668" y="242"/>
			<point x="668" y="146" type="curve" smooth="yes"/>
			<point x="668" y="134"/>
			<point x="670" y="112"/>
		</contour>
		<contour>
			<point x="1028" y="90" type="curve"/>
			<point x="978" y="68"/>
			<point x="918" y="58"/>
			<point x="864" y="58" type="curve" smooth="yes"/>
			<point x="754" y="58"/>
			<point x="740" y="122"/>
			<point x="740" y="146" type="curve" smooth="yes"/>
			<point x="740" y="200"/>
			<point x="798" y="238"/>
			<point x="864" y="238" type="curve" smooth="yes"/>
			<point x="920" y="238"/>
			<point x="988" y="216"/>
		</contour>
	</outline>
</glyph>
<glyph name="R" format="2">
	<unicode hex="0052"/>
	<advance width="1724"/>
	<outline>
		<contour>
			<point x="1100" y="680" type="curve"/>
			<point x="1332" y="740"/>
			<point x="1434" y="870"/>
			<point x="1434" y="1002" type="curve" smooth="yes"/>
			<point x="1434" y="1204"/>
			<point x="1214" y="1372"/>
			<point x="838" y="1372" type="curve" smooth="yes"/>
			<point x="78" y="1372" type="line"/>
			<point x="78" y="1278" type="line"/>
			<point x="294" y="1278" type="line"/>
			<point x="294" y="1278"/>
			<point x="294" y="1278"/>
			<point x="294" y="1278" type="curve"/>
			<point x="294" y="94" type="line"/>
			<point x="294" y="94"/>
			<point x="294" y="94"/>
			<point x="294" y="94" type="curve"/>
			<point x="78" y="94" type="line"/>
			<point x="78" y="0" type="line"/>
			<point x="150" y="6"/>
			<point x="346" y="6"/>
			<point x="430" y="6" type="curve" smooth="yes"/>
			<point x="514" y="6"/>
			<point x="710" y="6"/>
			<point x="782" y="0" type="curve"/>
			<point x="782" y="94" type="line"/>
			<point x="566" y="94" type="line"/>
			<point x="566" y="94"/>
			<point x="566" y="94"/>
			<point x="566" y="94" type="curve"/>
			<point x="566" y="650" type="line"/>
			<point x="800" y="650" type="line" smooth="yes"/>
			<point x="828" y="650"/>
			<point x="916" y="650"/>
			<point x="978" y="582" type="curve" smooth="yes"/>
			<point x="1042" y="512"/>
			<point x="1042" y="474"/>
			<point x="1042" y="328" type="curve" smooth="yes"/>
			<point x="1042" y="196"/>
			<point x="1042" y="98"/>
			<point x="1182" y="30" type="curve" smooth="yes"/>
			<point x="1270" y="-14"/>
			<point x="1394" y="-22"/>
			<point x="1476" y="-22" type="curve" smooth="yes"/>
			<point x="1690" y="-22"/>
			<point x="1716" y="158"/>
			<point x="1716" y="190" type="curve" smooth="yes"/>
			<point x="1716" y="234"/>
			<point x="1688" y="234"/>
			<point x="1668" y="234" type="curve" smooth="yes"/>
			<point x="1626" y="234"/>
			<point x="1624" y="214"/>
			<point x="1622" y="188" type="curve" smooth="yes"/>
			<point x="1612" y="94"/>
			<point x="1554" y="50"/>
			<point x="1494" y="50" type="curve" smooth="yes"/>
			<point x="1374" y="50"/>
			<point x="1356" y="192"/>
			<point x="1346" y="276" type="curve"/>
			<point x="1342" y="298"/>
			<point x="1326" y="436"/>
			<point x="1324" y="446" type="curve" smooth="yes"/>
			<point x="1296" y="586"/>
			<point x="1186" y="648"/>
		</contour>
		<contour>
			<point x="566" y="722" type="line"/>
			<point x="566" y="1278" type="line"/>
			<point x="566" y="1278"/>
			<point x="566" y="1278"/>
			<point x="566" y="1278" type="curve"/>
			<point x="645" y="1278"/>
			<point x="723" y="1278"/>
			<point x="802" y="1278" type="curve" smooth="yes"/>
			<point x="1124" y="1278"/>
			<point x="1128" y="1122"/>
			<point x="1128" y="1000" type="curve" smooth="yes"/>
			<point x="1128" y="888"/>
			<point x="1128" y="722"/>
			<point x="798" y="722" type="curve" smooth="yes"/>
		</contour>
	</outline>
</glyph>
<glyph name="S" format="2">
	<unicode hex="0053"/>
	<advance width="1276"/>
	<outline>
		<contour>
			<point x="954" y="306" type="curve" smooth="yes"/>
			<point x="954" y="210"/>
			<point x="902" y="72"/>
			<point x="694" y="72" type="curve" smooth="yes"/>
			<point x="542" y="72"/>
			<point x="238" y="112"/>
			<point x="222" y="410" type="curve" smooth="yes"/>
			<point x="220" y="446"/>
			<point x="220" y="456"/>
			<point x="176" y="456" type="curve" smooth="yes"/>
			<point x="128" y="456"/>
			<point x="128" y="444"/>
			<point x="128" y="398" type="curve" smooth="yes"/>
			<point x="128" y="34" type="line" smooth="yes"/>
			<point x="128" y="-4"/>
			<point x="128" y="-22"/>
			<point x="164" y="-22" type="curve" smooth="yes"/>
			<point x="182" y="-22"/>
			<point x="186" y="-18"/>
			<point x="202" y="-4" type="curve"/>
			<point x="233" y="27"/>
			<point x="263" y="57"/>
			<point x="294" y="88" type="curve"/>
			<point x="426" y="-10"/>
			<point x="612" y="-22"/>
			<point x="694" y="-22" type="curve" smooth="yes"/>
			<point x="1024" y="-22"/>
			<point x="1148" y="204"/>
			<point x="1148" y="406" type="curve" smooth="yes"/>
			<point x="1148" y="522"/>
			<point x="1104" y="622"/>
			<point x="1035" y="696" type="curve" smooth="yes"/>
			<point x="973" y="764"/>
			<point x="891" y="810"/>
			<point x="804" y="828" type="curve" smooth="yes"/>
			<point x="707" y="849"/>
			<point x="611" y="869"/>
			<point x="514" y="890" type="curve" smooth="yes"/>
			<point x="434" y="908"/>
			<point x="322" y="976"/>
			<point x="322" y="1098" type="curve" smooth="yes"/>
			<point x="322" y="1184"/>
			<point x="378" y="1308"/>
			<point x="578" y="1308" type="curve" smooth="yes"/>
			<point x="738" y="1308"/>
			<point x="940" y="1240"/>
			<point x="986" y="968" type="curve" smooth="yes"/>
			<point x="994" y="920"/>
			<point x="994" y="916"/>
			<point x="1036" y="916" type="curve" smooth="yes"/>
			<point x="1084" y="916"/>
			<point x="1084" y="926"/>
			<point x="1084" y="972" type="curve" smooth="yes"/>
			<point x="1084" y="1338" type="line" smooth="yes"/>
			<point x="1084" y="1376"/>
			<point x="1084" y="1394"/>
			<point x="1048" y="1394" type="curve" smooth="yes"/>
			<point x="1032" y="1394"/>
			<point x="1030" y="1392"/>
			<point x="1008" y="1372" type="curve" smooth="yes"/>
			<point x="978" y="1343"/>
			<point x="948" y="1313"/>
			<point x="918" y="1284" type="curve"/>
			<point x="802" y="1376"/>
			<point x="672" y="1394"/>
			<point x="576" y="1394" type="curve" smooth="yes"/>
			<point x="272" y="1394"/>
			<point x="128" y="1202"/>
			<point x="128" y="992" type="curve" smooth="yes"/>
			<point x="128" y="862"/>
			<point x="194" y="770"/>
			<point x="236" y="726" type="curve" smooth="yes"/>
			<point x="334" y="628"/>
			<point x="402" y="614"/>
			<point x="620" y="566" type="curve" smooth="yes"/>
			<point x="796" y="528"/>
			<point x="832" y="518"/>
			<point x="874" y="480" type="curve" smooth="yes"/>
			<point x="906" y="452"/>
			<point x="954" y="398"/>
		</contour>
	</outline>
</glyph>
<glyph name="T" format="2">
	<unicode hex="0054"/>
	<advance width="1600"/>
	<outline>
		<contour>
			<point x="1472" y="1350" type="line"/>
			<point x="126" y="1350" type="line"/>
			<point x="84" y="868" type="line"/>
			<point x="178" y="868" type="line"/>
			<point x="196" y="1094"/>
			<point x="216" y="1256"/>
			<point x="504" y="1256" type="curve" smooth="yes"/>
			<point x="555" y="1256"/>
			<point x="607" y="1256"/>
			<point x="658" y="1256" type="curve"/>
			<point x="658" y="1256"/>
			<point x="658" y="1256"/>
			<point x="658" y="1256" type="curve"/>
			<point x="658" y="94" type="line"/>
			<point x="658" y="94"/>
			<point x="658" y="94"/>
			<point x="658" y="94" type="curve"/>
			<point x="352" y="94" type="line"/>
			<point x="352" y="0" type="line"/>
			<point x="460" y="6"/>
			<point x="682" y="6"/>
			<point x="800" y="6" type="curve" smooth="yes"/>
			<point x="918" y="6"/>
			<point x="1140" y="6"/>
			<point x="1248" y="0" type="curve"/>
			<point x="1248" y="94" type="line"/>
			<point x="942" y="94" type="line"/>
			<point x="942" y="94"/>
			<point x="942" y="94"/>
			<point x="942" y="94" type="curve"/>
			<point x="942" y="1256" type="line"/>
			<point x="942" y="1256"/>
			<point x="942" y="1256"/>
			<point x="942" y="1256" type="curve"/>
			<point x="993" y="1256"/>
			<point x="1043" y="1256"/>
			<point x="1094" y="1256" type="curve" smooth="yes"/>
			<point x="1380" y="1256"/>
			<point x="1400" y="1096"/>
			<point x="1420" y="868" type="curve"/>
			<point x="1514" y="868" type="line"/>
		</contour>
	</outline>
</glyph>
<glyph name="V" format="2">
	<unicode hex="0056"/>
	<advance width="1738"/>
	<outline>
		<contour>
			<point x="868" y="-16" type="curve" smooth="yes"/>
			<point x="900" y="-16"/>
			<point x="926" y="-16"/>
			<point x="948" y="32" type="curve" smooth="yes"/>
			<point x="1480" y="1234" type="line" smooth="yes"/>
			<point x="1492" y="1260"/>
			<point x="1500" y="1278"/>
			<point x="1646" y="1278" type="curve" smooth="yes"/>
			<point x="1684" y="1278" type="line"/>
			<point x="1684" y="1372" type="line"/>
			<point x="1608" y="1370"/>
			<point x="1512" y="1366"/>
			<point x="1458" y="1366" type="curve" smooth="yes"/>
			<point x="1378" y="1366"/>
			<point x="1274" y="1366"/>
			<point x="1196" y="1372" type="curve"/>
			<point x="1196" y="1278" type="line"/>
			<point x="1214" y="1278"/>
			<point x="1372" y="1278"/>
			<point x="1372" y="1254" type="curve" smooth="yes"/>
			<point x="1372" y="1248"/>
			<point x="1368" y="1240"/>
			<point x="1364" y="1230" type="curve" smooth="yes"/>
			<point x="960" y="320" type="line"/>
			<point x="534" y="1278" type="line"/>
			<point x="534" y="1278"/>
			<point x="534" y="1278"/>
			<point x="534" y="1278" type="curve"/>
			<point x="597" y="1278"/>
			<point x="659" y="1278"/>
			<point x="722" y="1278" type="curve"/>
			<point x="722" y="1372" type="line"/>
			<point x="646" y="1366"/>
			<point x="454" y="1366"/>
			<point x="368" y="1366" type="curve" smooth="yes"/>
			<point x="290" y="1366"/>
			<point x="122" y="1366"/>
			<point x="52" y="1372" type="curve"/>
			<point x="52" y="1278" type="line"/>
			<point x="236" y="1278" type="line"/>
			<point x="236" y="1278"/>
			<point x="236" y="1278"/>
			<point x="236" y="1278" type="curve"/>
			<point x="788" y="36" type="line" smooth="yes"/>
			<point x="804" y="0"/>
			<point x="812" y="-16"/>
		</contour>
	</outline>
</glyph>
<glyph name="W" format="2">
  <advance width="1188"/>
  <unicode hex="0057"/>
  <outline>
    <contour>
      <point x="433" y="181" type="line"/>
      <point x="256" y="639" type="line"/>
      <point x="256.0" y="639.0"/>
      <point x="256.0" y="639.0"/>
      <point x="256" y="639" type="curve"/>
      <point x="287.968" y="639.0"/>
      <point x="319.93600000000004" y="639.0"/>
      <point x="352" y="639" type="curve"/>
      <point x="352" y="686" type="line"/>
      <point x="314" y="683"/>
      <point x="220" y="683"/>
      <point x="177" y="683" type="curve" smooth="yes"/>
      <point x="138" y="683"/>
      <point x="59" y="683"/>
      <point x="24" y="686" type="curve"/>
      <point x="24" y="639" type="line"/>
      <point x="110" y="639" type="line"/>
      <point x="110.0" y="639.0"/>
      <point x="110.0" y="639.0"/>
      <point x="110" y="639" type="curve"/>
      <point x="350" y="18" type="line" smooth="yes"/>
      <point x="356" y="2"/>
      <point x="360" y="-8"/>
      <point x="385" y="-8" type="curve" smooth="yes"/>
      <point x="410" y="-8"/>
      <point x="414" y="2"/>
      <point x="420" y="18" type="curve" smooth="yes"/>
      <point x="594" y="468" type="line"/>
      <point x="768" y="18" type="line" smooth="yes"/>
      <point x="774" y="2"/>
      <point x="778" y="-8"/>
      <point x="803" y="-8" type="curve" smooth="yes"/>
      <point x="828" y="-8"/>
      <point x="832" y="2"/>
      <point x="838" y="18" type="curve" smooth="yes"/>
      <point x="1069" y="615" type="line" smooth="yes"/>
      <point x="1075" y="632"/>
      <point x="1077" y="637"/>
      <point x="1120" y="638" type="curve" smooth="yes"/>
      <point x="1164" y="639" type="line"/>
      <point x="1164" y="686" type="line"/>
      <point x="1137" y="685"/>
      <point x="1102" y="683"/>
      <point x="1057" y="683" type="curve" smooth="yes"/>
      <point x="1019" y="683"/>
      <point x="957" y="683"/>
      <point x="921" y="686" type="curve"/>
      <point x="921" y="639" type="line"/>
      <point x="946" y="639"/>
      <point x="994" y="639"/>
      <point x="1023" y="628" type="curve"/>
      <point x="1023.0" y="628.0"/>
      <point x="1023.0" y="628.0"/>
      <point x="1023" y="628" type="curve"/>
      <point x="851" y="181" type="line"/>
      <point x="674" y="639" type="line"/>
      <point x="674.0" y="639.0"/>
      <point x="674.0" y="639.0"/>
      <point x="674" y="639" type="curve"/>
      <point x="705.968" y="639.0"/>
      <point x="737.936" y="639.0"/>
      <point x="770" y="639" type="curve"/>
      <point x="770" y="686" type="line"/>
      <point x="732" y="683"/>
      <point x="638" y="683"/>
      <point x="595" y="683" type="curve" smooth="yes"/>
      <point x="556" y="683"/>
      <point x="477" y="683"/>
      <point x="442" y="686" type="curve"/>
      <point x="442" y="639" type="line"/>
      <point x="528" y="639" type="line"/>
      <point x="528.0" y="639.0"/>
      <point x="528.0" y="639.0"/>
      <point x="528" y="639" type="curve"/>
      <point x="541.653" y="603.702"/>
      <point x="555.306" y="568.404"/>
      <point x="569" y="533" type="curve"/>
    </contour>
  </outline>
</glyph>
<glyph name="X" format="2">
	<unicode hex="0058"/>
	<advance width="1738"/>
	<outline>
		<contour>
			<point x="968" y="794" type="line"/>
			<point x="1304" y="1236" type="line" smooth="yes"/>
			<point x="1342" y="1284"/>
			<point x="1416" y="1278"/>
			<point x="1514" y="1278" type="curve" smooth="yes"/>
			<point x="1572" y="1278" type="line"/>
			<point x="1572" y="1372" type="line"/>
			<point x="1488" y="1366"/>
			<point x="1390" y="1366"/>
			<point x="1304" y="1366" type="curve" smooth="yes"/>
			<point x="1226" y="1366"/>
			<point x="1072" y="1366"/>
			<point x="1000" y="1372" type="curve"/>
			<point x="1000" y="1278" type="line"/>
			<point x="1036" y="1278"/>
			<point x="1114" y="1278"/>
			<point x="1184" y="1256" type="curve"/>
			<point x="1180" y="1250"/>
			<point x="1172" y="1240"/>
			<point x="1168" y="1234" type="curve" smooth="yes"/>
			<point x="904" y="884" type="line"/>
			<point x="618" y="1278" type="line"/>
			<point x="618" y="1278"/>
			<point x="618" y="1278"/>
			<point x="618" y="1278" type="curve"/>
			<point x="673" y="1278"/>
			<point x="729" y="1278"/>
			<point x="784" y="1278" type="curve"/>
			<point x="784" y="1372" type="line"/>
			<point x="702" y="1366"/>
			<point x="512" y="1366"/>
			<point x="422" y="1366" type="curve" smooth="yes"/>
			<point x="342" y="1366"/>
			<point x="168" y="1366"/>
			<point x="98" y="1372" type="curve"/>
			<point x="98" y="1278" type="line"/>
			<point x="294" y="1278" type="line"/>
			<point x="294" y="1278"/>
			<point x="294" y="1278"/>
			<point x="294" y="1278" type="curve"/>
			<point x="738" y="664" type="line"/>
			<point x="334" y="134" type="line" smooth="yes"/>
			<point x="304" y="94"/>
			<point x="230" y="94"/>
			<point x="126" y="94" type="curve" smooth="yes"/>
			<point x="68" y="94" type="line"/>
			<point x="68" y="0" type="line"/>
			<point x="152" y="6"/>
			<point x="250" y="6"/>
			<point x="336" y="6" type="curve" smooth="yes"/>
			<point x="414" y="6"/>
			<point x="568" y="6"/>
			<point x="640" y="0" type="curve"/>
			<point x="640" y="94" type="line"/>
			<point x="604" y="94"/>
			<point x="526" y="94"/>
			<point x="456" y="116" type="curve"/>
			<point x="458" y="120"/>
			<point x="464" y="128"/>
			<point x="472" y="138" type="curve" smooth="yes"/>
			<point x="802" y="576" type="line"/>
			<point x="1150" y="94" type="line"/>
			<point x="1150" y="94"/>
			<point x="1150" y="94"/>
			<point x="1150" y="94" type="curve"/>
			<point x="1095" y="94"/>
			<point x="1039" y="94"/>
			<point x="984" y="94" type="curve"/>
			<point x="984" y="0" type="line"/>
			<point x="1066" y="6"/>
			<point x="1256" y="6"/>
			<point x="1346" y="6" type="curve" smooth="yes"/>
			<point x="1426" y="6"/>
			<point x="1600" y="6"/>
			<point x="1670" y="0" type="curve"/>
			<point x="1670" y="94" type="line"/>
			<point x="1474" y="94" type="line"/>
			<point x="1474" y="94"/>
			<point x="1474" y="94"/>
			<point x="1474" y="94" type="curve"/>
		</contour>
	</outline>
</glyph>
<glyph name="Y" format="2">
	<unicode hex="0059"/>
	<advance width="1738"/>
	<outline>
		<contour>
			<point x="732" y="548" type="line"/>
			<point x="732" y="94" type="line"/>
			<point x="732" y="94"/>
			<point x="732" y="94"/>
			<point x="732" y="94" type="curve"/>
			<point x="516" y="94" type="line"/>
			<point x="516" y="0" type="line"/>
			<point x="588" y="6"/>
			<point x="784" y="6"/>
			<point x="868" y="6" type="curve" smooth="yes"/>
			<point x="954" y="6"/>
			<point x="1146" y="6"/>
			<point x="1222" y="0" type="curve"/>
			<point x="1222" y="94" type="line"/>
			<point x="1004" y="94" type="line"/>
			<point x="1004" y="94"/>
			<point x="1004" y="94"/>
			<point x="1004" y="94" type="curve"/>
			<point x="1004" y="548" type="line"/>
			<point x="1474" y="1238" type="line" smooth="yes"/>
			<point x="1500" y="1278"/>
			<point x="1596" y="1278"/>
			<point x="1656" y="1278" type="curve" smooth="yes"/>
			<point x="1698" y="1278" type="line"/>
			<point x="1698" y="1372" type="line"/>
			<point x="1618" y="1370"/>
			<point x="1526" y="1366"/>
			<point x="1470" y="1366" type="curve" smooth="yes"/>
			<point x="1392" y="1366"/>
			<point x="1280" y="1366"/>
			<point x="1206" y="1372" type="curve"/>
			<point x="1206" y="1278" type="line"/>
			<point x="1252" y="1278"/>
			<point x="1306" y="1278"/>
			<point x="1358" y="1258" type="curve"/>
			<point x="1356" y="1252"/>
			<point x="1348" y="1240"/>
			<point x="1344" y="1234" type="curve" smooth="yes"/>
			<point x="970" y="684" type="line"/>
			<point x="564" y="1278" type="line"/>
			<point x="564" y="1278"/>
			<point x="564" y="1278"/>
			<point x="564" y="1278" type="curve"/>
			<point x="621" y="1278"/>
			<point x="677" y="1278"/>
			<point x="734" y="1278" type="curve"/>
			<point x="734" y="1372" type="line"/>
			<point x="652" y="1366"/>
			<point x="458" y="1366"/>
			<point x="368" y="1366" type="curve" smooth="yes"/>
			<point x="288" y="1366"/>
			<point x="108" y="1366"/>
			<point x="38" y="1372" type="curve"/>
			<point x="38" y="1278" type="line"/>
			<point x="234" y="1278" type="line"/>
			<point x="234" y="1278"/>
			<point x="234" y="1278"/>
			<point x="234" y="1278" type="curve"/>
		</contour>
	</outline>
</glyph>
<glyph name="Z" format="2">
	<unicode hex="005A"/>
	<advance width="702"/>
	<outline>
		<contour>
			<point x="96" y="0" type="curve" smooth="yes"/>
			<point x="627" y="0" type="line"/>
			<point x="645" y="284" type="line"/>
			<point x="598" y="284" type="line"/>
			<point x="590" y="173"/>
			<point x="576" y="51"/>
			<point x="371" y="51" type="curve" smooth="yes"/>
			<point x="231" y="51" type="line"/>
			<point x="630" y="637" type="line" smooth="yes"/>
			<point x="638" y="649"/>
			<point x="638" y="650"/>
			<point x="638" y="661" type="curve" smooth="yes"/>
			<point x="638" y="686"/>
			<point x="627" y="686"/>
			<point x="606" y="686" type="curve" smooth="yes"/>
			<point x="92" y="686" type="line"/>
			<point x="80" y="445" type="line"/>
			<point x="127" y="445" type="line"/>
			<point x="135" y="578"/>
			<point x="202" y="639"/>
			<point x="342" y="639" type="curve" smooth="yes"/>
			<point x="472" y="639" type="line"/>
			<point x="72" y="52" type="line" smooth="yes"/>
			<point x="64" y="40"/>
			<point x="64" y="37"/>
			<point x="64" y="26" type="curve" smooth="yes"/>
			<point x="64" y="0"/>
			<point x="74" y="0"/>
		</contour>
	</outline>
</glyph>
<glyph name="bracketleft" format="2">
	<unicode hex="005B"/>
	<advance width="638"/>
	<outline>
		<contour>
			<point x="586" y="1378" type="line"/>
			<point x="586" y="1500" type="line"/>
			<point x="256" y="1500" type="line"/>
			<point x="256" y="-500" type="line"/>
			<point x="586" y="-500" type="line"/>
			<point x="586" y="-378" type="line"/>
			<point x="378" y="-378" type="line"/>
			<point x="378" y="1378" type="line"/>
		</contour>
	</outline>
</glyph>
<glyph name="bracketright" format="2">
	<unicode hex="005D"/>
	<advance width="319"/>
	<outline>
		<contour>
			<point x="190" y="750" type="line"/>
			<point x="25" y="750" type="line"/>
			<point x="25" y="689" type="line"/>
			<point x="129" y="689" type="line"/>
			<point x="129" y="-189" type="line"/>
			<point x="25" y="-189" type="line"/>
			<point x="25" y="-250" type="line"/>
			<point x="190" y="-250" type="line"/>
		</contour>
	</outline>
</glyph>
<glyph name="grave" format="2">
	<unicode hex="0060"/>
	<advance width="1150"/>
	<outline>
		<contour>
			<point x="612" y="1018" type="line"/>
			<point x="672" y="1092" type="line"/>
			<point x="444" y="1358" type="line" smooth="yes"/>
			<point x="426" y="1380"/>
			<point x="402" y="1408"/>
			<point x="354" y="1408" type="curve" smooth="yes"/>
			<point x="290" y="1408"/>
			<point x="234" y="1346"/>
			<point x="234" y="1284" type="curve" smooth="yes"/>
			<point x="234" y="1218"/>
			<point x="294" y="1186"/>
			<point x="298" y="1184" type="curve" smooth="yes"/>
		</contour>
	</outline>
</glyph>
<glyph name="a" format="2">
	<unicode hex="0061"/>
	<advance width="1118"/>
	<outline>
		<contour>
			<point x="64" y="216" type="curve" smooth="yes"/>
			<point x="64" y="24"/>
			<point x="312" y="-12"/>
			<point x="450" y="-12" type="curve" smooth="yes"/>
			<point x="610" y="-12"/>
			<point x="704" y="70"/>
			<point x="748" y="154" type="curve"/>
			<point x="758" y="72"/>
			<point x="828" y="-12"/>
			<point x="948" y="-12" type="curve" smooth="yes"/>
			<point x="1038" y="-12"/>
			<point x="1138" y="18"/>
			<point x="1138" y="188" type="curve" smooth="yes"/>
			<point x="1138" y="300" type="line"/>
			<point x="1088" y="300" type="line"/>
			<point x="1088" y="188" type="line" smooth="yes"/>
			<point x="1088" y="72"/>
			<point x="1038" y="60"/>
			<point x="1016" y="60" type="curve" smooth="yes"/>
			<point x="950" y="60"/>
			<point x="942" y="124"/>
			<point x="942" y="168" type="curve" smooth="yes"/>
			<point x="942" y="598" type="line" smooth="yes"/>
			<point x="942" y="698"/>
			<point x="898" y="782"/>
			<point x="806" y="837" type="curve" smooth="yes"/>
			<point x="734" y="881"/>
			<point x="633" y="906"/>
			<point x="502" y="906" type="curve" smooth="yes"/>
			<point x="388" y="906"/>
			<point x="144" y="898"/>
			<point x="144" y="722" type="curve" smooth="yes"/>
			<point x="144" y="634"/>
			<point x="214" y="596"/>
			<point x="268" y="596" type="curve" smooth="yes"/>
			<point x="330" y="596"/>
			<point x="394" y="638"/>
			<point x="394" y="722" type="curve" smooth="yes"/>
			<point x="394" y="782"/>
			<point x="356" y="816"/>
			<point x="350" y="820" type="curve"/>
			<point x="406" y="832"/>
			<point x="470" y="834"/>
			<point x="494" y="834" type="curve" smooth="yes"/>
			<point x="644" y="834"/>
			<point x="714" y="750"/>
			<point x="714" y="598" type="curve" smooth="yes"/>
			<point x="714" y="530" type="line"/>
			<point x="639" y="527"/>
			<point x="461" y="520"/>
			<point x="311" y="472" type="curve" smooth="yes"/>
			<point x="177" y="429"/>
			<point x="64" y="353"/>
		</contour>
		<contour>
			<point x="298" y="218" type="curve" smooth="yes"/>
			<point x="298" y="434"/>
			<point x="614" y="462"/>
			<point x="714" y="468" type="curve"/>
			<point x="714" y="278" type="line" smooth="yes"/>
			<point x="714" y="204"/>
			<point x="687" y="155"/>
			<point x="650" y="122" type="curve" smooth="yes"/>
			<point x="592" y="70"/>
			<point x="511" y="60"/>
			<point x="480" y="60" type="curve" smooth="yes"/>
			<point x="378" y="60"/>
			<point x="298" y="130"/>
		</contour>
	</outline>
</glyph>
<glyph name="b" format="2">
  <advance width="638"/>
  <unicode hex="0062"/>
  <outline>
    <contour>
      <point x="106" y="0" type="line"/>
      <point x="153" y="0" type="line"/>
      <point x="169.317" y="18.648"/>
      <point x="185.63400000000001" y="37.296"/>
      <point x="202" y="56" type="curve"/>
      <point x="210" y="48"/>
      <point x="259" y="-6"/>
      <point x="348" y="-6" type="curve" smooth="yes"/>
      <point x="497" y="-6"/>
      <point x="600" y="84"/>
      <point x="600" y="223" type="curve" smooth="yes"/>
      <point x="600" y="356"/>
      <point x="506" y="450"/>
      <point x="361" y="450" type="curve" smooth="yes"/>
      <point x="288" y="450"/>
      <point x="238" y="421"/>
      <point x="214" y="401" type="curve"/>
      <point x="214" y="694" type="line"/>
      <point x="37" y="686" type="line"/>
      <point x="37" y="639" type="line"/>
      <point x="99" y="639"/>
      <point x="106" y="639"/>
      <point x="106" y="600" type="curve" smooth="yes"/>
    </contour>
    <contour>
      <point x="339" y="30" type="curve" smooth="yes"/>
      <point x="269" y="30"/>
      <point x="230" y="84"/>
      <point x="220" y="99" type="curve"/>
      <point x="220.0" y="99.0"/>
      <point x="220.0" y="99.0"/>
      <point x="220" y="99" type="curve"/>
      <point x="220" y="350" type="line"/>
      <point x="220.0" y="350.0"/>
      <point x="220.0" y="350.0"/>
      <point x="220" y="350" type="curve"/>
      <point x="247" y="385"/>
      <point x="295" y="414"/>
      <point x="350" y="414" type="curve" smooth="yes"/>
      <point x="388.00056" y="414.0"/>
      <point x="414.1647055712" y="402.2606053616"/>
      <point x="432.17924307988267" y="383.97960866677226" type="curve" smooth="yes"/>
      <point x="472.0" y="343.5698493104"/>
      <point x="472.0" y="271.1964"/>
      <point x="472" y="223" type="curve" smooth="yes"/>
      <point x="472" y="176"/>
      <point x="472" y="121"/>
      <point x="446" y="82" type="curve" smooth="yes"/>
      <point x="417" y="41"/>
      <point x="371" y="30"/>
    </contour>
  </outline>
</glyph>
<glyph name="c" format="2">
	<unicode hex="0063"/>
	<advance width="1022"/>
	<outline>
		<contour>
			<point x="332" y="454" type="curve" smooth="yes"/>
			<point x="332" y="566"/>
			<point x="332" y="826"/>
			<point x="590" y="826" type="curve" smooth="yes"/>
			<point x="660" y="826"/>
			<point x="694" y="820"/>
			<point x="720" y="814" type="curve"/>
			<point x="684" y="782"/>
			<point x="680" y="740"/>
			<point x="680" y="722" type="curve" smooth="yes"/>
			<point x="680" y="634"/>
			<point x="750" y="596"/>
			<point x="804" y="596" type="curve" smooth="yes"/>
			<point x="866" y="596"/>
			<point x="930" y="638"/>
			<point x="930" y="722" type="curve" smooth="yes"/>
			<point x="930" y="894"/>
			<point x="698" y="906"/>
			<point x="582" y="906" type="curve" smooth="yes"/>
			<point x="224" y="906"/>
			<point x="76" y="676"/>
			<point x="76" y="444" type="curve" smooth="yes"/>
			<point x="76" y="178"/>
			<point x="264" y="-12"/>
			<point x="572" y="-12" type="curve" smooth="yes"/>
			<point x="896" y="-12"/>
			<point x="956" y="220"/>
			<point x="956" y="234" type="curve" smooth="yes"/>
			<point x="956" y="262"/>
			<point x="928" y="262"/>
			<point x="908" y="262" type="curve" smooth="yes"/>
			<point x="872" y="262"/>
			<point x="870" y="258"/>
			<point x="860" y="232" type="curve" smooth="yes"/>
			<point x="808" y="106"/>
			<point x="712" y="68"/>
			<point x="610" y="68" type="curve" smooth="yes"/>
			<point x="332" y="68"/>
			<point x="332" y="362"/>
		</contour>
	</outline>
</glyph>
<glyph name="d" format="2">
	<unicode hex="0064"/>
	<advance width="1276"/>
	<outline>
		<contour>
			<point x="836" y="86" type="curve"/>
			<point x="836" y="-12" type="line"/>
			<point x="1202" y="0" type="line"/>
			<point x="1202" y="94" type="line"/>
			<point x="1078" y="94"/>
			<point x="1064" y="94"/>
			<point x="1064" y="172" type="curve" smooth="yes"/>
			<point x="1064" y="1388" type="line"/>
			<point x="710" y="1372" type="line"/>
			<point x="710" y="1278" type="line"/>
			<point x="834" y="1278"/>
			<point x="848" y="1278"/>
			<point x="848" y="1200" type="curve" smooth="yes"/>
			<point x="848" y="810" type="line"/>
			<point x="748" y="888"/>
			<point x="644" y="900"/>
			<point x="578" y="900" type="curve" smooth="yes"/>
			<point x="286" y="900"/>
			<point x="76" y="724"/>
			<point x="76" y="442" type="curve" smooth="yes"/>
			<point x="76" y="178"/>
			<point x="260" y="-12"/>
			<point x="556" y="-12" type="curve" smooth="yes"/>
			<point x="678" y="-12"/>
			<point x="774" y="36"/>
		</contour>
		<contour>
			<point x="332" y="442" type="curve" smooth="yes"/>
			<point x="332" y="538"/>
			<point x="332" y="646"/>
			<point x="384" y="724" type="curve" smooth="yes"/>
			<point x="442" y="808"/>
			<point x="536" y="828"/>
			<point x="598" y="828" type="curve" smooth="yes"/>
			<point x="712" y="828"/>
			<point x="792" y="764"/>
			<point x="836" y="706" type="curve"/>
			<point x="836" y="706"/>
			<point x="836" y="706"/>
			<point x="836" y="706" type="curve"/>
			<point x="836" y="206" type="line"/>
			<point x="836" y="206"/>
			<point x="836" y="206"/>
			<point x="836" y="206" type="curve"/>
			<point x="810" y="170"/>
			<point x="728" y="60"/>
			<point x="576" y="60" type="curve" smooth="yes"/>
			<point x="500" y="60"/>
			<point x="448" y="83"/>
			<point x="412" y="120" type="curve" smooth="yes"/>
			<point x="332" y="201"/>
			<point x="332" y="346"/>
		</contour>
	</outline>
</glyph>
<glyph name="e" format="2">
	<unicode hex="0065"/>
	<advance width="1054"/>
	<outline>
		<contour>
			<point x="320" y="436" type="curve"/>
			<point x="924" y="436" type="line" smooth="yes"/>
			<point x="968" y="436"/>
			<point x="988" y="436"/>
			<point x="988" y="490" type="curve" smooth="yes"/>
			<point x="988" y="698"/>
			<point x="884" y="906"/>
			<point x="558" y="906" type="curve" smooth="yes"/>
			<point x="238" y="906"/>
			<point x="64" y="700"/>
			<point x="64" y="450" type="curve" smooth="yes"/>
			<point x="64" y="182"/>
			<point x="264" y="-12"/>
			<point x="586" y="-12" type="curve" smooth="yes"/>
			<point x="902" y="-12"/>
			<point x="988" y="200"/>
			<point x="988" y="234" type="curve" smooth="yes"/>
			<point x="988" y="270"/>
			<point x="950" y="270"/>
			<point x="940" y="270" type="curve" smooth="yes"/>
			<point x="906" y="270"/>
			<point x="904" y="260"/>
			<point x="890" y="228" type="curve" smooth="yes"/>
			<point x="848" y="132"/>
			<point x="734" y="68"/>
			<point x="604" y="68" type="curve" smooth="yes"/>
			<point x="511" y="68"/>
			<point x="448" y="97"/>
			<point x="406" y="140" type="curve" smooth="yes"/>
			<point x="321" y="226"/>
			<point x="320" y="368"/>
		</contour>
		<contour>
			<point x="320" y="502" type="line"/>
			<point x="320" y="696"/>
			<point x="388" y="834"/>
			<point x="558" y="834" type="curve" smooth="yes"/>
			<point x="792" y="834"/>
			<point x="796" y="572"/>
			<point x="798" y="502" type="curve"/>
		</contour>
	</outline>
</glyph>
<glyph name="f" format="2">
	<unicode hex="0066"/>
	<advance width="702"/>
	<outline>
		<contour>
			<point x="234" y="94" type="line"/>
			<point x="188" y="94"/>
			<point x="142" y="94"/>
			<point x="96" y="94" type="curve"/>
			<point x="96" y="94" type="line"/>
			<point x="96" y="0" type="line"/>
			<point x="166" y="2"/>
			<point x="256" y="6"/>
			<point x="348" y="6" type="curve" smooth="yes"/>
			<point x="424" y="6"/>
			<point x="552" y="6"/>
			<point x="624" y="0" type="curve"/>
			<point x="624" y="94" type="line"/>
			<point x="624" y="94" type="line"/>
			<point x="566" y="94"/>
			<point x="508" y="94"/>
			<point x="450" y="94" type="curve"/>
			<point x="450" y="794" type="line"/>
			<point x="680" y="794" type="line"/>
			<point x="680" y="888" type="line"/>
			<point x="438" y="888" type="line"/>
			<point x="438" y="1090" type="line" smooth="yes"/>
			<point x="438" y="1310"/>
			<point x="590" y="1328"/>
			<point x="640" y="1328" type="curve" smooth="yes"/>
			<point x="650" y="1328"/>
			<point x="660" y="1328"/>
			<point x="674" y="1324" type="curve"/>
			<point x="644" y="1302"/>
			<point x="628" y="1264"/>
			<point x="628" y="1226" type="curve" smooth="yes"/>
			<point x="628" y="1140"/>
			<point x="698" y="1102"/>
			<point x="750" y="1102" type="curve" smooth="yes"/>
			<point x="810" y="1102"/>
			<point x="874" y="1144"/>
			<point x="874" y="1226" type="curve" smooth="yes"/>
			<point x="874" y="1310"/>
			<point x="802" y="1400"/>
			<point x="646" y="1400" type="curve" smooth="yes"/>
			<point x="450" y="1400"/>
			<point x="234" y="1316"/>
			<point x="234" y="1090" type="curve" smooth="yes"/>
			<point x="234" y="888" type="line"/>
			<point x="84" y="888" type="line"/>
			<point x="84" y="794" type="line"/>
			<point x="234" y="794" type="line"/>
		</contour>
	</outline>
</glyph>
<glyph name="g" format="2">
	<unicode hex="0067"/>
	<advance width="1150"/>
	<outline>
		<contour>
			<point x="574" y="-402" type="curve" smooth="yes"/>
			<point x="928" y="-402"/>
			<point x="1084" y="-284"/>
			<point x="1084" y="-144" type="curve" smooth="yes"/>
			<point x="1084" y="-84"/>
			<point x="1068" y="42"/>
			<point x="934" y="110" type="curve" smooth="yes"/>
			<point x="822" y="166"/>
			<point x="702" y="166"/>
			<point x="510" y="166" type="curve" smooth="yes"/>
			<point x="458" y="166"/>
			<point x="366" y="166"/>
			<point x="356" y="168" type="curve" smooth="yes"/>
			<point x="268" y="182"/>
			<point x="246" y="258"/>
			<point x="246" y="294" type="curve" smooth="yes"/>
			<point x="246" y="314"/>
			<point x="254" y="344"/>
			<point x="266" y="360" type="curve"/>
			<point x="358" y="312"/>
			<point x="460" y="308"/>
			<point x="510" y="308" type="curve" smooth="yes"/>
			<point x="798" y="308"/>
			<point x="908" y="464"/>
			<point x="908" y="604" type="curve" smooth="yes"/>
			<point x="908" y="698"/>
			<point x="858" y="764"/>
			<point x="828" y="796" type="curve"/>
			<point x="888" y="828"/>
			<point x="930" y="832"/>
			<point x="952" y="834" type="curve"/>
			<point x="948" y="824"/>
			<point x="944" y="806"/>
			<point x="944" y="794" type="curve" smooth="yes"/>
			<point x="944" y="744"/>
			<point x="978" y="708"/>
			<point x="1030" y="708" type="curve" smooth="yes"/>
			<point x="1082" y="708"/>
			<point x="1116" y="746"/>
			<point x="1116" y="794" type="curve" smooth="yes"/>
			<point x="1116" y="840"/>
			<point x="1082" y="910"/>
			<point x="990" y="910" type="curve" smooth="yes"/>
			<point x="960" y="910"/>
			<point x="866" y="904"/>
			<point x="778" y="834" type="curve"/>
			<point x="742" y="858"/>
			<point x="658" y="900"/>
			<point x="510" y="900" type="curve" smooth="yes"/>
			<point x="222" y="900"/>
			<point x="112" y="744"/>
			<point x="112" y="604" type="curve" smooth="yes"/>
			<point x="112" y="522"/>
			<point x="152" y="440"/>
			<point x="216" y="394" type="curve"/>
			<point x="160" y="324"/>
			<point x="148" y="258"/>
			<point x="148" y="216" type="curve" smooth="yes"/>
			<point x="148" y="186"/>
			<point x="156" y="88"/>
			<point x="236" y="24" type="curve"/>
			<point x="210" y="18"/>
			<point x="64" y="-24"/>
			<point x="64" y="-150" type="curve" smooth="yes"/>
			<point x="64" y="-252"/>
			<point x="174" y="-402"/>
		</contour>
		<contour>
			<point x="510" y="380" type="curve" smooth="yes"/>
			<point x="334" y="380"/>
			<point x="334" y="514"/>
			<point x="334" y="604" type="curve" smooth="yes"/>
			<point x="334" y="661"/>
			<point x="334" y="736"/>
			<point x="379" y="783" type="curve" smooth="yes"/>
			<point x="405" y="810"/>
			<point x="446" y="828"/>
			<point x="510" y="828" type="curve" smooth="yes"/>
			<point x="686" y="828"/>
			<point x="686" y="694"/>
			<point x="686" y="604" type="curve" smooth="yes"/>
			<point x="686" y="548"/>
			<point x="686" y="474"/>
			<point x="643" y="427" type="curve" smooth="yes"/>
			<point x="617" y="399"/>
			<point x="576" y="380"/>
		</contour>
		<contour>
			<point x="574" y="-330" type="curve" smooth="yes"/>
			<point x="334" y="-330"/>
			<point x="236" y="-238"/>
			<point x="236" y="-146" type="curve" smooth="yes"/>
			<point x="236" y="-109"/>
			<point x="248" y="-83"/>
			<point x="266" y="-65" type="curve" smooth="yes"/>
			<point x="305" y="-26"/>
			<point x="371" y="-26"/>
			<point x="390" y="-26" type="curve" smooth="yes"/>
			<point x="624" y="-26" type="line" smooth="yes"/>
			<point x="686" y="-26"/>
			<point x="912" y="-26"/>
			<point x="912" y="-150" type="curve" smooth="yes"/>
			<point x="912" y="-222"/>
			<point x="834" y="-330"/>
		</contour>
	</outline>
</glyph>
<glyph name="h" format="2">
	<unicode hex="0068"/>
	<advance width="1276"/>
	<outline>
		<contour>
			<point x="228" y="94" type="line"/>
			<point x="182" y="94"/>
			<point x="136" y="94"/>
			<point x="90" y="94" type="curve"/>
			<point x="90" y="94" type="line"/>
			<point x="90" y="0" type="line"/>
			<point x="146" y="2"/>
			<point x="266" y="6"/>
			<point x="342" y="6" type="curve" smooth="yes"/>
			<point x="420" y="6"/>
			<point x="538" y="2"/>
			<point x="594" y="0" type="curve"/>
			<point x="594" y="94" type="line"/>
			<point x="594" y="94" type="line"/>
			<point x="548" y="94"/>
			<point x="502" y="94"/>
			<point x="456" y="94" type="curve"/>
			<point x="456" y="512" type="line" smooth="yes"/>
			<point x="456" y="730"/>
			<point x="628" y="828"/>
			<point x="754" y="828" type="curve" smooth="yes"/>
			<point x="822" y="828"/>
			<point x="864" y="786"/>
			<point x="864" y="634" type="curve" smooth="yes"/>
			<point x="864" y="94" type="line"/>
			<point x="818" y="94"/>
			<point x="772" y="94"/>
			<point x="726" y="94" type="curve"/>
			<point x="726" y="94" type="line"/>
			<point x="726" y="0" type="line"/>
			<point x="782" y="2"/>
			<point x="902" y="6"/>
			<point x="978" y="6" type="curve" smooth="yes"/>
			<point x="1056" y="6"/>
			<point x="1174" y="2"/>
			<point x="1230" y="0" type="curve"/>
			<point x="1230" y="94" type="line"/>
			<point x="1230" y="94" type="line"/>
			<point x="1184" y="94"/>
			<point x="1138" y="94"/>
			<point x="1092" y="94" type="curve"/>
			<point x="1092" y="612" type="line" smooth="yes"/>
			<point x="1092" y="712"/>
			<point x="1068" y="768"/>
			<point x="1020" y="814" type="curve" smooth="yes"/>
			<point x="968" y="864"/>
			<point x="890" y="900"/>
			<point x="784" y="900" type="curve" smooth="yes"/>
			<point x="592" y="900"/>
			<point x="490" y="784"/>
			<point x="444" y="704" type="curve"/>
			<point x="444" y="704" type="line"/>
			<point x="444" y="1388" type="line"/>
			<point x="90" y="1372" type="line"/>
			<point x="90" y="1278" type="line"/>
			<point x="214" y="1278"/>
			<point x="228" y="1278"/>
			<point x="228" y="1200" type="curve" smooth="yes"/>
		</contour>
	</outline>
</glyph>
<glyph name="i" format="2">
	<unicode hex="0069"/>
	<advance width="638"/>
	<outline>
		<contour>
			<point x="232" y="94" type="line"/>
			<point x="186" y="94"/>
			<point x="140" y="94"/>
			<point x="94" y="94" type="curve"/>
			<point x="94" y="94" type="line"/>
			<point x="94" y="0" type="line"/>
			<point x="156" y="2"/>
			<point x="254" y="6"/>
			<point x="338" y="6" type="curve" smooth="yes"/>
			<point x="398" y="6"/>
			<point x="500" y="2"/>
			<point x="572" y="0" type="curve"/>
			<point x="572" y="94" type="line"/>
			<point x="531" y="94"/>
			<point x="489" y="94"/>
			<point x="448" y="94" type="curve"/>
			<point x="448" y="900" type="line"/>
			<point x="100" y="884" type="line"/>
			<point x="100" y="790" type="line"/>
			<point x="218" y="790"/>
			<point x="232" y="790"/>
			<point x="232" y="712" type="curve" smooth="yes"/>
		</contour>
		<contour>
			<point x="468" y="1234" type="curve" smooth="yes"/>
			<point x="468" y="1322"/>
			<point x="396" y="1390"/>
			<point x="312" y="1390" type="curve" smooth="yes"/>
			<point x="226" y="1390"/>
			<point x="156" y="1320"/>
			<point x="156" y="1234" type="curve" smooth="yes"/>
			<point x="156" y="1148"/>
			<point x="226" y="1078"/>
			<point x="312" y="1078" type="curve" smooth="yes"/>
			<point x="396" y="1078"/>
			<point x="468" y="1146"/>
		</contour>
	</outline>
</glyph>
<glyph name="j" format="2">
	<unicode hex="006A"/>
	<advance width="702"/>
	<outline>
		<contour>
			<point x="318" y="710" type="curve" smooth="yes"/>
			<point x="318" y="-84" type="line" smooth="yes"/>
			<point x="318" y="-184"/>
			<point x="288" y="-328"/>
			<point x="168" y="-328" type="curve" smooth="yes"/>
			<point x="136" y="-328"/>
			<point x="120" y="-324"/>
			<point x="90" y="-316" type="curve"/>
			<point x="128" y="-288"/>
			<point x="138" y="-246"/>
			<point x="138" y="-216" type="curve" smooth="yes"/>
			<point x="138" y="-146"/>
			<point x="86" y="-92"/>
			<point x="14" y="-92" type="curve" smooth="yes"/>
			<point x="-62" y="-92"/>
			<point x="-112" y="-146"/>
			<point x="-112" y="-218" type="curve" smooth="yes"/>
			<point x="-112" y="-332"/>
			<point x="8" y="-400"/>
			<point x="172" y="-400" type="curve" smooth="yes"/>
			<point x="344" y="-400"/>
			<point x="534" y="-296"/>
			<point x="534" y="-84" type="curve" smooth="yes"/>
			<point x="534" y="900" type="line"/>
			<point x="166" y="884" type="line"/>
			<point x="166" y="790" type="line"/>
			<point x="316" y="790"/>
			<point x="318" y="780"/>
		</contour>
		<contour>
			<point x="534" y="1234" type="curve" smooth="yes"/>
			<point x="534" y="1320"/>
			<point x="464" y="1390"/>
			<point x="378" y="1390" type="curve" smooth="yes"/>
			<point x="292" y="1390"/>
			<point x="222" y="1320"/>
			<point x="222" y="1234" type="curve" smooth="yes"/>
			<point x="222" y="1148"/>
			<point x="292" y="1078"/>
			<point x="378" y="1078" type="curve" smooth="yes"/>
			<point x="464" y="1078"/>
			<point x="534" y="1148"/>
		</contour>
	</outline>
</glyph>
<glyph name="k" format="2">
  <advance width="606"/>
  <unicode hex="006B"/>
  <outline>
    <contour>
      <point x="342" y="278" type="line"/>
      <point x="472" y="379" type="line" smooth="yes"/>
      <point x="486" y="390"/>
      <point x="495" y="397"/>
      <point x="562" y="397" type="curve"/>
      <point x="562" y="444" type="line"/>
      <point x="535" y="441"/>
      <point x="510" y="441"/>
      <point x="484" y="441" type="curve" smooth="yes"/>
      <point x="457" y="441"/>
      <point x="392" y="443"/>
      <point x="369" y="444" type="curve"/>
      <point x="369" y="397" type="line"/>
      <point x="392" y="397"/>
      <point x="395" y="394"/>
      <point x="403" y="386" type="curve"/>
      <point x="403.0" y="386.0"/>
      <point x="403.0" y="386.0"/>
      <point x="403" y="386" type="curve"/>
      <point x="214" y="237" type="line"/>
      <point x="214" y="694" type="line"/>
      <point x="37" y="686" type="line"/>
      <point x="37" y="639" type="line"/>
      <point x="99" y="639"/>
      <point x="106" y="639"/>
      <point x="106" y="600" type="curve" smooth="yes"/>
      <point x="106" y="47" type="line"/>
      <point x="106.0" y="47.0"/>
      <point x="106.0" y="47.0"/>
      <point x="106" y="47" type="curve"/>
      <point x="37" y="47" type="line"/>
      <point x="37" y="0" type="line"/>
      <point x="74" y="1"/>
      <point x="121" y="3"/>
      <point x="157" y="3" type="curve" smooth="yes"/>
      <point x="194" y="3"/>
      <point x="242" y="1"/>
      <point x="278" y="0" type="curve"/>
      <point x="278" y="47" type="line"/>
      <point x="209" y="47" type="line"/>
      <point x="209.0" y="47.0"/>
      <point x="209.0" y="47.0"/>
      <point x="209" y="47" type="curve"/>
      <point x="209" y="174" type="line"/>
      <point x="227.981" y="188.319"/>
      <point x="246.962" y="202.638"/>
      <point x="266" y="217" type="curve"/>
      <point x="367" y="91" type="line" smooth="yes"/>
      <point x="376" y="79"/>
      <point x="392" y="59"/>
      <point x="392" y="56" type="curve" smooth="yes"/>
      <point x="392" y="47"/>
      <point x="374" y="47"/>
      <point x="361" y="47" type="curve"/>
      <point x="361" y="0" type="line"/>
      <point x="391" y="2"/>
      <point x="478" y="3"/>
      <point x="483" y="3" type="curve" smooth="yes"/>
      <point x="519" y="3"/>
      <point x="553" y="2"/>
      <point x="587" y="0" type="curve"/>
      <point x="587" y="47" type="line"/>
      <point x="527" y="47"/>
      <point x="525" y="49"/>
      <point x="511" y="67" type="curve" smooth="yes"/>
    </contour>
  </outline>
</glyph>
<glyph name="l" format="2">
	<unicode hex="006C"/>
	<advance width="638"/>
	<outline>
		<contour>
			<point x="448" y="1388" type="line"/>
			<point x="94" y="1372" type="line"/>
			<point x="94" y="1278" type="line"/>
			<point x="218" y="1278"/>
			<point x="232" y="1278"/>
			<point x="232" y="1200" type="curve" smooth="yes"/>
			<point x="232" y="94" type="line"/>
			<point x="186" y="94"/>
			<point x="140" y="94"/>
			<point x="94" y="94" type="curve"/>
			<point x="94" y="94" type="line"/>
			<point x="94" y="0" type="line"/>
			<point x="158" y="2"/>
			<point x="254" y="6"/>
			<point x="340" y="6" type="curve" smooth="yes"/>
			<point x="426" y="6"/>
			<point x="518" y="2"/>
			<point x="586" y="0" type="curve"/>
			<point x="586" y="94" type="line"/>
			<point x="586" y="94" type="line"/>
			<point x="540" y="94"/>
			<point x="494" y="94"/>
			<point x="448" y="94" type="curve"/>
		</contour>
	</outline>
</glyph>
<glyph name="m" format="2">
	<unicode hex="006D"/>
	<advance width="1916"/>
	<outline>
		<contour>
			<point x="228" y="94" type="line"/>
			<point x="182" y="94"/>
			<point x="136" y="94"/>
			<point x="90" y="94" type="curve"/>
			<point x="90" y="94" type="line"/>
			<point x="90" y="0" type="line"/>
			<point x="146" y="2"/>
			<point x="266" y="6"/>
			<point x="342" y="6" type="curve" smooth="yes"/>
			<point x="420" y="6"/>
			<point x="538" y="2"/>
			<point x="594" y="0" type="curve"/>
			<point x="594" y="94" type="line"/>
			<point x="594" y="94" type="line"/>
			<point x="548" y="94"/>
			<point x="502" y="94"/>
			<point x="456" y="94" type="curve"/>
			<point x="456" y="512" type="line" smooth="yes"/>
			<point x="456" y="730"/>
			<point x="630" y="828"/>
			<point x="754" y="828" type="curve" smooth="yes"/>
			<point x="822" y="828"/>
			<point x="866" y="788"/>
			<point x="866" y="634" type="curve" smooth="yes"/>
			<point x="866" y="94" type="line"/>
			<point x="820" y="94"/>
			<point x="774" y="94"/>
			<point x="728" y="94" type="curve"/>
			<point x="728" y="94" type="line"/>
			<point x="728" y="0" type="line"/>
			<point x="784" y="2"/>
			<point x="904" y="6"/>
			<point x="980" y="6" type="curve" smooth="yes"/>
			<point x="1058" y="6"/>
			<point x="1176" y="2"/>
			<point x="1232" y="0" type="curve"/>
			<point x="1232" y="94" type="line"/>
			<point x="1232" y="94" type="line"/>
			<point x="1186" y="94"/>
			<point x="1140" y="94"/>
			<point x="1094" y="94" type="curve"/>
			<point x="1094" y="512" type="line" smooth="yes"/>
			<point x="1094" y="730"/>
			<point x="1268" y="828"/>
			<point x="1392" y="828" type="curve" smooth="yes"/>
			<point x="1460" y="828"/>
			<point x="1504" y="788"/>
			<point x="1504" y="634" type="curve" smooth="yes"/>
			<point x="1504" y="94" type="line"/>
			<point x="1458" y="94"/>
			<point x="1412" y="94"/>
			<point x="1366" y="94" type="curve"/>
			<point x="1366" y="94" type="line"/>
			<point x="1366" y="0" type="line"/>
			<point x="1422" y="2"/>
			<point x="1542" y="6"/>
			<point x="1618" y="6" type="curve" smooth="yes"/>
			<point x="1696" y="6"/>
			<point x="1814" y="2"/>
			<point x="1870" y="0" type="curve"/>
			<point x="1870" y="94" type="line"/>
			<point x="1870" y="94" type="line"/>
			<point x="1824" y="94"/>
			<point x="1778" y="94"/>
			<point x="1732" y="94" type="curve"/>
			<point x="1732" y="612" type="line" smooth="yes"/>
			<point x="1732" y="710"/>
			<point x="1710" y="780"/>
			<point x="1664" y="826" type="curve" smooth="yes"/>
			<point x="1612" y="878"/>
			<point x="1532" y="900"/>
			<point x="1424" y="900" type="curve" smooth="yes"/>
			<point x="1242" y="900"/>
			<point x="1138" y="800"/>
			<point x="1086" y="708" type="curve"/>
			<point x="1046" y="894"/>
			<point x="862" y="900"/>
			<point x="786" y="900" type="curve" smooth="yes"/>
			<point x="612" y="900"/>
			<point x="498" y="810"/>
			<point x="434" y="684" type="curve"/>
			<point x="434" y="684" type="line"/>
			<point x="434" y="900" type="line"/>
			<point x="90" y="884" type="line"/>
			<point x="90" y="790" type="line"/>
			<point x="214" y="790"/>
			<point x="228" y="790"/>
			<point x="228" y="712" type="curve" smooth="yes"/>
		</contour>
	</outline>
</glyph>
<glyph name="n" format="2">
	<unicode hex="006E"/>
	<advance width="1276"/>
	<outline>
		<contour>
			<point x="228" y="94" type="line"/>
			<point x="182" y="94"/>
			<point x="136" y="94"/>
			<point x="90" y="94" type="curve"/>
			<point x="90" y="94" type="line"/>
			<point x="90" y="0" type="line"/>
			<point x="146" y="2"/>
			<point x="266" y="6"/>
			<point x="342" y="6" type="curve" smooth="yes"/>
			<point x="420" y="6"/>
			<point x="538" y="2"/>
			<point x="594" y="0" type="curve"/>
			<point x="594" y="94" type="line"/>
			<point x="594" y="94" type="line"/>
			<point x="548" y="94"/>
			<point x="502" y="94"/>
			<point x="456" y="94" type="curve"/>
			<point x="456" y="512" type="line" smooth="yes"/>
			<point x="456" y="730"/>
			<point x="628" y="828"/>
			<point x="754" y="828" type="curve" smooth="yes"/>
			<point x="822" y="828"/>
			<point x="864" y="786"/>
			<point x="864" y="634" type="curve" smooth="yes"/>
			<point x="864" y="94" type="line"/>
			<point x="818" y="94"/>
			<point x="772" y="94"/>
			<point x="726" y="94" type="curve"/>
			<point x="726" y="94" type="line"/>
			<point x="726" y="0" type="line"/>
			<point x="782" y="2"/>
			<point x="902" y="6"/>
			<point x="978" y="6" type="curve" smooth="yes"/>
			<point x="1056" y="6"/>
			<point x="1174" y="2"/>
			<point x="1230" y="0" type="curve"/>
			<point x="1230" y="94" type="line"/>
			<point x="1230" y="94" type="line"/>
			<point x="1184" y="94"/>
			<point x="1138" y="94"/>
			<point x="1092" y="94" type="curve"/>
			<point x="1092" y="612" type="line" smooth="yes"/>
			<point x="1092" y="710"/>
			<point x="1068" y="780"/>
			<point x="1022" y="826" type="curve" smooth="yes"/>
			<point x="970" y="878"/>
			<point x="890" y="900"/>
			<point x="784" y="900" type="curve" smooth="yes"/>
			<point x="592" y="900"/>
			<point x="486" y="786"/>
			<point x="434" y="684" type="curve"/>
			<point x="434" y="684" type="line"/>
			<point x="434" y="900" type="line"/>
			<point x="90" y="884" type="line"/>
			<point x="90" y="790" type="line"/>
			<point x="214" y="790"/>
			<point x="228" y="790"/>
			<point x="228" y="712" type="curve" smooth="yes"/>
		</contour>
	</outline>
</glyph>
<glyph name="o" format="2">
	<unicode hex="006F"/>
	<advance width="1150"/>
	<outline>
		<contour>
			<point x="1084" y="436" type="curve" smooth="yes"/>
			<point x="1084" y="704"/>
			<point x="900" y="906"/>
			<point x="574" y="906" type="curve" smooth="yes"/>
			<point x="246" y="906"/>
			<point x="64" y="702"/>
			<point x="64" y="436" type="curve" smooth="yes"/>
			<point x="64" y="188"/>
			<point x="240" y="-12"/>
			<point x="574" y="-12" type="curve" smooth="yes"/>
			<point x="910" y="-12"/>
			<point x="1084" y="190"/>
		</contour>
		<contour>
			<point x="574" y="68" type="curve" smooth="yes"/>
			<point x="490" y="68"/>
			<point x="434" y="92"/>
			<point x="396" y="130" type="curve" smooth="yes"/>
			<point x="320" y="206"/>
			<point x="320" y="342"/>
			<point x="320" y="458" type="curve" smooth="yes"/>
			<point x="320" y="548"/>
			<point x="320" y="650"/>
			<point x="354" y="718" type="curve" smooth="yes"/>
			<point x="392" y="792"/>
			<point x="476" y="834"/>
			<point x="574" y="834" type="curve" smooth="yes"/>
			<point x="658" y="834"/>
			<point x="742" y="802"/>
			<point x="786" y="732" type="curve" smooth="yes"/>
			<point x="828" y="664"/>
			<point x="828" y="554"/>
			<point x="828" y="458" type="curve" smooth="yes"/>
			<point x="828" y="342"/>
			<point x="828" y="206"/>
			<point x="752" y="130" type="curve" smooth="yes"/>
			<point x="714" y="92"/>
			<point x="658" y="68"/>
		</contour>
	</outline>
</glyph>
<glyph name="p" format="2">
	<unicode hex="0070"/>
	<advance width="1276"/>
	<outline>
		<contour>
			<point x="74" y="790" type="line"/>
			<point x="74" y="790" type="line"/>
			<point x="198" y="790"/>
			<point x="212" y="790"/>
			<point x="212" y="714" type="curve" smooth="yes"/>
			<point x="212" y="-294" type="line"/>
			<point x="166" y="-294"/>
			<point x="120" y="-294"/>
			<point x="74" y="-294" type="curve"/>
			<point x="74" y="-294" type="line"/>
			<point x="74" y="-388" type="line"/>
			<point x="130" y="-386"/>
			<point x="250" y="-382"/>
			<point x="326" y="-382" type="curve" smooth="yes"/>
			<point x="404" y="-382"/>
			<point x="522" y="-386"/>
			<point x="578" y="-388" type="curve"/>
			<point x="578" y="-294" type="line"/>
			<point x="532" y="-294"/>
			<point x="486" y="-294"/>
			<point x="440" y="-294" type="curve"/>
			<point x="440" y="78" type="line"/>
			<point x="526" y="8"/>
			<point x="614" y="-12"/>
			<point x="696" y="-12" type="curve" smooth="yes"/>
			<point x="996" y="-12"/>
			<point x="1200" y="168"/>
			<point x="1200" y="446" type="curve" smooth="yes"/>
			<point x="1200" y="712"/>
			<point x="1018" y="900"/>
			<point x="730" y="900" type="curve" smooth="yes"/>
			<point x="580" y="900"/>
			<point x="474" y="838"/>
			<point x="428" y="802" type="curve"/>
			<point x="428" y="900" type="line"/>
			<point x="74" y="884" type="line"/>
		</contour>
		<contour>
			<point x="944" y="446" type="curve" smooth="yes"/>
			<point x="944" y="164"/>
			<point x="804" y="60"/>
			<point x="674" y="60" type="curve" smooth="yes"/>
			<point x="646" y="60"/>
			<point x="552" y="60"/>
			<point x="462" y="168" type="curve" smooth="yes"/>
			<point x="440" y="194"/>
			<point x="440" y="196"/>
			<point x="440" y="234" type="curve" smooth="yes"/>
			<point x="440" y="658" type="line" smooth="yes"/>
			<point x="440" y="696"/>
			<point x="442" y="698"/>
			<point x="470" y="726" type="curve" smooth="yes"/>
			<point x="550" y="808"/>
			<point x="654" y="820"/>
			<point x="698" y="820" type="curve" smooth="yes"/>
			<point x="832" y="820"/>
			<point x="944" y="698"/>
		</contour>
	</outline>
</glyph>
<glyph name="q" format="2">
	<unicode hex="0071"/>
	<advance width="1212"/>
	<outline>
		<contour>
			<point x="76" y="444" type="curve" smooth="yes"/>
			<point x="76" y="162"/>
			<point x="278" y="-12"/>
			<point x="556" y="-12" type="curve" smooth="yes"/>
			<point x="654" y="-12"/>
			<point x="744" y="16"/>
			<point x="836" y="96" type="curve"/>
			<point x="836" y="-294" type="line"/>
			<point x="790" y="-294"/>
			<point x="744" y="-294"/>
			<point x="698" y="-294" type="curve"/>
			<point x="698" y="-294" type="line"/>
			<point x="698" y="-388" type="line"/>
			<point x="754" y="-386"/>
			<point x="874" y="-382"/>
			<point x="950" y="-382" type="curve" smooth="yes"/>
			<point x="1028" y="-382"/>
			<point x="1146" y="-386"/>
			<point x="1202" y="-388" type="curve"/>
			<point x="1202" y="-294" type="line"/>
			<point x="1202" y="-294" type="line"/>
			<point x="1156" y="-294"/>
			<point x="1110" y="-294"/>
			<point x="1064" y="-294" type="curve"/>
			<point x="1064" y="900" type="line"/>
			<point x="982" y="900" type="line"/>
			<point x="876" y="742" type="line"/>
			<point x="806" y="840"/>
			<point x="694" y="900"/>
			<point x="574" y="900" type="curve" smooth="yes"/>
			<point x="282" y="900"/>
			<point x="76" y="722"/>
		</contour>
		<contour>
			<point x="332" y="442" type="curve" smooth="yes"/>
			<point x="332" y="726"/>
			<point x="480" y="820"/>
			<point x="600" y="820" type="curve" smooth="yes"/>
			<point x="752" y="820"/>
			<point x="848" y="662"/>
			<point x="848" y="562" type="curve" smooth="yes"/>
			<point x="848" y="284" type="line" smooth="yes"/>
			<point x="848" y="248"/>
			<point x="848" y="242"/>
			<point x="818" y="200" type="curve" smooth="yes"/>
			<point x="738" y="82"/>
			<point x="636" y="60"/>
			<point x="576" y="60" type="curve" smooth="yes"/>
			<point x="452" y="60"/>
			<point x="332" y="176"/>
		</contour>
	</outline>
</glyph>
<glyph name="r" format="2">
	<unicode hex="0072"/>
	<advance width="946"/>
	<outline>
		<contour>
			<point x="212" y="94" type="line"/>
			<point x="212" y="94"/>
			<point x="212" y="94"/>
			<point x="212" y="94" type="curve"/>
			<point x="74" y="94" type="line"/>
			<point x="74" y="0" type="line"/>
			<point x="144" y="2"/>
			<point x="234" y="6"/>
			<point x="326" y="6" type="curve" smooth="yes"/>
			<point x="402" y="6"/>
			<point x="530" y="6"/>
			<point x="602" y="0" type="curve"/>
			<point x="602" y="94" type="line"/>
			<point x="428" y="94" type="line"/>
			<point x="428" y="94"/>
			<point x="428" y="94"/>
			<point x="428" y="94" type="curve"/>
			<point x="428" y="444" type="line" smooth="yes"/>
			<point x="428" y="584"/>
			<point x="478" y="828"/>
			<point x="678" y="828" type="curve"/>
			<point x="678" y="828"/>
			<point x="678" y="828"/>
			<point x="678" y="828" type="curve"/>
			<point x="676" y="826"/>
			<point x="640" y="794"/>
			<point x="640" y="736" type="curve" smooth="yes"/>
			<point x="640" y="654"/>
			<point x="704" y="614"/>
			<point x="762" y="614" type="curve" smooth="yes"/>
			<point x="820" y="614"/>
			<point x="884" y="656"/>
			<point x="884" y="736" type="curve" smooth="yes"/>
			<point x="884" y="842"/>
			<point x="776" y="900"/>
			<point x="672" y="900" type="curve" smooth="yes"/>
			<point x="532" y="900"/>
			<point x="452" y="800"/>
			<point x="406" y="674" type="curve"/>
			<point x="406" y="674" type="line"/>
			<point x="406" y="900" type="line"/>
			<point x="74" y="884" type="line"/>
			<point x="74" y="790" type="line"/>
			<point x="198" y="790"/>
			<point x="212" y="790"/>
			<point x="212" y="712" type="curve" smooth="yes"/>
		</contour>
	</outline>
</glyph>
<glyph name="s" format="2">
	<unicode hex="0073"/>
	<advance width="906"/>
	<outline>
		<contour>
			<point x="830" y="280" type="curve" smooth="yes"/>
			<point x="830" y="366"/>
			<point x="790" y="436"/>
			<point x="720" y="492" type="curve" smooth="yes"/>
			<point x="642" y="550"/>
			<point x="578" y="562"/>
			<point x="422" y="588" type="curve" smooth="yes"/>
			<point x="348" y="602"/>
			<point x="218" y="624"/>
			<point x="218" y="718" type="curve" smooth="yes"/>
			<point x="218" y="842"/>
			<point x="404" y="842"/>
			<point x="442" y="842" type="curve" smooth="yes"/>
			<point x="592" y="842"/>
			<point x="668" y="784"/>
			<point x="678" y="674" type="curve" smooth="yes"/>
			<point x="680" y="644"/>
			<point x="682" y="634"/>
			<point x="724" y="634" type="curve" smooth="yes"/>
			<point x="772" y="634"/>
			<point x="772" y="644"/>
			<point x="772" y="690" type="curve" smooth="yes"/>
			<point x="772" y="850" type="line" smooth="yes"/>
			<point x="772" y="888"/>
			<point x="772" y="906"/>
			<point x="736" y="906" type="curve" smooth="yes"/>
			<point x="728" y="906"/>
			<point x="724" y="906"/>
			<point x="646" y="868" type="curve"/>
			<point x="646" y="868"/>
			<point x="646" y="868"/>
			<point x="646" y="868" type="curve"/>
			<point x="594" y="894"/>
			<point x="524" y="906"/>
			<point x="444" y="906" type="curve" smooth="yes"/>
			<point x="384" y="906"/>
			<point x="76" y="906"/>
			<point x="76" y="644" type="curve" smooth="yes"/>
			<point x="76" y="564"/>
			<point x="116" y="510"/>
			<point x="156" y="476" type="curve" smooth="yes"/>
			<point x="236" y="406"/>
			<point x="312" y="394"/>
			<point x="466" y="366" type="curve" smooth="yes"/>
			<point x="517" y="358"/>
			<point x="606" y="342"/>
			<point x="654" y="293" type="curve" smooth="yes"/>
			<point x="675" y="272"/>
			<point x="688" y="245"/>
			<point x="688" y="210" type="curve" smooth="yes"/>
			<point x="688" y="60"/>
			<point x="504" y="60"/>
			<point x="460" y="60" type="curve" smooth="yes"/>
			<point x="248" y="60"/>
			<point x="198" y="206"/>
			<point x="172" y="292" type="curve" smooth="yes"/>
			<point x="164" y="320"/>
			<point x="152" y="320"/>
			<point x="124" y="320" type="curve" smooth="yes"/>
			<point x="76" y="320"/>
			<point x="76" y="308"/>
			<point x="76" y="262" type="curve" smooth="yes"/>
			<point x="76" y="44" type="line" smooth="yes"/>
			<point x="76" y="6"/>
			<point x="76" y="-12"/>
			<point x="112" y="-12" type="curve" smooth="yes"/>
			<point x="126" y="-12"/>
			<point x="130" y="-12"/>
			<point x="172" y="18" type="curve"/>
			<point x="174" y="18"/>
			<point x="218" y="48"/>
			<point x="224" y="52" type="curve"/>
			<point x="316" y="-12"/>
			<point x="420" y="-12"/>
			<point x="460" y="-12" type="curve" smooth="yes"/>
			<point x="522" y="-12"/>
			<point x="830" y="-12"/>
		</contour>
	</outline>
</glyph>
<glyph name="t" format="2">
	<unicode hex="0074"/>
	<advance width="894"/>
	<outline>
		<contour>
			<point x="434" y="794" type="line"/>
			<point x="726" y="794" type="line"/>
			<point x="726" y="888" type="line"/>
			<point x="434" y="888" type="line"/>
			<point x="434" y="1270" type="line"/>
			<point x="340" y="1270" type="line"/>
			<point x="338" y="1070"/>
			<point x="240" y="872"/>
			<point x="42" y="866" type="curve"/>
			<point x="42" y="794" type="line"/>
			<point x="206" y="794" type="line"/>
			<point x="206" y="246" type="line" smooth="yes"/>
			<point x="206" y="32"/>
			<point x="380" y="-12"/>
			<point x="522" y="-12" type="curve" smooth="yes"/>
			<point x="674" y="-12"/>
			<point x="764" y="102"/>
			<point x="764" y="248" type="curve" smooth="yes"/>
			<point x="764" y="354" type="line"/>
			<point x="670" y="354" type="line"/>
			<point x="670" y="252" type="line" smooth="yes"/>
			<point x="670" y="116"/>
			<point x="606" y="68"/>
			<point x="550" y="68" type="curve" smooth="yes"/>
			<point x="434" y="68"/>
			<point x="434" y="196"/>
			<point x="434" y="242" type="curve" smooth="yes"/>
		</contour>
	</outline>
</glyph>
<glyph name="u" format="2">
	<unicode hex="0075"/>
	<advance width="1276"/>
	<outline>
		<contour>
			<point x="228" y="712" type="curve" smooth="yes"/>
			<point x="228" y="246" type="line" smooth="yes"/>
			<point x="228" y="165"/>
			<point x="251" y="109"/>
			<point x="291" y="69" type="curve" smooth="yes"/>
			<point x="356" y="5"/>
			<point x="465" y="-12"/>
			<point x="588" y="-12" type="curve" smooth="yes"/>
			<point x="640" y="-12"/>
			<point x="784" y="-12"/>
			<point x="876" y="144" type="curve"/>
			<point x="876" y="144" type="line"/>
			<point x="876" y="-12" type="line"/>
			<point x="1230" y="0" type="line"/>
			<point x="1230" y="94" type="line"/>
			<point x="1106" y="94"/>
			<point x="1092" y="94"/>
			<point x="1092" y="172" type="curve" smooth="yes"/>
			<point x="1092" y="900" type="line"/>
			<point x="726" y="884" type="line"/>
			<point x="726" y="790" type="line"/>
			<point x="850" y="790"/>
			<point x="864" y="790"/>
			<point x="864" y="712" type="curve" smooth="yes"/>
			<point x="864" y="330" type="line" smooth="yes"/>
			<point x="864" y="166"/>
			<point x="762" y="60"/>
			<point x="616" y="60" type="curve" smooth="yes"/>
			<point x="462" y="60"/>
			<point x="456" y="110"/>
			<point x="456" y="218" type="curve" smooth="yes"/>
			<point x="456" y="900" type="line"/>
			<point x="90" y="884" type="line"/>
			<point x="90" y="790" type="line"/>
			<point x="214" y="790"/>
			<point x="228" y="790"/>
		</contour>
	</outline>
</glyph>
<glyph name="v" format="2">
	<unicode hex="0076"/>
	<advance width="1212"/>
	<outline>
		<contour>
			<point x="606" y="-8" type="curve" smooth="yes"/>
			<point x="640" y="-8"/>
			<point x="660" y="-2"/>
			<point x="680" y="40" type="curve" smooth="yes"/>
			<point x="791" y="277"/>
			<point x="901" y="514"/>
			<point x="1012" y="752" type="curve" smooth="yes"/>
			<point x="1024" y="780"/>
			<point x="1032" y="794"/>
			<point x="1160" y="794" type="curve"/>
			<point x="1160" y="825"/>
			<point x="1160" y="857"/>
			<point x="1160" y="888" type="curve"/>
			<point x="1110" y="884"/>
			<point x="1052" y="882"/>
			<point x="1002" y="882" type="curve" smooth="yes"/>
			<point x="952" y="882"/>
			<point x="862" y="886"/>
			<point x="820" y="888" type="curve"/>
			<point x="820" y="857"/>
			<point x="820" y="825"/>
			<point x="820" y="794" type="curve"/>
			<point x="858" y="794"/>
			<point x="916" y="788"/>
			<point x="916" y="772" type="curve" smooth="yes"/>
			<point x="916" y="770"/>
			<point x="914" y="766"/>
			<point x="906" y="748" type="curve" smooth="yes"/>
			<point x="829" y="582"/>
			<point x="751" y="415"/>
			<point x="674" y="248" type="curve"/>
			<point x="589" y="430"/>
			<point x="505" y="612"/>
			<point x="420" y="794" type="curve"/>
			<point x="420" y="794"/>
			<point x="420" y="794"/>
			<point x="420" y="794" type="curve"/>
			<point x="456" y="794"/>
			<point x="492" y="794"/>
			<point x="528" y="794" type="curve"/>
			<point x="528" y="825"/>
			<point x="528" y="857"/>
			<point x="528" y="888" type="curve"/>
			<point x="462" y="884"/>
			<point x="282" y="882"/>
			<point x="280" y="882" type="curve" smooth="yes"/>
			<point x="224" y="882"/>
			<point x="134" y="886"/>
			<point x="52" y="888" type="curve"/>
			<point x="52" y="857"/>
			<point x="52" y="825"/>
			<point x="52" y="794" type="curve"/>
			<point x="95" y="794"/>
			<point x="137" y="794"/>
			<point x="180" y="794" type="curve"/>
			<point x="297" y="544"/>
			<point x="413" y="293"/>
			<point x="530" y="42" type="curve" smooth="yes"/>
			<point x="554" y="-8"/>
			<point x="580" y="-8"/>
		</contour>
	</outline>
</glyph>
<glyph name="w" format="2">
  <advance width="830"/>
  <unicode hex="0077"/>
  <outline>
    <contour>
      <point x="737" y="376" type="line" smooth="yes"/>
      <point x="742" y="389"/>
      <point x="746" y="397"/>
      <point x="805" y="397" type="curve"/>
      <point x="805.0" y="412.651"/>
      <point x="805.0" y="428.302"/>
      <point x="805" y="444" type="curve"/>
      <point x="782" y="442"/>
      <point x="752" y="441"/>
      <point x="728" y="441" type="curve" smooth="yes"/>
      <point x="701" y="441"/>
      <point x="654" y="443"/>
      <point x="632" y="444" type="curve"/>
      <point x="632.0" y="428.349"/>
      <point x="632.0" y="412.698"/>
      <point x="632" y="397" type="curve"/>
      <point x="641" y="397"/>
      <point x="690" y="396"/>
      <point x="690" y="385" type="curve" smooth="yes"/>
      <point x="690" y="382"/>
      <point x="687" y="376"/>
      <point x="686" y="373" type="curve" smooth="yes"/>
      <point x="581" y="117" type="line"/>
      <point x="467" y="397" type="line"/>
      <point x="467.0" y="397.0"/>
      <point x="467.0" y="397.0"/>
      <point x="467" y="397" type="curve"/>
      <point x="485.648" y="397.0"/>
      <point x="504.296" y="397.0"/>
      <point x="523" y="397" type="curve"/>
      <point x="523" y="444" type="line"/>
      <point x="491" y="443"/>
      <point x="439" y="441"/>
      <point x="409" y="441" type="curve" smooth="yes"/>
      <point x="367" y="441"/>
      <point x="325" y="443"/>
      <point x="309" y="444" type="curve"/>
      <point x="309" y="397" type="line"/>
      <point x="328.647" y="397.0"/>
      <point x="348.294" y="397.0"/>
      <point x="368" y="397" type="curve"/>
      <point x="382" y="363"/>
      <point x="390" y="343"/>
      <point x="390" y="343" type="curve"/>
      <point x="306" y="139" type="line"/>
      <point x="201" y="397" type="line"/>
      <point x="201.0" y="397.0"/>
      <point x="201.0" y="397.0"/>
      <point x="201" y="397" type="curve"/>
      <point x="219.648" y="397.0"/>
      <point x="238.296" y="397.0"/>
      <point x="257" y="397" type="curve"/>
      <point x="257" y="444" type="line"/>
      <point x="216" y="442"/>
      <point x="175" y="441"/>
      <point x="134" y="441" type="curve" smooth="yes"/>
      <point x="103" y="441"/>
      <point x="59" y="443"/>
      <point x="25" y="444" type="curve"/>
      <point x="25" y="397" type="line"/>
      <point x="44.647000000000006" y="397.0"/>
      <point x="64.29400000000001" y="397.0"/>
      <point x="84" y="397" type="curve"/>
      <point x="237" y="23" type="line" smooth="yes"/>
      <point x="244" y="6"/>
      <point x="248" y="-4"/>
      <point x="273" y="-4" type="curve" smooth="yes"/>
      <point x="298" y="-4"/>
      <point x="302" y="6"/>
      <point x="309" y="23" type="curve" smooth="yes"/>
      <point x="415" y="282" type="line"/>
      <point x="521" y="23" type="line" smooth="yes"/>
      <point x="528" y="6"/>
      <point x="532" y="-4"/>
      <point x="557" y="-4" type="curve" smooth="yes"/>
      <point x="582" y="-4"/>
      <point x="586" y="6"/>
      <point x="593" y="23" type="curve" smooth="yes"/>
    </contour>
  </outline>
</glyph>
<glyph name="x" format="2">
	<unicode hex="0078"/>
	<advance width="1212"/>
	<outline>
		<contour>
			<point x="508" y="426" type="line"/>
			<point x="246" y="132" type="line" smooth="yes"/>
			<point x="212" y="94"/>
			<point x="140" y="94"/>
			<point x="44" y="94" type="curve"/>
			<point x="44" y="0" type="line"/>
			<point x="114" y="4"/>
			<point x="218" y="6"/>
			<point x="228" y="6" type="curve" smooth="yes"/>
			<point x="278" y="6"/>
			<point x="394" y="2"/>
			<point x="434" y="0" type="curve"/>
			<point x="434" y="94" type="line"/>
			<point x="398" y="94"/>
			<point x="360" y="104"/>
			<point x="360" y="116" type="curve" smooth="yes"/>
			<point x="360" y="118"/>
			<point x="360" y="120"/>
			<point x="374" y="136" type="curve" smooth="yes"/>
			<point x="439" y="209"/>
			<point x="503" y="281"/>
			<point x="568" y="354" type="curve"/>
			<point x="788" y="94" type="line"/>
			<point x="788" y="94"/>
			<point x="788" y="94"/>
			<point x="788" y="94" type="curve"/>
			<point x="762" y="94"/>
			<point x="736" y="94"/>
			<point x="710" y="94" type="curve"/>
			<point x="710" y="0" type="line"/>
			<point x="762" y="2"/>
			<point x="884" y="6"/>
			<point x="950" y="6" type="curve" smooth="yes"/>
			<point x="1014" y="6"/>
			<point x="1104" y="2"/>
			<point x="1170" y="0" type="curve"/>
			<point x="1170" y="94" type="line"/>
			<point x="1123" y="94"/>
			<point x="1075" y="94"/>
			<point x="1028" y="94" type="curve"/>
			<point x="692" y="492" type="line"/>
			<point x="926" y="752" type="line" smooth="yes"/>
			<point x="952" y="780"/>
			<point x="964" y="794"/>
			<point x="1130" y="794" type="curve"/>
			<point x="1130" y="888" type="line"/>
			<point x="1060" y="884"/>
			<point x="956" y="882"/>
			<point x="946" y="882" type="curve" smooth="yes"/>
			<point x="896" y="882"/>
			<point x="796" y="886"/>
			<point x="740" y="888" type="curve"/>
			<point x="740" y="794" type="line"/>
			<point x="768" y="794"/>
			<point x="792" y="790"/>
			<point x="816" y="776" type="curve"/>
			<point x="814" y="772"/>
			<point x="808" y="762"/>
			<point x="800" y="752" type="curve" smooth="yes"/>
			<point x="632" y="564" type="line"/>
			<point x="436" y="794" type="line"/>
			<point x="436" y="794"/>
			<point x="436" y="794"/>
			<point x="436" y="794" type="curve"/>
			<point x="463" y="794"/>
			<point x="489" y="794"/>
			<point x="516" y="794" type="curve"/>
			<point x="516" y="888" type="line"/>
			<point x="464" y="886"/>
			<point x="338" y="882"/>
			<point x="274" y="882" type="curve" smooth="yes"/>
			<point x="210" y="882"/>
			<point x="120" y="886"/>
			<point x="54" y="888" type="curve"/>
			<point x="54" y="794" type="line"/>
			<point x="101" y="794"/>
			<point x="149" y="794"/>
			<point x="196" y="794" type="curve"/>
		</contour>
	</outline>
</glyph>
<glyph name="y" format="2">
	<unicode hex="0079"/>
	<advance width="1212"/>
	<outline>
		<contour>
			<point x="258" y="-400" type="curve" smooth="yes"/>
			<point x="412" y="-400"/>
			<point x="528" y="-276"/>
			<point x="582" y="-162" type="curve" smooth="yes"/>
			<point x="1012" y="752" type="line" smooth="yes"/>
			<point x="1026" y="780"/>
			<point x="1032" y="794"/>
			<point x="1160" y="794" type="curve"/>
			<point x="1160" y="888" type="line"/>
			<point x="1112" y="884"/>
			<point x="1052" y="882"/>
			<point x="1002" y="882" type="curve" smooth="yes"/>
			<point x="952" y="882"/>
			<point x="862" y="886"/>
			<point x="820" y="888" type="curve"/>
			<point x="820" y="794" type="line"/>
			<point x="824" y="794"/>
			<point x="914" y="794"/>
			<point x="914" y="770" type="curve" smooth="yes"/>
			<point x="914" y="768"/>
			<point x="906" y="748"/>
			<point x="904" y="746" type="curve"/>
			<point x="674" y="254" type="line"/>
			<point x="420" y="794" type="line"/>
			<point x="420" y="794"/>
			<point x="420" y="794"/>
			<point x="420" y="794" type="curve"/>
			<point x="456" y="794"/>
			<point x="492" y="794"/>
			<point x="528" y="794" type="curve"/>
			<point x="528" y="888" type="line"/>
			<point x="462" y="884"/>
			<point x="282" y="882"/>
			<point x="280" y="882" type="curve" smooth="yes"/>
			<point x="224" y="882"/>
			<point x="134" y="886"/>
			<point x="52" y="888" type="curve"/>
			<point x="52" y="794" type="line"/>
			<point x="95" y="794"/>
			<point x="137" y="794"/>
			<point x="180" y="794" type="curve"/>
			<point x="554" y="0" type="line"/>
			<point x="539" y="-32"/>
			<point x="523" y="-64"/>
			<point x="508" y="-96" type="curve" smooth="yes"/>
			<point x="464" y="-192"/>
			<point x="400" y="-328"/>
			<point x="258" y="-328" type="curve" smooth="yes"/>
			<point x="230" y="-328"/>
			<point x="226" y="-326"/>
			<point x="210" y="-320" type="curve"/>
			<point x="228" y="-312"/>
			<point x="274" y="-284"/>
			<point x="274" y="-214" type="curve" smooth="yes"/>
			<point x="274" y="-148"/>
			<point x="226" y="-100"/>
			<point x="158" y="-100" type="curve" smooth="yes"/>
			<point x="102" y="-100"/>
			<point x="44" y="-138"/>
			<point x="44" y="-216" type="curve" smooth="yes"/>
			<point x="44" y="-318"/>
			<point x="138" y="-400"/>
		</contour>
	</outline>
</glyph>
<glyph name="z" format="2">
	<unicode hex="007A"/>
	<advance width="1022"/>
	<outline>
		<contour>
			<point x="640" y="816" type="line"/>
			<point x="82" y="88" type="line" smooth="yes"/>
			<point x="64" y="66"/>
			<point x="64" y="62"/>
			<point x="64" y="44" type="curve" smooth="yes"/>
			<point x="64" y="0"/>
			<point x="90" y="0"/>
			<point x="128" y="0" type="curve" smooth="yes"/>
			<point x="888" y="0" type="line"/>
			<point x="924" y="404" type="line"/>
			<point x="830" y="404" type="line"/>
			<point x="812" y="202"/>
			<point x="780" y="80"/>
			<point x="516" y="80" type="curve" smooth="yes"/>
			<point x="344" y="80" type="line"/>
			<point x="898" y="802" type="line" smooth="yes"/>
			<point x="914" y="824"/>
			<point x="918" y="828"/>
			<point x="918" y="846" type="curve" smooth="yes"/>
			<point x="918" y="888"/>
			<point x="890" y="888"/>
			<point x="854" y="888" type="curve" smooth="yes"/>
			<point x="120" y="888" type="line"/>
			<point x="96" y="538" type="line"/>
			<point x="190" y="538" type="line"/>
			<point x="202" y="744"/>
			<point x="264" y="816"/>
			<point x="470" y="816" type="curve" smooth="yes"/>
		</contour>
	</outline>
</glyph>
<glyph name="exclamdown" format="2">
	<unicode hex="00A1"/>
	<advance width="700"/>
	<outline>
		<contour>
			<point x="350" y="-410" type="curve" smooth="yes"/>
			<point x="436" y="-410"/>
			<point x="508" y="-346"/>
			<point x="508" y="-268" type="curve" smooth="yes"/>
			<point x="508" y="-256"/>
			<point x="507" y="-252"/>
			<point x="400" y="504" type="curve" smooth="yes"/>
			<point x="394" y="542"/>
			<point x="388" y="548"/>
			<point x="350" y="548" type="curve" smooth="yes"/>
			<point x="308" y="548"/>
			<point x="306" y="542"/>
			<point x="300" y="498" type="curve" smooth="yes"/>
			<point x="300" y="494"/>
			<point x="192" y="-264"/>
			<point x="192" y="-268" type="curve" smooth="yes"/>
			<point x="192" y="-346"/>
			<point x="264" y="-410"/>
		</contour>
		<contour>
			<point x="506" y="844" type="curve" smooth="yes"/>
			<point x="506" y="930"/>
			<point x="436" y="1000"/>
			<point x="350" y="1000" type="curve" smooth="yes"/>
			<point x="264" y="1000"/>
			<point x="194" y="930"/>
			<point x="194" y="844" type="curve" smooth="yes"/>
			<point x="194" y="758"/>
			<point x="264" y="688"/>
			<point x="350" y="688" type="curve" smooth="yes"/>
			<point x="436" y="688"/>
			<point x="506" y="758"/>
		</contour>
	</outline>
</glyph>
<glyph name="dieresis" format="2">
	<unicode hex="00A8"/>
	<advance width="1150"/>
	<outline>
		<contour>
			<point x="496" y="1244" type="curve" smooth="yes"/>
			<point x="496" y="1334"/>
			<point x="424" y="1390"/>
			<point x="352" y="1390" type="curve" smooth="yes"/>
			<point x="262" y="1390"/>
			<point x="206" y="1316"/>
			<point x="206" y="1246" type="curve" smooth="yes"/>
			<point x="206" y="1170"/>
			<point x="268" y="1100"/>
			<point x="352" y="1100" type="curve" smooth="yes"/>
			<point x="428" y="1100"/>
			<point x="496" y="1162"/>
		</contour>
		<contour>
			<point x="942" y="1244" type="curve" smooth="yes"/>
			<point x="942" y="1320"/>
			<point x="880" y="1390"/>
			<point x="796" y="1390" type="curve" smooth="yes"/>
			<point x="720" y="1390"/>
			<point x="652" y="1328"/>
			<point x="652" y="1246" type="curve" smooth="yes"/>
			<point x="652" y="1156"/>
			<point x="724" y="1100"/>
			<point x="796" y="1100" type="curve" smooth="yes"/>
			<point x="886" y="1100"/>
			<point x="942" y="1174"/>
		</contour>
	</outline>
</glyph>
<glyph name="macron" format="2">
	<unicode hex="00AF"/>
	<advance width="1150"/>
	<outline>
		<contour>
			<point x="988" y="1110" type="line"/>
			<point x="988" y="1214" type="line"/>
			<point x="160" y="1214" type="line"/>
			<point x="160" y="1110" type="line"/>
		</contour>
	</outline>
</glyph>
<glyph name="acute" format="2">
	<unicode hex="00B4"/>
	<advance width="1150"/>
	<outline>
		<contour>
			<point x="536" y="1018" type="line"/>
			<point x="838" y="1180" type="line" smooth="yes"/>
			<point x="870" y="1198"/>
			<point x="914" y="1220"/>
			<point x="914" y="1284" type="curve" smooth="yes"/>
			<point x="914" y="1346"/>
			<point x="858" y="1408"/>
			<point x="794" y="1408" type="curve" smooth="yes"/>
			<point x="748" y="1408"/>
			<point x="724" y="1382"/>
			<point x="700" y="1356" type="curve" smooth="yes"/>
			<point x="648" y="1298"/>
			<point x="526" y="1150"/>
			<point x="476" y="1092" type="curve"/>
		</contour>
	</outline>
</glyph>
<glyph name="cedilla" format="2">
	<unicode hex="00B8"/>
	<advance width="1022"/>
	<outline>
		<contour>
			<point x="652" y="-222" type="curve" smooth="yes"/>
			<point x="652" y="-326"/>
			<point x="420" y="-326"/>
			<point x="344" y="-326" type="curve" smooth="yes"/>
			<point x="319" y="-326"/>
			<point x="293" y="-326"/>
			<point x="268" y="-326" type="curve"/>
			<point x="268" y="-398" type="line"/>
			<point x="306" y="-398"/>
			<point x="344" y="-398"/>
			<point x="382" y="-398" type="curve" smooth="yes"/>
			<point x="482" y="-398"/>
			<point x="582" y="-394"/>
			<point x="682" y="-376" type="curve" smooth="yes"/>
			<point x="768" y="-358"/>
			<point x="880" y="-324"/>
			<point x="880" y="-222" type="curve" smooth="yes"/>
			<point x="880" y="-108"/>
			<point x="770" y="-74"/>
			<point x="688" y="-60" type="curve"/>
			<point x="688" y="-22" type="line"/>
			<point x="460" y="-22" type="line"/>
			<point x="460" y="-120" type="line"/>
			<point x="528" y="-120"/>
			<point x="652" y="-134"/>
		</contour>
	</outline>
</glyph>
<glyph name="questiondown" format="2">
	<unicode hex="00BF"/>
	<advance width="1086"/>
	<outline>
		<contour>
			<point x="128" y="-142" type="curve" smooth="yes"/>
			<point x="128" y="-400"/>
			<point x="434" y="-400"/>
			<point x="508" y="-400" type="curve" smooth="yes"/>
			<point x="808" y="-400"/>
			<point x="956" y="-296"/>
			<point x="956" y="-146" type="curve" smooth="yes"/>
			<point x="956" y="-50"/>
			<point x="882" y="-18"/>
			<point x="832" y="-18" type="curve" smooth="yes"/>
			<point x="768" y="-18"/>
			<point x="706" y="-62"/>
			<point x="706" y="-144" type="curve" smooth="yes"/>
			<point x="706" y="-218"/>
			<point x="760" y="-252"/>
			<point x="794" y="-264" type="curve"/>
			<point x="696" y="-328"/>
			<point x="536" y="-328"/>
			<point x="520" y="-328" type="curve" smooth="yes"/>
			<point x="384" y="-328"/>
			<point x="384" y="-276"/>
			<point x="384" y="-158" type="curve" smooth="yes"/>
			<point x="384" y="-52"/>
			<point x="398" y="-30"/>
			<point x="426" y="12" type="curve" smooth="yes"/>
			<point x="544" y="188"/>
			<point x="558" y="340"/>
			<point x="558" y="474" type="curve" smooth="yes"/>
			<point x="558" y="484"/>
			<point x="558" y="492"/>
			<point x="558" y="498" type="curve" smooth="yes"/>
			<point x="558" y="542"/>
			<point x="552" y="548"/>
			<point x="510" y="548" type="curve" smooth="yes"/>
			<point x="464" y="548"/>
			<point x="464" y="538"/>
			<point x="464" y="494" type="curve" smooth="yes"/>
			<point x="464" y="470" type="line" smooth="yes"/>
			<point x="464" y="388"/>
			<point x="464" y="214"/>
			<point x="240" y="58" type="curve" smooth="yes"/>
			<point x="206" y="36"/>
			<point x="128" y="-18"/>
		</contour>
		<contour>
			<point x="666" y="844" type="curve" smooth="yes"/>
			<point x="666" y="930"/>
			<point x="596" y="1000"/>
			<point x="510" y="1000" type="curve" smooth="yes"/>
			<point x="424" y="1000"/>
			<point x="354" y="930"/>
			<point x="354" y="844" type="curve" smooth="yes"/>
			<point x="354" y="758"/>
			<point x="424" y="688"/>
			<point x="510" y="688" type="curve" smooth="yes"/>
			<point x="596" y="688"/>
			<point x="666" y="758"/>
		</contour>
	</outline>
</glyph>
<glyph name="AE" format="2">
	<unicode hex="00C6"/>
	<advance width="2082"/>
	<outline>
		<contour>
			<point x="1892" y="1372" type="line"/>
			<point x="620" y="1372" type="line"/>
			<point x="620" y="1278" type="line"/>
			<point x="776" y="1278" type="line"/>
			<point x="296" y="142" type="line" smooth="yes"/>
			<point x="282" y="108"/>
			<point x="266" y="94"/>
			<point x="124" y="94" type="curve" smooth="yes"/>
			<point x="82" y="94" type="line"/>
			<point x="82" y="0" type="line"/>
			<point x="164" y="2"/>
			<point x="256" y="6"/>
			<point x="318" y="6" type="curve" smooth="yes"/>
			<point x="394" y="6"/>
			<point x="506" y="6"/>
			<point x="580" y="0" type="curve"/>
			<point x="580" y="94" type="line"/>
			<point x="528" y="94"/>
			<point x="456" y="94"/>
			<point x="402" y="116" type="curve"/>
			<point x="402" y="116"/>
			<point x="402" y="116"/>
			<point x="402" y="116" type="curve"/>
			<point x="610" y="612" type="line"/>
			<point x="964" y="612" type="line"/>
			<point x="964" y="94" type="line"/>
			<point x="964" y="94"/>
			<point x="964" y="94"/>
			<point x="964" y="94" type="curve"/>
			<point x="802" y="94" type="line"/>
			<point x="802" y="0" type="line"/>
			<point x="1926" y="0" type="line"/>
			<point x="2018" y="548" type="line"/>
			<point x="1924" y="548" type="line"/>
			<point x="1880" y="282"/>
			<point x="1836" y="94"/>
			<point x="1484" y="94" type="curve" smooth="yes"/>
			<point x="1228" y="94" type="line"/>
			<point x="1228" y="94"/>
			<point x="1228" y="94"/>
			<point x="1228" y="94" type="curve"/>
			<point x="1228" y="612" type="line"/>
			<point x="1354" y="612" type="line" smooth="yes"/>
			<point x="1548" y="612"/>
			<point x="1568" y="526"/>
			<point x="1568" y="378" type="curve"/>
			<point x="1662" y="378" type="line"/>
			<point x="1662" y="940" type="line"/>
			<point x="1568" y="940" type="line"/>
			<point x="1568" y="794"/>
			<point x="1550" y="706"/>
			<point x="1354" y="706" type="curve" smooth="yes"/>
			<point x="1228" y="706" type="line"/>
			<point x="1228" y="1278" type="line"/>
			<point x="1228" y="1278"/>
			<point x="1228" y="1278"/>
			<point x="1228" y="1278" type="curve"/>
			<point x="1476" y="1278" type="line" smooth="yes"/>
			<point x="1792" y="1278"/>
			<point x="1830" y="1124"/>
			<point x="1860" y="890" type="curve"/>
			<point x="1954" y="890" type="line"/>
		</contour>
		<contour>
			<point x="650" y="706" type="line"/>
			<point x="890" y="1278" type="line"/>
			<point x="915" y="1278"/>
			<point x="939" y="1278"/>
			<point x="964" y="1278" type="curve"/>
			<point x="964" y="706" type="line"/>
		</contour>
	</outline>
</glyph>
<glyph name="Oslash" format="2">
	<unicode hex="00D8"/>
	<advance width="1788"/>
	<outline>
		<contour>
			<point x="1476" y="1446" type="line"/>
			<point x="1412" y="1492" type="line"/>
			<point x="1284" y="1312" type="line"/>
			<point x="1168" y="1368"/>
			<point x="1032" y="1394"/>
			<point x="894" y="1394" type="curve" smooth="yes"/>
			<point x="392" y="1394"/>
			<point x="128" y="1074"/>
			<point x="128" y="680" type="curve" smooth="yes"/>
			<point x="128" y="492"/>
			<point x="192" y="248"/>
			<point x="430" y="98" type="curve"/>
			<point x="310" y="-74" type="line"/>
			<point x="322" y="-82"/>
			<point x="370" y="-118"/>
			<point x="374" y="-120" type="curve"/>
			<point x="500" y="58" type="line"/>
			<point x="668" y="-18"/>
			<point x="830" y="-22"/>
			<point x="892" y="-22" type="curve" smooth="yes"/>
			<point x="1380" y="-22"/>
			<point x="1658" y="276"/>
			<point x="1658" y="680" type="curve" smooth="yes"/>
			<point x="1658" y="886"/>
			<point x="1580" y="1132"/>
			<point x="1354" y="1272" type="curve"/>
		</contour>
		<contour>
			<point x="894" y="50" type="curve" smooth="yes"/>
			<point x="840" y="50"/>
			<point x="690" y="56"/>
			<point x="572" y="158" type="curve"/>
			<point x="1270" y="1152" type="line"/>
			<point x="1368" y="1018"/>
			<point x="1374" y="848"/>
			<point x="1374" y="680" type="curve" smooth="yes"/>
			<point x="1374" y="550"/>
			<point x="1374" y="358"/>
			<point x="1276" y="224" type="curve" smooth="yes"/>
			<point x="1156" y="62"/>
			<point x="966" y="50"/>
		</contour>
		<contour>
			<point x="514" y="218" type="line"/>
			<point x="412" y="352"/>
			<point x="412" y="552"/>
			<point x="412" y="680" type="curve" smooth="yes"/>
			<point x="412" y="834"/>
			<point x="416" y="1000"/>
			<point x="504" y="1136" type="curve" smooth="yes"/>
			<point x="590" y="1264"/>
			<point x="742" y="1322"/>
			<point x="892" y="1322" type="curve" smooth="yes"/>
			<point x="1012" y="1322"/>
			<point x="1126" y="1286"/>
			<point x="1214" y="1212" type="curve"/>
		</contour>
	</outline>
</glyph>
<glyph name="germandbls" format="2">
	<unicode hex="00DF"/>
	<advance width="1194"/>
	<outline>
		<contour>
			<point x="818" y="846" type="curve"/>
			<point x="1030" y="918"/>
			<point x="1064" y="1054"/>
			<point x="1064" y="1124" type="curve" smooth="yes"/>
			<point x="1064" y="1256"/>
			<point x="948" y="1400"/>
			<point x="634" y="1400" type="curve" smooth="yes"/>
			<point x="390" y="1400"/>
			<point x="212" y="1306"/>
			<point x="212" y="1112" type="curve" smooth="yes"/>
			<point x="212" y="888" type="line"/>
			<point x="74" y="888" type="line"/>
			<point x="74" y="794" type="line"/>
			<point x="212" y="794" type="line"/>
			<point x="212" y="94" type="line"/>
			<point x="166" y="94"/>
			<point x="120" y="94"/>
			<point x="74" y="94" type="curve"/>
			<point x="74" y="0" type="line"/>
			<point x="122" y="2"/>
			<point x="234" y="6"/>
			<point x="298" y="6" type="curve" smooth="yes"/>
			<point x="354" y="6"/>
			<point x="374" y="4"/>
			<point x="428" y="0" type="curve"/>
			<point x="428" y="1116" type="line" smooth="yes"/>
			<point x="428" y="1172"/>
			<point x="428" y="1328"/>
			<point x="632" y="1328" type="curve" smooth="yes"/>
			<point x="828" y="1328"/>
			<point x="828" y="1178"/>
			<point x="828" y="1126" type="curve" smooth="yes"/>
			<point x="828" y="1016"/>
			<point x="792" y="900"/>
			<point x="600" y="888" type="curve" smooth="yes"/>
			<point x="574" y="886"/>
			<point x="556" y="886"/>
			<point x="556" y="852" type="curve" smooth="yes"/>
			<point x="556" y="818"/>
			<point x="574" y="818"/>
			<point x="592" y="816" type="curve" smooth="yes"/>
			<point x="890" y="794"/>
			<point x="892" y="464"/>
			<point x="892" y="358" type="curve" smooth="yes"/>
			<point x="892" y="290"/>
			<point x="892" y="60"/>
			<point x="702" y="60" type="curve" smooth="yes"/>
			<point x="672" y="60"/>
			<point x="648" y="72"/>
			<point x="644" y="74" type="curve"/>
			<point x="676" y="92"/>
			<point x="694" y="130"/>
			<point x="694" y="162" type="curve" smooth="yes"/>
			<point x="694" y="222"/>
			<point x="646" y="262"/>
			<point x="594" y="262" type="curve" smooth="yes"/>
			<point x="560" y="262"/>
			<point x="494" y="240"/>
			<point x="494" y="160" type="curve" smooth="yes"/>
			<point x="494" y="76"/>
			<point x="568" y="-12"/>
			<point x="708" y="-12" type="curve" smooth="yes"/>
			<point x="934" y="-12"/>
			<point x="1128" y="116"/>
			<point x="1128" y="360" type="curve" smooth="yes"/>
			<point x="1128" y="610"/>
			<point x="988" y="782"/>
		</contour>
	</outline>
</glyph>
<glyph name="oslash" format="2">
	<unicode hex="00F8"/>
	<advance width="1150"/>
	<outline>
		<contour>
			<point x="208" y="-214" type="line"/>
			<point x="354" y="22" type="line"/>
			<point x="454" y="-12"/>
			<point x="550" y="-12"/>
			<point x="574" y="-12" type="curve" smooth="yes"/>
			<point x="910" y="-12"/>
			<point x="1084" y="190"/>
			<point x="1084" y="436" type="curve" smooth="yes"/>
			<point x="1084" y="588"/>
			<point x="1020" y="752"/>
			<point x="860" y="838" type="curve"/>
			<point x="1000" y="1064" type="line"/>
			<point x="940" y="1104" type="line"/>
			<point x="796" y="870" type="line"/>
			<point x="692" y="906"/>
			<point x="592" y="906"/>
			<point x="574" y="906" type="curve" smooth="yes"/>
			<point x="246" y="906"/>
			<point x="64" y="702"/>
			<point x="64" y="436" type="curve" smooth="yes"/>
			<point x="64" y="314"/>
			<point x="110" y="148"/>
			<point x="288" y="52" type="curve"/>
			<point x="148" y="-174" type="line"/>
		</contour>
		<contour>
			<point x="574" y="60" type="curve" smooth="yes"/>
			<point x="550" y="60"/>
			<point x="472" y="60"/>
			<point x="406" y="104" type="curve"/>
			<point x="796" y="736" type="line"/>
			<point x="854" y="658"/>
			<point x="856" y="550"/>
			<point x="856" y="438" type="curve" smooth="yes"/>
			<point x="856" y="340"/>
			<point x="856" y="209"/>
			<point x="778" y="130" type="curve" smooth="yes"/>
			<point x="736" y="88"/>
			<point x="672" y="60"/>
		</contour>
		<contour>
			<point x="350" y="154" type="line"/>
			<point x="292" y="226"/>
			<point x="292" y="340"/>
			<point x="292" y="438" type="curve" smooth="yes"/>
			<point x="292" y="538"/>
			<point x="292" y="681"/>
			<point x="376" y="765" type="curve" smooth="yes"/>
			<point x="417" y="807"/>
			<point x="480" y="834"/>
			<point x="574" y="834" type="curve" smooth="yes"/>
			<point x="634" y="834"/>
			<point x="694" y="822"/>
			<point x="744" y="788" type="curve"/>
		</contour>
	</outline>
</glyph>
<glyph name="dotlessi" format="2">
	<unicode hex="0131"/>
	<advance width="319"/>
	<outline>
		<contour>
			<point x="224" y="450" type="line"/>
			<point x="50" y="442" type="line"/>
			<point x="50" y="395" type="line"/>
			<point x="109" y="395"/>
			<point x="116" y="395"/>
			<point x="116" y="356" type="curve" smooth="yes"/>
			<point x="116" y="47" type="line"/>
			<point x="116" y="47"/>
			<point x="116" y="47"/>
			<point x="116" y="47" type="curve"/>
			<point x="47" y="47" type="line"/>
			<point x="47" y="0" type="line"/>
			<point x="78" y="1"/>
			<point x="127" y="3"/>
			<point x="169" y="3" type="curve" smooth="yes"/>
			<point x="199" y="3"/>
			<point x="250" y="1"/>
			<point x="286" y="0" type="curve"/>
			<point x="286" y="47" type="line"/>
			<point x="265.354" y="47"/>
			<point x="244.708" y="47"/>
			<point x="224" y="47" type="curve"/>
		</contour>
	</outline>
</glyph>
<glyph name="OE" format="2">
  <advance width="1169"/>
  <unicode hex="0152"/>
  <outline>
    <contour>
      <point x="1136" y="274" type="line"/>
      <point x="1089" y="274" type="line"/>
      <point x="1067" y="136"/>
      <point x="1041" y="47"/>
      <point x="862" y="47" type="curve" smooth="yes"/>
      <point x="717" y="47" type="line"/>
      <point x="717" y="47" type="line"/>
      <point x="717" y="333" type="line"/>
      <point x="806" y="333" type="line" smooth="yes"/>
      <point x="898" y="333"/>
      <point x="927" y="307"/>
      <point x="927" y="216" type="curve"/>
      <point x="974" y="216" type="line"/>
      <point x="974" y="497" type="line"/>
      <point x="927" y="497" type="line"/>
      <point x="927" y="406"/>
      <point x="898" y="380"/>
      <point x="806" y="380" type="curve" smooth="yes"/>
      <point x="717" y="380" type="line"/>
      <point x="717" y="642" type="line"/>
      <point x="717" y="639" type="line"/>
      <point x="859" y="639" type="line" smooth="yes"/>
      <point x="1021" y="639"/>
      <point x="1042" y="563"/>
      <point x="1057" y="445" type="curve"/>
      <point x="1104" y="445" type="line"/>
      <point x="1073" y="686" type="line"/>
      <point x="649" y="686" type="line" smooth="yes"/>
      <point x="637" y="686"/>
      <point x="624" y="686"/>
      <point x="544" y="693" type="curve" smooth="yes"/>
      <point x="497" y="697"/>
      <point x="471" y="697"/>
      <point x="466" y="697" type="curve" smooth="yes"/>
      <point x="216" y="697"/>
      <point x="83" y="537"/>
      <point x="83" y="340" type="curve" smooth="yes"/>
      <point x="83" y="138"/>
      <point x="222" y="-11"/>
      <point x="466" y="-11" type="curve" smooth="yes"/>
      <point x="475" y="-11"/>
      <point x="502" y="-11"/>
      <point x="565" y="-5" type="curve" smooth="yes"/>
      <point x="619" y="0"/>
      <point x="648" y="0"/>
      <point x="649" y="0" type="curve" smooth="yes"/>
      <point x="1090" y="0" type="line"/>
    </contour>
    <contour>
      <point x="230" y="355" type="curve" smooth="yes"/>
      <point x="230" y="560"/>
      <point x="336" y="661"/>
      <point x="470" y="661" type="curve" smooth="yes"/>
      <point x="585" y="661"/>
      <point x="592" y="612"/>
      <point x="593" y="465" type="curve" smooth="yes"/>
      <point x="594" y="343" type="line" smooth="yes"/>
      <point x="594" y="234"/>
      <point x="594" y="161"/>
      <point x="590" y="130" type="curve" smooth="yes"/>
      <point x="580" y="59"/>
      <point x="565" y="25"/>
      <point x="470" y="25" type="curve" smooth="yes"/>
      <point x="333" y="25"/>
      <point x="230" y="140"/>
    </contour>
  </outline>
</glyph>
<glyph name="oe" format="2">
	<unicode hex="0153"/>
	<advance width="1788"/>
	<outline>
		<contour>
			<point x="568" y="-12" type="curve" smooth="yes"/>
			<point x="776" y="-12"/>
			<point x="898" y="74"/>
			<point x="958" y="138" type="curve"/>
			<point x="1026" y="64"/>
			<point x="1160" y="-12"/>
			<point x="1352" y="-12" type="curve" smooth="yes"/>
			<point x="1632" y="-12"/>
			<point x="1722" y="194"/>
			<point x="1722" y="234" type="curve" smooth="yes"/>
			<point x="1722" y="270"/>
			<point x="1684" y="270"/>
			<point x="1674" y="270" type="curve" smooth="yes"/>
			<point x="1640" y="270"/>
			<point x="1636" y="260"/>
			<point x="1624" y="232" type="curve" smooth="yes"/>
			<point x="1578" y="114"/>
			<point x="1464" y="68"/>
			<point x="1368" y="68" type="curve" smooth="yes"/>
			<point x="1082" y="68"/>
			<point x="1074" y="336"/>
			<point x="1070" y="436" type="curve"/>
			<point x="1658" y="436" type="line" smooth="yes"/>
			<point x="1706" y="436"/>
			<point x="1722" y="438"/>
			<point x="1722" y="492" type="curve" smooth="yes"/>
			<point x="1722" y="596"/>
			<point x="1696" y="906"/>
			<point x="1324" y="906" type="curve" smooth="yes"/>
			<point x="1190" y="906"/>
			<point x="1056" y="866"/>
			<point x="954" y="762" type="curve"/>
			<point x="888" y="826"/>
			<point x="776" y="906"/>
			<point x="568" y="906" type="curve" smooth="yes"/>
			<point x="250" y="906"/>
			<point x="64" y="712"/>
			<point x="64" y="448" type="curve" smooth="yes"/>
			<point x="64" y="188"/>
			<point x="246" y="-12"/>
		</contour>
		<contour>
			<point x="568" y="60" type="curve" smooth="yes"/>
			<point x="404" y="60"/>
			<point x="296" y="160"/>
			<point x="296" y="460" type="curve" smooth="yes"/>
			<point x="296" y="708"/>
			<point x="376" y="834"/>
			<point x="568" y="834" type="curve" smooth="yes"/>
			<point x="842" y="834"/>
			<point x="842" y="570"/>
			<point x="842" y="458" type="curve" smooth="yes"/>
			<point x="842" y="346"/>
			<point x="842" y="60"/>
		</contour>
		<contour>
			<point x="1070" y="502" type="line"/>
			<point x="1070" y="806"/>
			<point x="1258" y="834"/>
			<point x="1322" y="834" type="curve" smooth="yes"/>
			<point x="1516" y="834"/>
			<point x="1526" y="610"/>
			<point x="1532" y="502" type="curve"/>
		</contour>
	</outline>
</glyph>
<glyph name="circumflex" format="2">
	<unicode hex="02C6"/>
	<advance width="1150"/>
	<outline>
		<contour>
			<point x="574" y="1388" type="line"/>
			<point x="260" y="1136" type="line"/>
			<point x="316" y="1058" type="line"/>
			<point x="574" y="1224" type="line"/>
			<point x="832" y="1060" type="line"/>
			<point x="888" y="1134" type="line"/>
		</contour>
	</outline>
</glyph>
<glyph name="caron" format="2">
	<unicode hex="02C7"/>
	<advance width="1150"/>
	<outline>
		<contour>
			<point x="574" y="1200" type="line"/>
			<point x="310" y="1306" type="line"/>
			<point x="266" y="1222" type="line"/>
			<point x="574" y="1036" type="line"/>
			<point x="882" y="1222" type="line"/>
			<point x="838" y="1306" type="line"/>
		</contour>
	</outline>
</glyph>
<glyph name="breve" format="2">
  <advance width="575"/>
  <unicode hex="02D8"/>
  <outline>
    <contour>
      <point x="428" y="694" type="line"/>
      <point x="426" y="611"/>
      <point x="351" y="569"/>
      <point x="287" y="569" type="curve" smooth="yes"/>
      <point x="223" y="569"/>
      <point x="148" y="611"/>
      <point x="146" y="694" type="curve"/>
      <point x="110" y="694" type="line"/>
      <point x="113" y="578"/>
      <point x="198" y="507"/>
      <point x="287" y="507" type="curve" smooth="yes"/>
      <point x="376" y="507"/>
      <point x="461" y="579"/>
      <point x="464" y="694" type="curve"/>
    </contour>
  </outline>
</glyph>
<glyph name="dotaccent" format="2">
	<unicode hex="02D9"/>
	<advance width="638"/>
	<outline>
		<contour>
			<point x="474" y="1234" type="curve" smooth="yes"/>
			<point x="474" y="1320"/>
			<point x="404" y="1390"/>
			<point x="318" y="1390" type="curve" smooth="yes"/>
			<point x="232" y="1390"/>
			<point x="162" y="1320"/>
			<point x="162" y="1234" type="curve" smooth="yes"/>
			<point x="162" y="1148"/>
			<point x="232" y="1078"/>
			<point x="318" y="1078" type="curve" smooth="yes"/>
			<point x="404" y="1078"/>
			<point x="474" y="1148"/>
		</contour>
	</outline>
</glyph>
<glyph name="ring" format="2">
	<unicode hex="02DA"/>
	<advance width="1738"/>
	<outline>
		<contour>
			<point x="1106" y="1236" type="curve" smooth="yes"/>
			<point x="1106" y="1316"/>
			<point x="1042" y="1404"/>
			<point x="868" y="1404" type="curve" smooth="yes"/>
			<point x="688" y="1404"/>
			<point x="630" y="1310"/>
			<point x="630" y="1238" type="curve" smooth="yes"/>
			<point x="630" y="1158"/>
			<point x="694" y="1070"/>
			<point x="868" y="1070" type="curve" smooth="yes"/>
			<point x="1048" y="1070"/>
			<point x="1106" y="1164"/>
		</contour>
		<contour>
			<point x="868" y="1142" type="curve" smooth="yes"/>
			<point x="782" y="1142"/>
			<point x="724" y="1148"/>
			<point x="724" y="1238" type="curve" smooth="yes"/>
			<point x="724" y="1328"/>
			<point x="788" y="1332"/>
			<point x="868" y="1332" type="curve" smooth="yes"/>
			<point x="948" y="1332"/>
			<point x="1012" y="1328"/>
			<point x="1012" y="1238" type="curve" smooth="yes"/>
			<point x="1012" y="1148"/>
			<point x="954" y="1142"/>
		</contour>
	</outline>
</glyph>
<glyph name="tilde" format="2">
	<unicode hex="02DC"/>
	<advance width="1150"/>
	<outline>
		<contour>
			<point x="244" y="1172" type="line"/>
			<point x="304" y="1240"/>
			<point x="374" y="1240"/>
			<point x="396" y="1240" type="curve" smooth="yes"/>
			<point x="436" y="1240"/>
			<point x="470" y="1234"/>
			<point x="556" y="1206" type="curve" smooth="yes"/>
			<point x="648" y="1176"/>
			<point x="686" y="1172"/>
			<point x="714" y="1172" type="curve" smooth="yes"/>
			<point x="750" y="1172"/>
			<point x="804" y="1180"/>
			<point x="858" y="1234" type="curve" smooth="yes"/>
			<point x="880" y="1256"/>
			<point x="934" y="1316"/>
			<point x="956" y="1338" type="curve"/>
			<point x="904" y="1388" type="line"/>
			<point x="844" y="1320"/>
			<point x="774" y="1320"/>
			<point x="752" y="1320" type="curve" smooth="yes"/>
			<point x="712" y="1320"/>
			<point x="678" y="1326"/>
			<point x="592" y="1354" type="curve" smooth="yes"/>
			<point x="500" y="1384"/>
			<point x="462" y="1388"/>
			<point x="434" y="1388" type="curve" smooth="yes"/>
			<point x="398" y="1388"/>
			<point x="344" y="1380"/>
			<point x="290" y="1326" type="curve" smooth="yes"/>
			<point x="268" y="1304"/>
			<point x="214" y="1244"/>
			<point x="192" y="1222" type="curve"/>
		</contour>
	</outline>
</glyph>
<glyph name="hungarumlaut" format="2">
	<unicode hex="02DD"/>
	<advance width="1150"/>
	<outline>
		<contour>
			<point x="280" y="1078" type="line"/>
			<point x="358" y="1030" type="line"/>
			<point x="402" y="1072"/>
			<point x="516" y="1174"/>
			<point x="558" y="1218" type="curve" smooth="yes"/>
			<point x="582" y="1242"/>
			<point x="596" y="1266"/>
			<point x="596" y="1300" type="curve" smooth="yes"/>
			<point x="596" y="1370"/>
			<point x="524" y="1420"/>
			<point x="466" y="1420" type="curve" smooth="yes"/>
			<point x="390" y="1420"/>
			<point x="372" y="1366"/>
			<point x="344" y="1284" type="curve" smooth="yes"/>
		</contour>
		<contour>
			<point x="742" y="1030" type="line"/>
			<point x="786" y="1072"/>
			<point x="900" y="1174"/>
			<point x="942" y="1218" type="curve" smooth="yes"/>
			<point x="966" y="1242"/>
			<point x="980" y="1266"/>
			<point x="980" y="1300" type="curve" smooth="yes"/>
			<point x="980" y="1370"/>
			<point x="908" y="1420"/>
			<point x="850" y="1420" type="curve" smooth="yes"/>
			<point x="774" y="1420"/>
			<point x="756" y="1366"/>
			<point x="728" y="1284" type="curve" smooth="yes"/>
			<point x="707" y="1215"/>
			<point x="685" y="1147"/>
			<point x="664" y="1078" type="curve"/>
		</contour>
	</outline>
</glyph>
<glyph name="Gamma" format="2">
  <advance width="691"/>
  <unicode hex="0393"/>
  <outline>
    <contour>
      <point x="612" y="680" type="line"/>
      <point x="39" y="680" type="line"/>
      <point x="39" y="633" type="line"/>
      <point x="147" y="633" type="line"/>
      <point x="147" y="47" type="line"/>
      <point x="39" y="47" type="line"/>
      <point x="39" y="0" type="line"/>
      <point x="77" y="3"/>
      <point x="178" y="3"/>
      <point x="222" y="3" type="curve" smooth="yes"/>
      <point x="271" y="3"/>
      <point x="380" y="3"/>
      <point x="424" y="0" type="curve"/>
      <point x="424" y="47" type="line"/>
      <point x="289" y="47" type="line"/>
      <point x="289" y="633" type="line"/>
      <point x="405" y="633" type="line" smooth="yes"/>
      <point x="562" y="633"/>
      <point x="581" y="556"/>
      <point x="596" y="439" type="curve"/>
      <point x="643" y="439" type="line"/>
    </contour>
  </outline>
</glyph>
<glyph name="Phi" format="2">
  <advance width="830"/>
  <unicode hex="03A6"/>
  <outline>
    <contour>
      <point x="610" y="639" type="line"/>
      <point x="610" y="686" type="line"/>
      <point x="566" y="683"/>
      <point x="459" y="683"/>
      <point x="410" y="683" type="curve" smooth="yes"/>
      <point x="361" y="683"/>
      <point x="253" y="683"/>
      <point x="209" y="686" type="curve"/>
      <point x="209" y="639" type="line"/>
      <point x="344" y="639" type="line"/>
      <point x="344" y="533" type="line"/>
      <point x="188" y="523"/>
      <point x="64" y="450"/>
      <point x="64" y="343" type="curve" smooth="yes"/>
      <point x="64" y="236"/>
      <point x="188" y="163"/>
      <point x="344" y="153" type="curve"/>
      <point x="344" y="47" type="line"/>
      <point x="209" y="47" type="line"/>
      <point x="209" y="0" type="line"/>
      <point x="253" y="3"/>
      <point x="360" y="3"/>
      <point x="409" y="3" type="curve" smooth="yes"/>
      <point x="458" y="3"/>
      <point x="566" y="3"/>
      <point x="610" y="0" type="curve"/>
      <point x="610" y="47" type="line"/>
      <point x="475" y="47" type="line"/>
      <point x="475" y="152" type="line"/>
      <point x="734" y="172"/>
      <point x="766" y="296"/>
      <point x="766" y="343" type="curve" smooth="yes"/>
      <point x="766" y="392"/>
      <point x="732" y="514"/>
      <point x="475" y="534" type="curve"/>
      <point x="475" y="639" type="line"/>
    </contour>
    <contour>
      <point x="344" y="190" type="line"/>
      <point x="219" y="208"/>
      <point x="211" y="286"/>
      <point x="211" y="343" type="curve" smooth="yes"/>
      <point x="211" y="401"/>
      <point x="219" y="478"/>
      <point x="344" y="496" type="curve"/>
    </contour>
    <contour>
      <point x="475" y="497" type="line"/>
      <point x="602" y="482"/>
      <point x="619" y="416"/>
      <point x="619" y="343" type="curve" smooth="yes"/>
      <point x="619" y="270"/>
      <point x="602" y="204"/>
      <point x="475" y="189" type="curve"/>
    </contour>
  </outline>
</glyph>
<glyph name="endash" format="2">
	<unicode hex="2013"/>
	<advance width="1150"/>
	<outline>
		<contour>
			<point x="1148" y="512" type="line"/>
			<point x="1148" y="584" type="line"/>
			<point x="0" y="584" type="line"/>
			<point x="0" y="512" type="line"/>
		</contour>
	</outline>
</glyph>
<glyph name="emdash" format="2">
	<unicode hex="2014"/>
	<advance width="2300"/>
	<outline>
		<contour>
			<point x="2298" y="512" type="line"/>
			<point x="2298" y="584" type="line"/>
			<point x="0" y="584" type="line"/>
			<point x="0" y="512" type="line"/>
		</contour>
	</outline>
</glyph>
<glyph name="quoteleft" format="2">
	<unicode hex="2018"/>
	<advance width="638"/>
	<outline>
		<contour>
			<point x="320" y="688" type="curve" smooth="yes"/>
			<point x="412" y="688"/>
			<point x="474" y="758"/>
			<point x="474" y="844" type="curve" smooth="yes"/>
			<point x="474" y="924"/>
			<point x="420" y="1000"/>
			<point x="318" y="1000" type="curve" smooth="yes"/>
			<point x="274" y="1000"/>
			<point x="234" y="984"/>
			<point x="202" y="954" type="curve"/>
			<point x="214" y="1178"/>
			<point x="354" y="1288"/>
			<point x="398" y="1322" type="curve" smooth="yes"/>
			<point x="406" y="1328"/>
			<point x="414" y="1334"/>
			<point x="414" y="1348" type="curve" smooth="yes"/>
			<point x="414" y="1368"/>
			<point x="392" y="1388"/>
			<point x="376" y="1388" type="curve" smooth="yes"/>
			<point x="348" y="1388"/>
			<point x="130" y="1218"/>
			<point x="130" y="938" type="curve" smooth="yes"/>
			<point x="130" y="800"/>
			<point x="204" y="688"/>
		</contour>
	</outline>
</glyph>
<glyph name="quoteright" format="2">
	<unicode hex="2019"/>
	<advance width="638"/>
	<outline>
		<contour>
			<point x="260" y="688" type="curve" smooth="yes"/>
			<point x="288" y="688"/>
			<point x="506" y="858"/>
			<point x="506" y="1138" type="curve" smooth="yes"/>
			<point x="506" y="1276"/>
			<point x="432" y="1388"/>
			<point x="316" y="1388" type="curve" smooth="yes"/>
			<point x="224" y="1388"/>
			<point x="162" y="1318"/>
			<point x="162" y="1232" type="curve" smooth="yes"/>
			<point x="162" y="1152"/>
			<point x="216" y="1076"/>
			<point x="318" y="1076" type="curve" smooth="yes"/>
			<point x="362" y="1076"/>
			<point x="402" y="1092"/>
			<point x="434" y="1122" type="curve"/>
			<point x="422" y="898"/>
			<point x="282" y="788"/>
			<point x="238" y="754" type="curve" smooth="yes"/>
			<point x="230" y="748"/>
			<point x="222" y="742"/>
			<point x="222" y="728" type="curve" smooth="yes"/>
			<point x="222" y="708"/>
			<point x="244" y="688"/>
		</contour>
	</outline>
</glyph>
